<svg width="601pt" height="687pt" version="1.2" viewBox="0 0 601 687" xmlns="http://www.w3.org/2000/svg"><defs><clipPath id="a"><path d="m104 62h602v687h-602z"/></clipPath></defs><g transform="translate(-105 -62)"><g clip-path="url(#a)"><path d="m630 405 73-150c3.3-6.8 3-15-0.76-21-3.8-6.6-11-11-18-11l-167-12-94-138c-4.2-6.3-11-10-19-10-7.6 0-15 3.8-19 10l-94 138-167 12c-7.6 0.53-14 4.8-18 11-3.8 6.6-4.1 15-0.77 21l73 150-73 150c-3.3 6.8-3 15 0.77 21 3.8 6.6 11 11 18 11l167 12 94 138c4.2 6.3 11 10 19 10 7.6 0 15-3.8 19-10l94-138 167-12c7.6-0.54 14-4.8 18-11 3.8-6.6 4.1-15 0.76-21l-73-150" style="fill:#e3783a"/></g><path d="m206 554c-0.64-3.8 0.92-9.3 5.4-8 1.7 0.48 2.7 1.7 2.8 3.4 0.26 2.5-1.7 2.4-3.6 3.9-1.9 1.4-4.2 3.3-4.6 0.72" style="fill:#c26633"/><path d="m159 575c0.23 0.76 0.84 1.3 1.7 1.4 0.93 0.11 1-0.078 1.5-0.82 0.68-1 1.4-1.8 2.7-1.7 0.8 0.02 1.6 0.23 2.4 0.18 0.66-0.043 2-0.18 1.7-1.1-0.16-0.51-1.6-0.77-2-0.96-1.5-0.67-3.3-2-5-1.6-1.9 0.45-3.5 2.8-2.9 4.7" style="fill:#c26633"/><path d="m385 425c1.2 2.1 0.25 4.3 1.6 6.4 1.1 1.6 1.8 3.1 1.8 5.1 0.051 2 0.86 4.4 3.6 3.9 3.7-0.67 4.5-3.8 2.7-6.7-0.99-1.7-1.9-3.3-2.5-5.1-0.84-2.3-2-4-3.5-5.9-1.1-1.4-2.1-3.4-3.6-4.3-2.3-0.24-3.3 0.68-3.1 2.8 0.31 0.6 0.69 1.2 1.2 1.6 0.66 0.71 1.5 1.4 2 2.3" style="fill:#c26633"/><path d="m342 668c-1.9-0.47-4-5.9-4.3-7.5-0.57-2.8-4-6-1.7-8.4 2.9-2.9 6.4 1.7 8.4 4 3.3 3.9 1.7 7.4-0.38 11 0 0-0.9 0.92-2 0.65" style="fill:#c26633"/><path d="m331 570c-0.52-2.9 0.74-6.7 4.7-8.4 2.5-1.1 7.2-0.23 8.2 2.7 1.2 3.7-3.4 4.6-5.4 6.7-4 4.2-6.9 2.3-7.5-1" style="fill:#c26633"/><path d="m312 476c-0.52-2.9 0.74-6.7 4.7-8.4 2.5-1.1 7.2-0.23 8.2 2.7 1.2 3.7-3.4 4.6-5.4 6.7-3.9 4.2-6.9 2.3-7.5-1" style="fill:#c26633"/><path d="m396 547c-0.5-2.9 0.75-6.7 4.7-8.4 2.5-1.1 7.2-0.23 8.2 2.7 1.2 3.7-3.4 4.6-5.4 6.7-4 4.3-6.9 2.3-7.5-1" style="fill:#c26633"/><path d="m298 600c0.23 0.76 0.86 1.3 1.6 1.4 0.94 0.098 1-0.078 1.5-0.83 0.66-1 1.4-1.7 2.7-1.7 0.79 8e-3 1.6 0.23 2.4 0.17 0.68-0.035 2-0.17 1.7-1.1-0.18-0.52-1.6-0.78-2-0.97-1.5-0.67-3.3-2.1-5-1.6-1.9 0.42-3.5 2.8-2.9 4.7" style="fill:#c26633"/><path d="m363 472c0.23 0.77 0.86 1.3 1.7 1.4 0.91 0.094 1-0.078 1.5-0.82 0.66-1 1.4-1.8 2.7-1.7 0.79 0.016 1.6 0.24 2.4 0.19 0.68-0.043 2-0.19 1.7-1.2-0.18-0.5-1.6-0.77-2-0.96-1.5-0.68-3.3-2-5-1.6-1.9 0.43-3.5 2.8-2.9 4.7" style="fill:#c26633"/><path d="m333 532c0.22 0.77 0.84 1.3 1.7 1.4 0.93 0.11 1-0.066 1.5-0.81 0.67-1 1.4-1.7 2.7-1.7 0.79 0.016 1.6 0.23 2.4 0.18 0.67-0.043 2-0.18 1.7-1.2-0.17-0.52-1.6-0.76-2-0.96-1.5-0.67-3.3-2-5-1.6-1.9 0.43-3.5 2.8-2.9 4.7" style="fill:#c26633"/><path d="m375 660c0.24 0.76 0.86 1.3 1.7 1.4 0.92 0.11 1-0.078 1.5-0.82 0.67-1 1.4-1.8 2.7-1.7 0.79 0.02 1.6 0.24 2.4 0.18 0.68-0.043 2-0.18 1.7-1.1-0.17-0.51-1.6-0.77-2-0.97-1.5-0.67-3.3-2-5-1.6-1.9 0.45-3.5 2.8-2.9 4.7" style="fill:#c26633"/><path d="m280 535c1.6-1.8 4-1.6 5.5-3.5 1.2-1.6 2.4-2.6 4.3-3.3 1.9-0.66 3.9-2.2 2.6-4.6-1.8-3.3-5-3.1-7.3-0.46-1.3 1.5-2.5 2.8-4.1 4-1.9 1.5-3.1 3.1-4.4 5.2-0.96 1.5-2.5 3.1-3 4.8 0.48 2.3 1.7 3 3.6 2.1 0.48-0.48 0.89-1 1.2-1.6 0.48-0.84 0.89-1.9 1.5-2.6" style="fill:#c26633"/><path d="m182 406c-0.52-2.9 0.74-6.7 4.7-8.4 2.5-1.1 7.2-0.24 8.2 2.7 1.2 3.7-3.4 4.6-5.4 6.7-4 4.3-6.9 2.3-7.5-1" style="fill:#c26633"/><path d="m122 264c-0.52-2.9 0.74-6.7 4.6-8.4 2.5-1.1 7.2-0.23 8.2 2.7 1.2 3.7-3.4 4.6-5.4 6.7-4 4.3-6.9 2.3-7.5-1" style="fill:#c26633"/><path d="m146 330c0.22 0.77 0.86 1.3 1.7 1.4 0.91 0.11 1-0.078 1.5-0.84 0.67-1 1.4-1.7 2.7-1.7 0.79 0.016 1.6 0.23 2.4 0.17 0.66-0.051 2-0.18 1.7-1.1-0.17-0.52-1.6-0.77-2-0.97-1.5-0.67-3.3-2-5-1.6-1.9 0.44-3.5 2.8-2.9 4.7" style="fill:#c26633"/><path d="m365 599c0.65-0.53 0.87-1.1 0.77-1.7-1.3-0.65-2.8-0.96-4.1-0.64-0.45 0.098-1.3 0.28-1.5 0.81-0.17 0.6 0.66 1.2 1.1 1.5 1.1 0.79 2.7 0.94 3.8 0.027" style="fill:#c26633"/><path d="m531 318c1.2 2.1 0.23 4.3 1.6 6.4 1.1 1.6 1.8 3.1 1.8 5.1 0.051 2 0.86 4.4 3.6 3.9 3.7-0.66 4.5-3.8 2.7-6.7-1-1.7-1.9-3.3-2.6-5.1-0.83-2.3-2-4-3.5-5.8-1.1-1.4-2.1-3.4-3.7-4.4-2.3-0.23-3.3 0.68-3.1 2.8 0.32 0.6 0.69 1.2 1.2 1.6 0.66 0.72 1.5 1.4 2 2.3" style="fill:#c26633"/><path d="m459 405c-0.12-2 4.5-5.5 6-6.3 2.5-1.4 4.6-5.6 7.5-4 3.6 1.9 0.26 6.6-1.4 9.2-2.7 4.2-6.5 3.8-11 2.9 0 0-1.1-0.58-1.2-1.7" style="fill:#c26633"/><path d="m363 377c-0.65-3.8 0.9-9.3 5.3-8 1.7 0.49 2.7 1.7 2.8 3.4 0.25 2.5-1.7 2.4-3.6 3.9-1.9 1.4-4.2 3.4-4.6 0.73" style="fill:#c26633"/><path d="m552 284c-0.64-3.8 0.91-9.3 5.4-8 1.7 0.48 2.7 1.7 2.8 3.4 0.25 2.4-1.7 2.4-3.6 3.9-1.9 1.4-4.2 3.4-4.6 0.72" style="fill:#c26633"/><path d="m468 322c-0.52-2.8 0.74-6.7 4.7-8.4 2.5-1.1 7.2-0.22 8.2 2.7 1.2 3.7-3.4 4.6-5.4 6.7-4 4.2-6.9 2.3-7.5-1" style="fill:#c26633"/><path d="m194 462c-0.5-2.9 0.75-6.7 4.7-8.4 2.5-1.1 7.2-0.23 8.2 2.7 1.2 3.7-3.4 4.6-5.4 6.7-4 4.3-6.9 2.3-7.5-1" style="fill:#c26633"/><path d="m435 352c0.23 0.77 0.86 1.3 1.7 1.4 0.92 0.1 1-0.07 1.5-0.81 0.66-1 1.4-1.8 2.7-1.7 0.8 0.02 1.6 0.23 2.4 0.18 0.68-0.043 2-0.18 1.7-1.1-0.18-0.52-1.6-0.77-2-0.96-1.5-0.67-3.3-2-5-1.6-1.9 0.42-3.5 2.8-2.9 4.7" style="fill:#c26633"/><path d="m512 412c0.23 0.76 0.86 1.3 1.7 1.4 0.93 0.11 1-0.07 1.5-0.82 0.66-1 1.4-1.8 2.7-1.7 0.79 0.016 1.6 0.23 2.4 0.18 0.68-0.035 2-0.18 1.7-1.1-0.17-0.51-1.6-0.77-2-0.96-1.5-0.68-3.3-2.1-5-1.6-1.9 0.43-3.5 2.8-2.9 4.7" style="fill:#c26633"/><path d="m503 351c0.64-0.53 0.86-1.1 0.78-1.7-1.3-0.65-2.8-0.95-4.2-0.65-0.44 0.11-1.3 0.3-1.5 0.82-0.16 0.59 0.67 1.2 1.1 1.5 1.1 0.79 2.7 0.94 3.8 0.016" style="fill:#c26633"/><path d="m595 376c0.64-0.54 0.86-1.1 0.78-1.7-1.3-0.64-2.8-0.94-4.2-0.64-0.43 0.098-1.3 0.28-1.5 0.81-0.16 0.6 0.67 1.2 1.1 1.5 1.1 0.79 2.7 0.93 3.8 0.02" style="fill:#c26633"/><path d="m411 608c0.64-0.52 0.86-1.1 0.78-1.7-1.3-0.64-2.8-0.94-4.2-0.64-0.44 0.11-1.3 0.3-1.5 0.82-0.15 0.59 0.68 1.2 1.1 1.5 1.1 0.8 2.7 0.94 3.8 0.02" style="fill:#c26633"/><path d="m680 552c-0.23 0.77-0.86 1.3-1.7 1.4-0.93 0.098-1-0.078-1.5-0.82-0.68-1-1.4-1.8-2.7-1.7-0.8 0.016-1.6 0.23-2.4 0.19-0.66-0.055-2-0.19-1.7-1.2 0.17-0.5 1.6-0.76 2-0.96 1.5-0.67 3.3-2 5-1.6 1.9 0.44 3.5 2.8 2.9 4.7" style="fill:#c26633"/><path d="m616 527c-2.2 0.18-3-3.2-0.73-3.8 0.93-0.24 2.4-0.26 3 0.59 0.82 1.1-0.11 2.2-1.1 2.8-0.43 0.24-0.84 0.37-1.2 0.39" style="fill:#c26633"/><path d="m620 587c0.64-3.8-0.9-9.3-5.4-8-1.7 0.49-2.7 1.7-2.8 3.4-0.23 2.5 1.7 2.4 3.6 3.9 1.9 1.5 4.2 3.4 4.6 0.72" style="fill:#c26633"/><path d="m578 530c0.52-2.9-0.75-6.7-4.7-8.4-2.5-1.1-7.2-0.23-8.2 2.7-1.2 3.7 3.4 4.6 5.4 6.7 4 4.2 6.9 2.3 7.5-1" style="fill:#c26633"/><path d="m459 537c0.52-2.9-0.74-6.7-4.7-8.4-2.5-1.1-7.2-0.22-8.2 2.7-1.2 3.7 3.4 4.6 5.4 6.7 4 4.2 6.9 2.3 7.5-1" style="fill:#c26633"/><path d="m548 582c-0.24 0.77-0.86 1.3-1.7 1.4-0.91 0.11-1-0.07-1.5-0.81-0.68-1-1.4-1.8-2.7-1.7-0.79 0.023-1.6 0.23-2.4 0.18-0.66-0.047-2-0.18-1.7-1.1 0.17-0.52 1.6-0.77 2-0.96 1.5-0.68 3.3-2 5-1.6 1.9 0.43 3.5 2.8 2.9 4.7" style="fill:#c26633"/><path d="m522 522c-0.23 0.76-0.85 1.3-1.6 1.4-0.94 0.11-1-0.07-1.5-0.81-0.67-1-1.4-1.8-2.7-1.7-0.79 0.016-1.6 0.23-2.4 0.17-0.67-0.035-2-0.17-1.7-1.1 0.18-0.52 1.6-0.76 2-0.95 1.5-0.68 3.3-2 5-1.6 1.9 0.43 3.5 2.8 2.9 4.7" style="fill:#c26633"/><path d="m480 650c-0.22 0.77-0.85 1.3-1.7 1.4-0.93 0.086-1-0.086-1.5-0.83-0.66-1-1.4-1.7-2.7-1.7-0.79 0.02-1.6 0.23-2.4 0.18-0.66-0.035-2-0.18-1.7-1.1 0.16-0.5 1.6-0.75 2-0.96 1.5-0.68 3.3-2 5-1.6 1.9 0.42 3.5 2.8 2.9 4.7" style="fill:#c26633"/><path d="m509 448c-1.6-1.8-4-1.6-5.5-3.5-1.2-1.6-2.4-2.6-4.3-3.3-1.9-0.65-3.9-2.2-2.6-4.6 1.8-3.3 5-3.1 7.3-0.46 1.3 1.5 2.5 2.8 4.1 4 1.9 1.5 3.1 3.1 4.4 5.2 0.94 1.5 2.5 3.1 3 4.8-0.49 2.3-1.7 3-3.6 2.1-0.47-0.47-0.88-1-1.2-1.6-0.48-0.84-0.89-1.9-1.5-2.6" style="fill:#c26633"/><path d="m489 589c-0.65-0.52-0.88-1.1-0.79-1.7 1.3-0.66 2.8-0.96 4.2-0.66 0.43 0.11 1.3 0.3 1.4 0.83 0.16 0.59-0.66 1.2-1.1 1.5-1.1 0.79-2.7 0.93-3.8 0.016" style="fill:#c26633"/><path d="m410 693c0.5-2.9-0.75-6.7-4.7-8.4-2.5-1.1-7.2-0.23-8.2 2.7-1.2 3.7 3.4 4.6 5.4 6.7 4 4.2 6.9 2.3 7.5-1" style="fill:#c26633"/><path d="m444 597c-0.66-0.54-0.87-1.1-0.77-1.7 1.3-0.65 2.8-0.95 4.2-0.65 0.45 0.094 1.3 0.29 1.5 0.82 0.16 0.59-0.66 1.2-1.1 1.5-1.1 0.79-2.7 0.93-3.8 0.027" style="fill:#c26633"/><path d="m361 310c0.52-2.9-0.74-6.7-4.7-8.4-2.5-1.1-7.2-0.23-8.2 2.7-1.2 3.7 3.4 4.6 5.4 6.7 3.9 4.2 6.9 2.3 7.5-1" style="fill:#c26633"/><path d="m281 400c0.51-2.9-0.74-6.7-4.7-8.4-2.5-1.1-7.2-0.23-8.2 2.7-1.2 3.7 3.4 4.6 5.4 6.7 4 4.3 6.9 2.3 7.5-1" style="fill:#c26633"/><path d="m331 362c-0.23 0.77-0.85 1.3-1.7 1.4-0.92 0.11-1-0.07-1.5-0.81-0.66-1-1.4-1.8-2.7-1.7-0.79 0.027-1.6 0.23-2.4 0.18-0.68-0.043-2-0.18-1.7-1.1 0.18-0.52 1.6-0.77 2-0.97 1.5-0.67 3.3-2 5-1.6 1.9 0.43 3.5 2.8 2.9 4.7" style="fill:#c26633"/><path d="m250 303c-0.64-3.8 0.91-9.3 5.4-8 1.7 0.48 2.7 1.7 2.8 3.4 0.25 2.5-1.7 2.4-3.6 3.9-1.9 1.4-4.2 3.4-4.6 0.71" style="fill:#c26633"/><path d="m205 344c-0.23 0.76-0.86 1.3-1.7 1.4-0.93 0.1-1-0.078-1.5-0.82-0.67-1-1.4-1.8-2.7-1.7-0.79 0.02-1.6 0.22-2.4 0.18-0.68-0.035-2-0.18-1.7-1.1 0.16-0.51 1.6-0.77 2-0.96 1.5-0.67 3.3-2 5-1.6 1.9 0.43 3.5 2.8 2.9 4.7" style="fill:#c26633"/><path d="m305 302c-0.22 0.77-0.85 1.3-1.7 1.4-0.91 0.1-1-0.07-1.5-0.81-0.66-1-1.4-1.8-2.7-1.7-0.79 0.02-1.6 0.22-2.4 0.18-0.66-0.035-2-0.18-1.7-1.1 0.18-0.52 1.6-0.77 2-0.96 1.5-0.67 3.3-2.1 5-1.6 1.9 0.42 3.5 2.8 2.9 4.7" style="fill:#c26633"/><path d="m169 499c-0.22 0.76-0.85 1.3-1.7 1.4-0.93 0.11-1-0.07-1.5-0.81-0.67-1-1.4-1.8-2.7-1.7-0.79 0.02-1.6 0.23-2.4 0.18-0.66-0.035-2-0.18-1.7-1.1 0.17-0.52 1.6-0.77 2-0.96 1.5-0.67 3.3-2 5-1.6 1.9 0.43 3.5 2.8 2.9 4.7" style="fill:#c26633"/><path d="m269 355c-0.64-0.52-0.86-1.1-0.77-1.7 1.3-0.65 2.8-0.94 4.1-0.64 0.45 0.098 1.3 0.28 1.5 0.82 0.16 0.59-0.67 1.2-1.1 1.5-1.1 0.8-2.7 0.93-3.8 0.027" style="fill:#c26633"/><path d="m211 422c-0.65-0.52-0.87-1.1-0.78-1.7 1.3-0.64 2.8-0.95 4.2-0.64 0.44 0.11 1.3 0.29 1.5 0.82 0.17 0.59-0.66 1.2-1.1 1.5-1.1 0.79-2.7 0.94-3.8 0.02" style="fill:#c26633"/><path d="m232 495c-0.64-0.51-0.86-1.1-0.78-1.7 1.3-0.64 2.8-0.95 4.2-0.64 0.44 0.094 1.3 0.28 1.5 0.83 0.16 0.58-0.68 1.2-1.1 1.5-1.1 0.79-2.7 0.93-3.8 0.016" style="fill:#c26633"/><path d="m550 343c-0.52-2.9 0.74-6.7 4.7-8.4 2.5-1.1 7.2-0.25 8.2 2.7 1.2 3.7-3.4 4.6-5.4 6.7-3.9 4.2-6.9 2.3-7.5-1" style="fill:#c26633"/><path d="m600 446c0.51-2.9-0.75-6.7-4.7-8.4-2.5-1.1-7.2-0.24-8.2 2.7-1.2 3.7 3.4 4.6 5.4 6.7 4 4.2 6.9 2.3 7.5-1" style="fill:#c26633"/><path d="m668 307c-0.64-3.8 0.9-9.3 5.4-8 1.7 0.48 2.7 1.7 2.8 3.4 0.25 2.5-1.7 2.4-3.6 3.9-1.9 1.4-4.2 3.4-4.6 0.72" style="fill:#c26633"/><path d="m565 419c-0.22 0.76-0.85 1.3-1.7 1.4-0.92 0.1-1-0.07-1.5-0.81-0.66-1-1.4-1.8-2.7-1.7-0.79 0.023-1.6 0.23-2.4 0.19-0.67-0.043-2-0.19-1.7-1.2 0.17-0.52 1.6-0.76 2-0.96 1.5-0.67 3.3-2 5-1.6 1.9 0.43 3.5 2.8 2.9 4.7" style="fill:#c26633"/><path d="m478 272c-0.11-2 4.5-5.5 6-6.3 2.5-1.4 4.6-5.6 7.5-4 3.6 1.9 0.27 6.6-1.4 9.2-2.8 4.2-6.6 3.8-11 2.9 0 0-1.1-0.58-1.2-1.7" style="fill:#c26633"/><path d="m517 219c0.23 0.77 0.85 1.3 1.7 1.4 0.93 0.11 1-0.07 1.5-0.81 0.66-1 1.4-1.8 2.7-1.7 0.79 0.027 1.6 0.24 2.4 0.18 0.68-0.043 2-0.18 1.7-1.1-0.17-0.52-1.6-0.76-2-0.96-1.5-0.68-3.2-2.1-5-1.6-1.9 0.43-3.5 2.8-2.9 4.7" style="fill:#c26633"/><path d="m569 242c0.22 0.77 0.85 1.3 1.7 1.4 0.92 0.11 1-0.07 1.5-0.81 0.66-1 1.4-1.8 2.7-1.7 0.79 0.016 1.6 0.23 2.4 0.18 0.67-0.043 2-0.18 1.7-1.1-0.17-0.52-1.6-0.77-2-0.97-1.5-0.67-3.3-2-5-1.6-1.9 0.42-3.5 2.8-2.9 4.7" style="fill:#c26633"/><path d="m373 279c-0.23 0.77-0.86 1.3-1.7 1.4-0.93 0.1-1-0.07-1.5-0.83-0.66-1-1.4-1.7-2.7-1.7-0.79 0.016-1.6 0.22-2.4 0.18-0.68-0.043-2-0.18-1.7-1.1 0.18-0.52 1.6-0.77 2-0.96 1.5-0.67 3.3-2 5-1.6 1.9 0.44 3.5 2.8 2.9 4.7" style="fill:#c26633"/><path d="m634 382c-0.64-0.52-0.86-1.1-0.78-1.7 1.3-0.65 2.8-0.96 4.2-0.65 0.43 0.11 1.3 0.3 1.5 0.82 0.16 0.59-0.68 1.2-1.1 1.5-1.1 0.79-2.7 0.95-3.8 0.016" style="fill:#c26633"/><path d="m681 233c-0.64-0.52-0.86-1.1-0.78-1.7 1.3-0.65 2.8-0.96 4.2-0.65 0.45 0.11 1.3 0.3 1.5 0.83 0.16 0.59-0.68 1.2-1.1 1.5-1.1 0.79-2.7 0.95-3.8 0.027" style="fill:#c26633"/><path d="m567 304c-0.65-0.52-0.86-1.1-0.77-1.7 1.3-0.66 2.8-0.95 4.1-0.64 0.45 0.094 1.3 0.29 1.5 0.83 0.16 0.58-0.67 1.2-1.1 1.5-1.1 0.79-2.7 0.93-3.8 0.023" style="fill:#c26633"/><path d="m650 470c-0.66-0.51-0.88-1.1-0.79-1.7 1.3-0.64 2.8-0.94 4.2-0.64 0.45 0.11 1.3 0.3 1.5 0.83 0.16 0.59-0.65 1.2-1.1 1.5-1.1 0.79-2.7 0.94-3.8 0.016" style="fill:#c26633"/><path d="m631 337c-0.66-0.52-0.87-1.1-0.79-1.7 1.3-0.64 2.8-0.94 4.2-0.64 0.45 0.094 1.3 0.29 1.5 0.82 0.16 0.59-0.67 1.2-1.1 1.5-1.1 0.78-2.7 0.93-3.8 0.02" style="fill:#c26633"/><path d="m510 302c-0.65-0.53-0.86-1.1-0.78-1.7 1.3-0.66 2.8-0.95 4.2-0.66 0.44 0.11 1.3 0.3 1.4 0.83 0.16 0.59-0.66 1.2-1.1 1.5-1.1 0.79-2.7 0.94-3.8 0.027" style="fill:#c26633"/><path d="m640 295c-0.66-0.53-0.86-1.1-0.79-1.7 1.3-0.65 2.8-0.95 4.2-0.65 0.45 0.11 1.3 0.3 1.5 0.82 0.16 0.6-0.66 1.2-1.1 1.5-1.1 0.8-2.7 0.95-3.8 0.027" style="fill:#c26633"/><path d="m378 94c1.3 2.1 0.25 4.3 1.6 6.4 1.1 1.6 1.7 3.1 1.8 5.1 0.043 2 0.87 4.4 3.6 3.9 3.7-0.66 4.5-3.8 2.7-6.7-0.98-1.7-1.9-3.3-2.6-5.1-0.84-2.3-2-3.9-3.5-5.8-1.1-1.4-2.1-3.4-3.6-4.3-2.3-0.24-3.4 0.68-3.1 2.8 0.3 0.6 0.69 1.2 1.2 1.6 0.65 0.72 1.5 1.4 2 2.3" style="fill:#c26633"/><path d="m342 178c0.65-0.53 0.86-1.1 0.78-1.7-1.3-0.65-2.8-0.96-4.2-0.64-0.45 0.098-1.3 0.3-1.5 0.83-0.16 0.59 0.67 1.2 1.1 1.5 1.1 0.79 2.7 0.93 3.8 0.027" style="fill:#c26633"/><path d="m302 229c0.66-0.53 0.88-1.1 0.79-1.7-1.3-0.66-2.8-0.95-4.2-0.66-0.45 0.098-1.3 0.29-1.5 0.83-0.16 0.59 0.68 1.2 1.1 1.5 1.1 0.77 2.7 0.92 3.8 0.016" style="fill:#c26633"/><path d="m389 191c-0.52-2.8 0.74-6.7 4.7-8.4 2.5-1.1 7.2-0.24 8.2 2.7 1.2 3.7-3.4 4.6-5.4 6.7-4 4.3-6.9 2.3-7.5-1" style="fill:#c26633"/><path d="m430 283c0.5-2.8-0.75-6.7-4.7-8.4-2.5-1.1-7.2-0.23-8.2 2.7-1.2 3.7 3.4 4.6 5.4 6.7 4 4.2 6.9 2.3 7.5-1" style="fill:#c26633"/><path d="m241 222c-0.58 0.55-0.77 1.3-0.51 2.1 0.32 0.88 0.52 0.88 1.4 1 1.2 0.16 2.2 0.51 2.7 1.7 0.33 0.73 0.48 1.5 0.88 2.2 0.34 0.59 1.1 1.7 1.8 1 0.38-0.39-0.016-1.7-0.027-2.2-0.059-1.6 0.41-3.8-0.72-5.2-1.2-1.5-4.1-1.9-5.5-0.56" style="fill:#c26633"/><path d="m360 231c-0.23 0.77-0.86 1.3-1.7 1.4-0.92 0.1-1-0.07-1.5-0.82-0.68-1-1.4-1.8-2.7-1.7-0.8 0.02-1.6 0.23-2.4 0.18-0.66-0.043-2-0.18-1.7-1.1 0.17-0.5 1.6-0.76 2-0.96 1.5-0.67 3.3-2.1 5-1.6 1.9 0.43 3.5 2.8 2.9 4.7" style="fill:#c26633"/><path d="m474 208c-0.64-0.52-0.87-1.1-0.77-1.7 1.3-0.66 2.8-0.95 4.2-0.65 0.43 0.11 1.3 0.29 1.4 0.83 0.17 0.59-0.66 1.2-1.1 1.5-1.1 0.8-2.7 0.95-3.8 0.035" style="fill:#c26633"/><path d="m407 130c-0.64-0.52-0.86-1.1-0.77-1.7 1.3-0.64 2.8-0.94 4.1-0.64 0.45 0.098 1.3 0.28 1.5 0.82 0.16 0.6-0.67 1.2-1.1 1.5-1.1 0.79-2.7 0.93-3.8 0.02" style="fill:#c26633"/><path d="m471 164c-0.65-0.52-0.87-1.1-0.78-1.7 1.3-0.65 2.8-0.94 4.2-0.65 0.45 0.11 1.3 0.29 1.5 0.82 0.16 0.59-0.68 1.2-1.1 1.5-1.1 0.79-2.7 0.94-3.8 0.016" style="fill:#c26633"/><path d="m421 221c-0.66-0.52-0.88-1.1-0.79-1.7 1.3-0.64 2.8-0.94 4.2-0.64 0.45 0.1 1.3 0.29 1.5 0.82 0.16 0.6-0.66 1.2-1.1 1.5-1.1 0.78-2.7 0.93-3.8 8e-3" style="fill:#c26633"/><path d="m424 171c-0.64-0.52-0.86-1.1-0.78-1.7 1.3-0.65 2.8-0.96 4.2-0.65 0.45 0.11 1.3 0.29 1.5 0.82 0.16 0.59-0.66 1.2-1.1 1.5-1.1 0.79-2.7 0.95-3.8 0.02" style="fill:#c26633"/><path d="m350 129c-0.66-0.54-0.86-1.1-0.78-1.7 1.3-0.66 2.8-0.95 4.2-0.64 0.45 0.094 1.3 0.29 1.5 0.82 0.16 0.6-0.66 1.2-1.1 1.5-1.1 0.79-2.7 0.94-3.8 0.035" style="fill:#c26633"/><path d="m205 405 3.6-1.7-75-155 172-12c1.2-0.09 2.3-0.73 3-1.7l97-143 97 143c0.69 1 1.8 1.7 3 1.7l172 12-75 155c-0.54 1.1-0.54 2.4 0 3.5l75 155-172 12c-1.2 0.086-2.3 0.73-3 1.7l-97 143-97-143c-0.69-1-1.8-1.7-3-1.7l-172-12 75-155c0.54-1.1 0.54-2.4 0-3.5l-3.6 1.7-3.6-1.7-78 160c-0.57 1.2-0.52 2.6 0.13 3.7 0.65 1.1 1.8 1.9 3.2 2l176 13 99 146c0.73 1.1 2 1.7 3.3 1.7 1.3 0 2.5-0.66 3.3-1.7l99-146 176-13c1.3-0.094 2.5-0.84 3.2-2 0.66-1.1 0.71-2.5 0.13-3.7l-77-159 77-159c0.57-1.2 0.52-2.6-0.13-3.7-0.66-1.1-1.8-1.9-3.2-2l-176-13-99-146c-0.74-1.1-2-1.8-3.3-1.8-1.3 0-2.6 0.66-3.3 1.8l-99 146-176 13c-1.3 0.098-2.5 0.84-3.2 2-0.66 1.1-0.71 2.5-0.13 3.7l78 160 3.6-1.7-3.6-1.7 3.6 1.7" style="fill:#fff"/><path d="m309 538c-0.25 0.12-0.43 0.2-0.79 0.36-0.36 0.16-0.71 0.32-1.1 0.45-2.4 1-3.8 4.2-3.8 6.6 0 3.7 2.4 6.1 5.6 7.4 4.5 1.8 9-0.28 12-4.1 4.7-7.1-5.3-15-11-11" style="fill:#fff"/><path d="m317 514c-0.3 0.15-0.57 0.3-0.87 0.47-3.4 1.9-3.4 7.3 0 9.1 0.3 0.16 0.57 0.32 0.87 0.48 3.9 2.1 8.8-0.52 8.8-5.1 0-4.5-4.9-7.1-8.8-5" style="fill:#fff"/><path d="m318 481c-3.9 0-7.2 3.3-7.2 7.2 0 3.9 3.3 7.2 7.2 7.2 3.9 0 7.2-3.3 7.2-7.2 0-3.9-3.3-7.2-7.2-7.2" style="fill:#fff"/><path d="m303 446c-5.6 0-8.4 7-4.5 11l0.56 0.58c2.1 2.2 5.8 2.2 7.9 0l0.56-0.58c3.9-4 1.1-11-4.5-11" style="fill:#fff"/><path d="m272 433c-8.8 0-8.8 14 0 14 8.8 0 8.8-14 0-14" style="fill:#fff"/><path d="m237 425c-8.4 0-8.4 13 0 13 8.4 0 8.4-13 0-13" style="fill:#fff"/><path d="m222 373c-3.6-3.6-9.6-3.6-13 0-3.2 3.2-4 9.8-0.17 13 3.4 2.7 7.5 3.9 11 1.6 5.2-3 6.1-10 1.9-15" style="fill:#fff"/><path d="m242 361c-4.4 0-8.2 3.7-8.2 8.1 0 4.4 3.7 8.2 8.2 8.2 4.5 0 8.2-3.7 8.2-8.2 0-4.4-3.7-8.1-8.2-8.1" style="fill:#fff"/><path d="m270 345c-3.9 0-7.1 3.2-7.1 7.1 0 3.9 3.2 7.1 7.1 7.1 3.9 0 7.1-3.3 7.1-7.1 0-3.9-3.3-7.1-7.1-7.1" style="fill:#fff"/><path d="m294 298-0.26-0.41c-2.9-4.6-9.1-4.4-12 0l-0.28 0.41c-3.1 4.7 1 11 6.3 11 5.4 0 9.3-6.2 6.3-11" style="fill:#fff"/><path d="m296 271-0.18-0.2c-1.5-1.6-4.5-2.1-6.3-0.82l-0.22 0.14c-3.7 2.7-3.6 8.8 1.3 10 5.5 1.5 9.1-5.2 5.4-9.2" style="fill:#fff"/><path d="m291 254c-6.5 0-6.5 10 0 10 6.5 0 6.5-10 0-10" style="fill:#fff"/><path d="m339 230-0.27-0.21c-3-2.1-7.3 0.11-8.2 3.3-1 3.7 2.8 8.5 6.8 6.8l0.33-0.14c4.4-1.8 5.3-6.9 1.3-9.8" style="fill:#fff"/><path d="m357 238c-7.5 0-7.5 12 0 12 7.5 0 7.5-12 0-12" style="fill:#fff"/><path d="m377 245c-6.6 0-6.6 10 0 10 6.6 0 6.6-10 0-10" style="fill:#fff"/><path d="m429 246c-3.3-0.9-6 0.59-8.4 2.6-2.4 1.9-2.4 6.7 0 8.7 2 1.6 3.9 2.8 6.5 2.8 3.8 0 7.4-3.3 7.4-7.2 0-3.2-2.5-6.1-5.5-6.9" style="fill:#fff"/><path d="m451 240c-0.66-0.38-1.4-0.66-2.1-0.96-4.1-1.7-8.5 2.5-8.5 6.5 0 4 4.4 8.2 8.5 6.5 0.73-0.3 1.5-0.56 2.1-0.94 4.2-2.4 4.2-8.7 0-11" style="fill:#fff"/><path d="m462 229c-1.7 0.39-2.7 1.3-3.7 2.7-2.6 3.8 1.6 7.8 5.4 7 2.2-0.43 3.3-2 4-4 1.2-3.6-2.5-6.5-5.8-5.8" style="fill:#fff"/><path d="m510 260c-3.1-1.8-7.2 0.49-7.2 4.1 0.02 1.2 0.39 2.3 1 3.3 1.7 2.7 5.3 2.6 7.1 0l-0.98 0.84c2.9-2 3.3-6.3 0-8.2" style="fill:#fff"/><path d="m511 282c-2.9 1.7-3.6 5.2-2.2 7.9l0.094 0.43c2.1 6.4 11 6.6 13 0 2-6.8-5.1-12-11-8.3" style="fill:#fff"/><path d="m520 308c-7.5 0-7.5 12 0 12 7.5 0 7.5-12 0-12" style="fill:#fff"/><path d="m545 339c-9.7 0-9.7 15 0 15 9.8 0 9.8-15 0-15" style="fill:#fff"/><path d="m571 356-0.58-0.35c-2.3-1.4-4.8-0.76-6.8 0.87-0.79 0.68-1.6 1.5-1.7 2.6-0.24 2.2 0.18 3.7 1.7 5.3 1.8 1.8 4.6 2.1 6.8 0.87l0.58-0.31c3.4-1.9 3.3-7 0-8.9" style="fill:#fff"/><path d="m586 364c-2.3 0-4 1.2-5 3-1.5 1.7-1.5 4 0 5.8 1.1 1.8 2.7 3 5 3 3.2 0 5.9-2.7 5.9-5.9 0-3.2-2.7-5.9-5.9-5.9" style="fill:#fff"/><path d="m591 413c-9.9 0-9.9 15 0 15 9.9 0 9.9-15 0-15" style="fill:#fff"/><path d="m569 423-0.51-0.14c-5.7-1.6-11 2.9-11 8.7 0 5.8 5.8 10 11 8.7l0.51-0.14c8.5-2.4 8.5-15 0-17" style="fill:#fff"/><path d="m542 434-0.52-0.16c-5.3-1.8-11 2.9-11 8.2 0 5.3 5.5 9.9 11 8.2l0.52-0.18c7.9-2.6 7.9-13 0-16" style="fill:#fff"/><path d="m515 546c-4 0-7.3 3.3-7.3 7.3 0 4 3.3 7.3 7.3 7.3 4 0 7.3-3.3 7.3-7.3 0-4-3.3-7.3-7.3-7.3" style="fill:#fff"/><path d="m514 522c-5.2-1.4-11 4.7-7.3 9.5l0.31 0.46c2.1 3.1 6.8 4.3 9.5 1.2l0.33-0.38c3.2-3.6 2.1-9.5-2.9-11" style="fill:#fff"/><path d="m520 499c-2.2-3.7-8-3.9-10 0-1.3 2.4-1.2 4.5-0.043 6.8 1.3 2.8 4.7 3 7.1 1.7 3.4-1.1 5-5.4 3.2-8.5" style="fill:#fff"/><path d="m350 565v-0.043l-0.066-0.18 0.043 0.15 0.023 0.07" style="fill:#fff"/><path d="m351 566-0.2-0.5-0.2-0.46-8e-3 0.035-0.016-0.11c-0.65-1.5-0.67-1.6-0.043-0.15-0.53-2.3-2-4.3-4.6-4.7-5-0.71-7.7 1.5-9.5 5.9-1.9 4.6 2.9 9.6 7.3 9.6 4.5 0 9.1-4.9 7.3-9.6" style="fill:#fff"/><path d="m369 549-0.49 0.29c-2.4 1.4-3 5.8 0 7.1l0.49 0.19c3 1.3 6.6-0.12 6.6-3.8 0-3.3-3.8-5.5-6.6-3.8" style="fill:#fff"/><path d="m394 536-0.38-0.23c-2.6-1.7-6.5-0.051-7.2 2.9-0.34 1.4-0.27 2.4 0.3 3.7 0.64 0.59 1.3 1.2 1.9 1.8 2.9 1.3 6.2 0.33 7.2-2.9l0.11-0.41c0.55-1.9-0.37-3.8-2-4.9" style="fill:#fff"/><path d="m452 526c-8.5 0-8.5 13 0 13 8.5 0 8.5-13 0-13" style="fill:#fff"/><path d="m472 541c-1.5-1.5-3.8-2.1-5.7-1.5-2.7 0.73-4.1 3-4.3 5.7-0.35 4.3 3.2 7.3 7.3 7.5 2.7 0.11 5.3-2 6-4.6 0.86-3.1-0.7-5.7-3.2-7.1" style="fill:#fff"/><path d="m490 556c-2.3-1.3-4.8-1.9-7.3-1.1-4.7 1.5-5.5 6.2-3.1 9.6l-0.28-0.27c-1.2-1.9 0.22 0.45 0.59 1.2 0.63 1.2 1.8 2.1 3 2.8 7.9 4.7 15-7.6 7.1-12" style="fill:#fff"/><path d="m352 330c-18-11-17-33-12-51 7.9 2.7 16 5.3 24 7.5 10 2.8 12 5.8 14 16 2.3 17 8 33 10 49-8.9-9.6-25-15-36-22zm42-10c-2.6-10-3.7-21-7.4-31-5.8-16-34-15-47-21-2.9-1.3-6.9-0.48-7.7 3.1-3.3 14-6.6 44 2 57 9.3 14 35 33 52 34 2.7 0.2 5.1-2.5 5.1-5.1 3.6 1.8 9.4-0.35 9.1-5.2-0.61-11-3.5-21-6.2-31" style="fill:#fff"/><path d="m368 308c-0.36-0.62-0.86-1.1-1.3-1.5 0.11-3.3-1.4-6.4-4.9-7.4-3.9-1.1-7.3 1.3-8.7 4.9-0.82 2.3-1.7 4.2-1 6.7 0.39 1.4 1.2 2.5 2.2 3.6l0.48 0.5 0.098 0.11c0.086 0.14 0.22 0.33 0.39 0.63 2 2.9 6.5 5 9.8 2.6l0.49-0.38c3.1-2.3 4.7-6.1 2.5-9.7" style="fill:#fff"/><path d="m365 476c9.2-3.7 18-7.7 27-12-0.25 12-0.71 25 3 37-13 3.4-25 8.5-37 16-0.59-13 5.9-27 6.6-40zm43 26c-7.2-14-5.3-32-4.7-48 0.17-4.6-4.8-6.6-8.5-4.9-13 6.1-25 12-35 21-2.4 0.1-4.8 1.7-4.7 4.7 0 0.25-0.035 0.51-0.035 0.77-0.11 0.42-0.15 0.86-0.051 1.3-0.37 17-8.9 32-7.1 49 0.44 4 5.1 8.4 9.2 5.3 15-11 30-18 48-21 3.9-0.82 5.2-5.5 3.5-8.7" style="fill:#fff"/><path d="m481 504c-7.3-2.4-14-4.8-22-5.5-0.47-6.9-1.6-14-2.9-21-0.87-4.4-1.5-9.1-2.7-14 5 2.1 11 3.2 16 4.7 7.2 2.1 15 3.8 22 5.2-5.6 8-7.3 20-10 30zm16-34c-8.7-2.8-17-5.4-26-8.5-7.5-2.7-14-6.9-22-7.9-0.57-0.07-1.1-0.035-1.5 0.078-0.7 0-1.4 0.39-1.7 1.2l-0.086 0.23c-0.21 0.38-0.35 0.79-0.44 1.2-1.7 5.4-0.98 11-0.043 16 1.7 10 3.6 20 3.9 31 0.078 2.8 2.3 5.2 5.1 5.1 10-0.098 19 4.4 29 7.7 2.8 0.98 6-1.1 6.7-3.8 1.8-6.6 2.5-13 3.9-20 1.4-6.6 4.3-13 5.6-19 0.33-1.6-0.44-3-2-3.5" style="fill:#fff"/><path d="m449 412c-2.6-1.5-5.2-3-7.8-4.4 3.8-2.7 7.5-5.5 11-8.3-0.21 4.3-1.6 8.7-3.4 13zm-16 19c-0.21-3.8-0.39-7.5-0.71-11 2.9 1.7 5.7 3.3 8.5 5-2.4 2.7-5 4.8-7.8 6.3zm-26-0.3c3.9-2.5 7.8-5.1 12-7.7 0.23 3.6 0.35 7.2 0.48 11-3.9-0.23-8-1.2-12-3.1zm-21-38c1.5 0.85 2.9 1.7 4.4 2.5 8.1 4.6 16 9.3 24 14-6.5 4.5-13 8.7-20 13-7.4-7.6-11-18-8.8-29zm13-19c0.92-0.54 1.9-0.91 2.8-1.3 1.1 0.59 2.5 0.86 4 0.56 2.2-0.46 4.4-1.1 6.5-1.8 0.77 4.1 1.5 8.1 2.1 12 0.52 3.2 0.89 6.3 1.3 9.5-7.9-4.4-16-8.9-24-13 2-2.3 4.3-4.2 6.9-5.8zm29-4.4c8.2 1.6 15 8.7 20 16-5.8 4.4-12 8.8-18 13l-0.07-0.56c-1.3-9.5-3-19-4.8-28 0.82 0.055 1.6 0.12 2.5 0.3zm74 14c12-8.3 23-2.2 34 3.7-13 7.2-24 18-31 32-10-5.1-21-13-32-15 9.5-7.1 19-14 29-21zm-148 35c-15 5-24 1.3-36-8.1-5.6-4.4-12-8.3-19-9.1 7.5-5.1 15-12 21-15 14-7.5 22 6.3 31 16 5.1 5.3 12 7.3 18 11-5.2 1.8-10 3.5-16 5.2zm295-172c-11 9.4-23 18-35 26 2.1-3.6 3.4-7.4 2.9-12-0.49-4.3-4.8-6.3-8.2-3.4-5.9 5.1-12 11-17 17-3.1 3.2-2.5 9.1 0.63 12-7.4 4.4-15 8.8-22 13 2.7-4.7 4.7-9.7 4.8-15 0.035-1.8-2.2-2.7-3.4-1.4-8 8.1-16 17-21 27-0.42 0.79-0.6 1.6-0.68 2.4-2.8 1.7-5.6 3.4-8.4 5.2-29 18-56 40-83 61-6.4-12-22-24-36-26-6.1-29-13-59-15-88-0.73-9-0.73-18-0.37-27 14-3.3 22-20 32-29 6.2-5.2-2.8-14-8.9-8.9-7.8 6.9-14 20-23 26 0.79-12 1.9-23 2.6-35 0.47-0.3 0.95-0.6 1.4-0.94 7.1-4.8 14-9.5 21-15 5.8-4.4 2.6-16-5.5-13-5 2.1-8.5 5.2-13 8.3-0.95 0.69-2 1.3-3 1.9 0.13-13-0.75-26-3.8-39-0.63-2.7-4.6-2.6-5.3 0-3.2 12-5.3 25-6.6 39-0.48-0.37-0.98-0.7-1.4-1.1-3.9-3.1-6.4-7.5-11-9.7-4.4-2.1-10 2.3-7.1 7.1 3.3 5.3 6.2 11 11 15 2.3 1.7 4.5 4.3 7 6.4-0.57 11-0.73 23-0.69 34-8.7-5.4-19-16-23-19-1.6-1.1-3.1 1.2-1.9 2.5 6.2 7.1 15 21 25 27 0.098 6.8 0.22 14 0.37 20 0.74 34 9.2 67 16 100-3.5 1.9-6.5 5-8.8 9.6-3.8 0.99-7.7 3-10 4.6-2.6 1.6-4.8 3.6-6.7 6-37-21-72-45-111-61-6.1-2.5-12-5.1-18-7.7-2.1-4.9-3.5-10-4.7-15-1.8-8.1-1.5-18-6.4-25-2.1-2.9-7.9-3.3-8.6 1.1-1.7 9.8 1.8 21 3.7 31 0.043 0.29 0.13 0.56 0.18 0.84-8.4-4.3-17-9-25-14-0.66-3.4-1.2-6.8-1.4-10-0.48-6.8 1.8-15 0.078-21-0.35-1.2-1.9-1.6-2.8-0.73-4.6 4.3-4 14-2.7 20 0.74 3.3 1.7 6.5 2.8 9.7-9.8-6.8-21-14-33-13-5.8 0.32-7.1 8.4-1.4 10 14 4.2 25 12 36 20-2.7-0.19-5.2-0.094-6.4-0.043-8.1 0.3-18-0.3-25 3.9-2.4 1.4-1.1 4.5 1.3 4.8 3.6 0.35 34 3 38-3.2 7.6 5.2 16 9.2 24 13-17 1.2-41 3.6-38 19 0.17 1 1.3 1.4 2.2 1.3 8-1.2 15-5.4 24-6.4 9.2-1.2 18-1.1 28-2.4 2.3-0.33 3.6-1.8 4.3-3.7 40 17 77 40 115 63-0.5 1.8-0.88 3.6-1.1 5.4-0.63 5.6 0.11 11 1.9 17-6.8-6.8-16-11-22-19-5.7-6.5-15-20-25-19-10 1.1-19 6.9-27 13-7.3 5-20 11-24 19-1 2.1 0.18 4.8 2.7 4.8 2-0.012 4-0.46 6.1-1.2 7.6 6.3 17 9.4 25 16 6.1 4.9 11 8.9 18 11 16 4.5 37-6.6 49-16 0.23-0.19 0.39-0.46 0.57-0.73 1.6 3.3 3.6 6.5 5.9 9.5-29 18-60 32-92 45-0.61 0.25-1.2 0.5-1.9 0.76-0.89-0.39-1.8-0.71-2.8-0.81-14-1.4-27-2.6-41-4.4-13-1.7-28-5-41-1-2.9 0.92-3.7 5-0.86 6.6 12 6.7 27 7.4 40 9.6 5.1 0.85 10 1.6 15 2.2-6.3 2.5-13 5.1-19 7.9-0.68-0.28-1.4-0.48-2.1-0.53-20-1.3-39-6-59-1.3-2 0.49-2 3.5 0 4 13 3.6 27 5.8 41 7.5-17 8.9-32 20-44 34-1.6 1.9 0.38 4.3 2.6 3.4 15-6.4 29-13 43-20-4.3 9.3-8.3 19-11 29-2.1 8.7 11 12 13 3.7 3.9-14 9.7-27 15-41 11-5.1 21-10 32-15-3.9 11-5.9 23-1 33 1.5 3 6.2 2.8 7.7 0 3.8-7 3.2-8.4 4.4-17 1.3-8.9 4.6-17 8.7-25 6.2-2.7 12-5.4 19-8 29-12 57-26 83-42 6.8 5.3 15 8.8 23 9.3 0.52 36-2.6 73-5.9 109-8.3 6-15 14-21 22-8 9.4-19 17-26 26-1.3 1.6-1.2 4.7 1.4 5.2 16 2.9 31-14 44-29-0.79 8.7-1.5 17-2.2 26-0.19 0.23-0.38 0.43-0.54 0.69-4.4 7.4-8.2 15-13 22-4.6 7.1-11 12-16 20-1.6 2.7 1 6.1 4 5.3 9.5-2.7 17-10 23-19-0.48 9.6-0.81 19-0.91 29-0.1 10 16 10 16 0 0.043-13 0.49-25 1.2-38 4.9 5.1 9.5 10 15 15 4.5 3.8 12 0.29 10-6-3.3-12-15-18-24-25 0.61-9.2 1.3-18 2.1-27 6.5 10 15 20 24 19 3.2-0.36 5.1-2.7 4.5-5.9-1.2-6.7-4.9-8.6-9.7-13-7.1-6.9-13-15-17-24 3.2-38 6.2-76 5.1-113 7.5-2.5 14-7.4 18-14 19 11 37 22 56 33 11 6.6 22 13 32 20 0.18 0.3 0.34 0.63 0.56 0.9 6.7 8.3 12 20 19 27 2.2 2.1 5.4 1.5 7-0.91 1.7-2.5 1.9-5.5 1.3-8.7 8.7 5.6 17 11 26 17 1.4 4.5 2.9 8.9 4.7 13 2.9 7 5 15 9 21 0.72 1.2 2.5 0.96 2.9-0.39 2.7-8.7-0.87-18-4.1-26 5.6 3.5 11 7 17 10 6.7 4 14-5.4 8.3-11-4.3-4-8.8-7.9-13-12 6.7-0.64 13-1.9 20-4.2 8-2.8 4.9-15-3.6-13-10 2.8-21 4.6-31 5.8-7.9-5.6-16-11-24-16 6.7 0.36 15 0.53 20-3.4 3.8-2.8 4.7-11-1.5-12-8-1.2-16 0.47-25 0.13-6.6-0.29-13-0.58-20-0.32-10-5.9-20-12-30-17-21-13-43-25-65-38 1.1-3.1 1.8-6.4 2.4-9.6 1.4 1.3 3.2 2.1 5.1 1.6 12 8.3 26 17 40 22 2.9 1 5.3-1.2 6.3-3.6 7-17 20-29 37-35 5.1-1.7 5-8.4 0-10-12-4.4-26-18-40-14-17 5-32 19-47 28-0.031-1.7-0.13-3.3-0.29-4.9 31-23 61-47 93-68 2.8-1.8 5.7-3.6 8.6-5.3 11 1.1 22 3.6 33 6.8 7.6 2.2 11-9.7 3.2-12-6.8-1.9-14-3.5-21-4.7 11-6.8 22-13 33-20 8.2 1.5 16 4.3 24 5.7 6.9 1.2 12-8.5 5.1-12-4.1-2-8.4-3.4-13-4.6 9.9-6.7 20-14 29-22 6.4-5.4-2.8-15-9.2-9.2" style="fill:#fff"/><path d="m504 393c-8.6 0-8.6 13 0 13 8.6 0 8.6-13 0-13" style="fill:#fff"/><path d="m456 301c-10 0-10 16 0 16 10 0 10-16 0-16" style="fill:#fff"/><path d="m483 322c-3.9 7.4-15 11-23 15-1.9 0.87-19 9.5-21 7.1-6-7.8-3.4-20-4.4-29-0.72-6.8-8e-3 -16-2.8-23 17-0.2 36-0.47 51-8.9 0.86 7.1 2.5 14 2.9 21 0.25 5.5 0.062 13-2.6 18zm7.4-47c8e-3 -3.2-3.5-5.1-6.2-3.6-17 9.5-36 10-55 6.9-5.8-1-8.7 3.8-8.1 7.9-1.2 1.5-1.7 3.5-0.6 5.6 7.7 15 1.9 36 8.2 52 7 18 23 7 36 1.9 14-5.4 29-13 30-29 0.61-13-4.2-31-4.2-42" style="fill:#fff"/><path d="m376 483c-8.5 0-8.5 13 0 13 8.5 0 8.5-13 0-13" style="fill:#fff"/><path d="m339 396c-1.3-0.35-2.8-0.32-4 0.051l0.043-0.051c-0.61 0.18-1.2 0.43-1.7 0.72l-0.043 0.02c-0.57 0.33-1.1 0.73-1.6 1.2-0.53 0.52-0.95 1.1-1.3 1.7l-0.25 0.57c-0.14 0.34-0.32 0.64-0.42 1l0.15-0.14c-0.14 0.48-0.23 0.96-0.27 1.4-0.2 0.39-0.18 1.3 0.12 2.7 0.37 1.3 1 2.4 1.9 3.3 0.21 0.21 0.48 0.31 0.7 0.5 0.26 0.21 0.54 0.4 0.83 0.58 0.31 0.2 0.61 0.35 0.95 0.48 0.43 0.18 0.88 0.3 1.4 0.41 0.3 0.062 0.6 0.11 0.92 0.14l0.56 0.098-0.07-0.11c1.3 8e-3 2.7-0.24 3.9-0.93 5.6-3.3 4.5-12-1.8-14" style="fill:#fff"/><path d="m473 475c-10 0-10 16 0 16 10 0 10-16 0-16" style="fill:#fff"/></g></svg>
