<svg width="555pt" height="706pt" version="1.2" viewBox="0 0 555 706" xmlns="http://www.w3.org/2000/svg"><defs><clipPath id="a"><path d="m126 52h557v706h-557z"/></clipPath></defs><g transform="translate(-127 -52)"><g clip-path="url(#a)"><path d="m662 245c-15-15-35-24-55-24-9.5 0-19 1.8-28 5.4-16 6.6-33 13-52 21 9.2-19 14-39 14-60 0-75-61-135-135-135-75 0-135 61-135 135 0 21 4.9 42 14 60-19-7.7-37-15-53-21-8.9-3.6-18-5.4-28-5.4-21 0-41 8.8-56 24-14 15-22 35-20 55 2.7 49 43 64 70 75 11 4.1 22 8.2 33 12 22 7.8 42 15 55 22 11 5.8 18 25 10 41-3.8 7.5-8.4 15-13 23-2.2 3.6-4.4 7.3-6.5 11l-8.9 15c-16 28-33 57-49 85l-33 57c-12 20-14 44-5.8 66 7.9 22 25 39 46 47 9 3.3 18 4.9 27 4.9 51 0 79-55 97-92 3.5-7.1 6.8-14 9.9-19 13-23 26-47 39-70l6.3-11 6.2 11c13 23 26 47 39 71 3.1 5.6 6.4 12 10 19 18 37 46 92 97 92h0.016c8.7 0 18-1.7 27-4.9 22-7.8 38-25 46-47 8-22 5.9-46-5.8-66l-33-57c-16-28-32-56-49-84l-9.5-16c-2.1-3.7-4.3-7.4-6.5-11-4.4-7.4-9-15-13-22-7.6-16-0.8-35 9.9-41 12-6.5 33-14 55-22 11-3.9 22-7.9 33-12 27-10 68-26 70-75 1.1-21-6.1-40-20-55" style="fill:#e67a3f"/></g><path d="m211 735c-0.1-1.9 4.2-5.1 5.5-5.9 2.4-1.3 4.3-5.2 7-3.7 3.3 1.7 0.25 6.1-1.3 8.5-2.5 3.9-6.1 3.5-10 2.7 0 0-1.1-0.53-1.1-1.6" style="fill:#cf6e35"/><path d="m237 708c-0.59-3.6 0.84-8.6 5-7.4 1.5 0.46 2.5 1.6 2.6 3.2 0.23 2.3-1.6 2.3-3.3 3.6-1.8 1.3-3.9 3.1-4.2 0.67" style="fill:#cf6e35"/><path d="m241 666c-0.47-2.6 0.68-6.2 4.3-7.8 2.3-1 6.7-0.21 7.6 2.5 1.1 3.4-3.1 4.2-5 6.2-3.7 3.9-6.4 2.1-6.9-0.93" style="fill:#cf6e35"/><path d="m186 665c0.21 0.71 0.8 1.2 1.5 1.3 0.86 0.094 0.93-0.074 1.4-0.77 0.62-0.94 1.3-1.6 2.5-1.6 0.73 0.023 1.5 0.21 2.2 0.16 0.62-0.047 1.9-0.17 1.6-1-0.16-0.48-1.4-0.71-1.9-0.9-1.4-0.62-3-1.9-4.6-1.5-1.8 0.41-3.2 2.6-2.7 4.4" style="fill:#cf6e35"/><path d="m261 610c1.1 1.9 0.22 4 1.5 5.9 1 1.5 1.6 2.8 1.7 4.7 0.047 1.8 0.79 4.1 3.3 3.6 3.4-0.62 4.2-3.5 2.5-6.2-0.92-1.5-1.8-3.1-2.4-4.8-0.77-2.1-1.8-3.7-3.2-5.4-1.1-1.3-2-3.1-3.4-4-2.1-0.24-3.1 0.62-2.9 2.6 0.29 0.56 0.64 1.1 1.1 1.5 0.6 0.66 1.4 1.3 1.8 2.1" style="fill:#cf6e35"/><path d="m365 414c1.1 1.9 0.21 4 1.5 5.9 1 1.5 1.6 2.8 1.6 4.7 0.051 1.8 0.8 4.1 3.3 3.6 3.4-0.61 4.2-3.5 2.5-6.2-0.92-1.6-1.8-3.1-2.4-4.7-0.78-2.1-1.8-3.7-3.2-5.4-1.1-1.3-2-3.1-3.4-4-2.1-0.23-3.1 0.62-2.9 2.6 0.29 0.57 0.63 1.1 1.1 1.5 0.6 0.66 1.4 1.3 1.9 2.1" style="fill:#cf6e35"/><path d="m273 693c0.6-0.49 0.79-1 0.71-1.6-1.2-0.59-2.5-0.88-3.8-0.59-0.41 0.094-1.2 0.27-1.4 0.76-0.14 0.55 0.62 1.1 0.99 1.4 1 0.74 2.5 0.87 3.5 0.023" style="fill:#cf6e35"/><path d="m295 731c2.1 0.15 2.8-3 0.68-3.5-0.86-0.21-2.2-0.25-2.8 0.55-0.77 0.99 0.094 2.1 0.99 2.6 0.39 0.23 0.78 0.34 1.1 0.38" style="fill:#cf6e35"/><path d="m306 624c-0.11-1.9 4.2-5.1 5.5-5.9 2.4-1.3 4.3-5.2 7-3.7 3.3 1.7 0.25 6.1-1.3 8.5-2.5 3.9-6.1 3.5-10 2.7 0 0-1.1-0.52-1.1-1.6" style="fill:#cf6e35"/><path d="m218 598c-0.59-3.6 0.83-8.6 5-7.4 1.5 0.45 2.5 1.6 2.6 3.2 0.22 2.3-1.6 2.3-3.3 3.6-1.8 1.3-3.8 3.1-4.2 0.68" style="fill:#cf6e35"/><path d="m315 547c-0.47-2.6 0.68-6.2 4.3-7.8 2.3-1 6.7-0.21 7.6 2.5 1.1 3.4-3.1 4.2-5 6.2-3.7 3.9-6.4 2.1-6.9-0.93" style="fill:#cf6e35"/><path d="m297 460c-0.47-2.6 0.69-6.2 4.3-7.8 2.3-1 6.7-0.21 7.6 2.5 1.1 3.4-3.1 4.2-5 6.2-3.7 3.9-6.4 2.1-6.9-0.92" style="fill:#cf6e35"/><path d="m375 526c-0.46-2.6 0.69-6.2 4.3-7.8 2.3-1 6.7-0.21 7.6 2.5 1.1 3.4-3.1 4.2-5 6.2-3.7 3.9-6.4 2.1-6.9-0.93" style="fill:#cf6e35"/><path d="m284 575c0.21 0.71 0.8 1.2 1.5 1.3 0.86 0.11 0.94-0.062 1.4-0.75 0.63-0.94 1.3-1.6 2.5-1.6 0.74 0.016 1.5 0.21 2.2 0.17 0.62-0.047 1.9-0.18 1.6-1.1-0.17-0.48-1.5-0.71-1.9-0.88-1.4-0.64-3-1.9-4.6-1.5-1.8 0.41-3.2 2.6-2.7 4.4" style="fill:#cf6e35"/><path d="m345 457c0.21 0.7 0.79 1.2 1.5 1.3 0.86 0.098 0.95-0.07 1.4-0.75 0.63-0.95 1.3-1.6 2.5-1.6 0.72 0.016 1.5 0.21 2.2 0.16 0.62-0.031 1.9-0.16 1.6-1-0.16-0.48-1.4-0.71-1.9-0.89-1.4-0.63-3-1.9-4.6-1.5-1.8 0.4-3.2 2.6-2.7 4.4" style="fill:#cf6e35"/><path d="m317 512c0.2 0.71 0.77 1.2 1.5 1.3 0.85 0.11 0.94-0.062 1.4-0.76 0.62-0.94 1.3-1.6 2.5-1.6 0.73 0.023 1.5 0.21 2.2 0.17 0.61-0.031 1.8-0.17 1.5-1-0.15-0.48-1.4-0.71-1.9-0.89-1.4-0.62-3-1.9-4.6-1.5-1.8 0.41-3.2 2.6-2.7 4.4" style="fill:#cf6e35"/><path d="m356 631c0.21 0.7 0.79 1.2 1.5 1.3 0.86 0.086 0.95-0.074 1.4-0.75 0.61-0.95 1.3-1.6 2.5-1.6 0.73 0.016 1.5 0.21 2.2 0.17 0.62-0.043 1.9-0.17 1.6-1.1-0.17-0.48-1.5-0.71-1.9-0.89-1.4-0.62-3-1.9-4.6-1.5-1.8 0.4-3.2 2.6-2.7 4.4" style="fill:#cf6e35"/><path d="m268 515c1.4-1.7 3.7-1.5 5.1-3.2 1.1-1.4 2.2-2.4 3.9-3.1 1.7-0.61 3.6-2.1 2.4-4.3-1.7-3-4.6-2.9-6.7-0.43-1.2 1.4-2.3 2.6-3.8 3.8-1.8 1.4-2.9 2.9-4.1 4.8-0.87 1.4-2.3 2.8-2.7 4.5 0.45 2.1 1.6 2.7 3.3 1.9 0.44-0.44 0.81-0.93 1.1-1.5 0.45-0.79 0.83-1.7 1.4-2.4" style="fill:#cf6e35"/><path d="m347 574c0.6-0.49 0.8-1 0.71-1.6-1.2-0.61-2.6-0.88-3.8-0.61-0.42 0.11-1.2 0.28-1.4 0.77-0.14 0.55 0.61 1.1 0.98 1.4 1 0.73 2.5 0.87 3.5 0.016" style="fill:#cf6e35"/><path d="m500 314c1.2 1.9 0.22 4 1.5 5.9 1 1.5 1.6 2.8 1.6 4.7 0.047 1.8 0.8 4.1 3.3 3.6 3.4-0.62 4.2-3.5 2.5-6.2-0.92-1.5-1.8-3.1-2.4-4.7-0.77-2.1-1.8-3.7-3.2-5.4-1.1-1.3-1.9-3.1-3.4-4-2.1-0.23-3.1 0.61-2.9 2.6 0.29 0.56 0.63 1.1 1.1 1.5 0.61 0.66 1.4 1.3 1.9 2.1" style="fill:#cf6e35"/><path d="m433 395c-0.1-1.9 4.2-5.1 5.5-5.9 2.4-1.3 4.2-5.2 7-3.7 3.3 1.7 0.25 6.1-1.3 8.5-2.5 3.9-6.1 3.5-10 2.7 0 0-1.1-0.52-1.1-1.6" style="fill:#cf6e35"/><path d="m345 369c-0.61-3.6 0.83-8.6 5-7.4 1.5 0.45 2.5 1.6 2.6 3.2 0.21 2.3-1.6 2.3-3.3 3.6-1.8 1.3-3.8 3.1-4.2 0.67" style="fill:#cf6e35"/><path d="m606 231c-0.58-3.6 0.85-8.6 5-7.4 1.5 0.44 2.5 1.6 2.6 3.2 0.23 2.3-1.6 2.2-3.3 3.6-1.8 1.3-3.8 3.1-4.2 0.68" style="fill:#cf6e35"/><path d="m442 318c-0.48-2.6 0.69-6.2 4.3-7.8 2.3-1 6.7-0.21 7.6 2.5 1.1 3.4-3.1 4.2-5 6.2-3.7 3.9-6.4 2.1-6.9-0.92" style="fill:#cf6e35"/><path d="m180 313c-0.46-2.6 0.7-6.2 4.3-7.8 2.3-1 6.7-0.21 7.6 2.5 1.1 3.4-3.1 4.2-5 6.2-3.7 3.9-6.4 2.1-6.9-0.93" style="fill:#cf6e35"/><path d="m411 346c0.21 0.7 0.79 1.2 1.5 1.3 0.85 0.09 0.94-0.078 1.4-0.76 0.61-0.94 1.3-1.6 2.5-1.6 0.73 0.016 1.5 0.22 2.2 0.17 0.62-0.039 1.9-0.17 1.6-1.1-0.15-0.48-1.4-0.72-1.9-0.89-1.4-0.63-3-1.9-4.6-1.5-1.8 0.41-3.2 2.6-2.7 4.4" style="fill:#cf6e35"/><path d="m483 402c0.2 0.71 0.79 1.2 1.5 1.3 0.86 0.1 0.94-0.062 1.4-0.76 0.62-0.94 1.3-1.6 2.5-1.6 0.73 0.031 1.5 0.21 2.2 0.17 0.62-0.039 1.9-0.18 1.5-1.1-0.15-0.48-1.4-0.71-1.8-0.89-1.4-0.62-3-1.9-4.6-1.5-1.8 0.41-3.2 2.6-2.7 4.4" style="fill:#cf6e35"/><path d="m474 345c0.6-0.48 0.8-1 0.71-1.6-1.2-0.59-2.6-0.88-3.8-0.59-0.39 0.094-1.2 0.27-1.3 0.76-0.14 0.55 0.62 1.1 0.98 1.4 1 0.73 2.5 0.86 3.5 0.016" style="fill:#cf6e35"/><path d="m614 267c0.61-0.49 0.8-1 0.72-1.6-1.2-0.61-2.6-0.88-3.8-0.61-0.41 0.098-1.2 0.28-1.3 0.76-0.14 0.55 0.62 1.1 0.98 1.4 1 0.73 2.5 0.87 3.5 0.016" style="fill:#cf6e35"/><path d="m389 582c0.6-0.48 0.8-1 0.72-1.6-1.2-0.6-2.6-0.88-3.9-0.59-0.41 0.094-1.2 0.26-1.4 0.76-0.14 0.55 0.63 1.1 0.98 1.4 1 0.73 2.5 0.88 3.5 0.031" style="fill:#cf6e35"/><path d="m330 686c2 0.16 2.7-3 0.67-3.5-0.85-0.2-2.2-0.24-2.8 0.57-0.76 0.98 0.11 2.1 1 2.6 0.4 0.22 0.77 0.34 1.1 0.37" style="fill:#cf6e35"/><path d="m597 726c0.12-1.8-4.2-5.1-5.5-5.9-2.4-1.3-4.3-5.2-7-3.7-3.3 1.7-0.24 6.1 1.3 8.5 2.5 3.9 6.1 3.5 10 2.7 0 0 1.1-0.54 1.1-1.6" style="fill:#cf6e35"/><path d="m571 699c0.59-3.6-0.84-8.6-5-7.4-1.5 0.44-2.5 1.6-2.6 3.2-0.24 2.3 1.6 2.3 3.3 3.6 1.8 1.4 3.8 3.1 4.2 0.68" style="fill:#cf6e35"/><path d="m567 657c0.47-2.6-0.69-6.2-4.3-7.8-2.3-1-6.7-0.21-7.6 2.5-1.1 3.4 3.1 4.2 5 6.2 3.7 3.9 6.4 2.1 6.9-0.93" style="fill:#cf6e35"/><path d="m622 656c-0.2 0.71-0.79 1.2-1.5 1.3-0.85 0.086-0.94-0.074-1.4-0.76-0.61-0.94-1.3-1.6-2.5-1.6-0.74 0.023-1.5 0.22-2.2 0.18-0.62-0.043-1.9-0.18-1.6-1.1 0.16-0.47 1.5-0.71 1.9-0.9 1.4-0.62 3-1.9 4.6-1.5 1.8 0.41 3.2 2.6 2.7 4.4" style="fill:#cf6e35"/><path d="m508 627c0.64 2.1 2.8 2.8 3.4 5 0.45 1.8 1 3.1 2.4 4.4 1.3 1.2 2.5 3.4 0.47 4.9-2.7 2.1-5.4 0.72-6.3-2.3-0.51-1.7-1.1-3.3-1.9-4.9-1.1-2-1.5-3.8-1.8-6-0.23-1.6-1-3.5-0.7-5.2 1.3-1.7 2.5-1.9 3.8-0.4 0.22 0.59 0.36 1.2 0.4 1.8 0.09 0.9 0.047 1.9 0.3 2.8" style="fill:#cf6e35"/><path d="m535 684c-0.6-0.49-0.8-1-0.71-1.6 1.2-0.59 2.6-0.88 3.8-0.59 0.42 0.094 1.2 0.26 1.4 0.76 0.14 0.55-0.62 1.1-0.98 1.4-1 0.72-2.5 0.86-3.5 0.016" style="fill:#cf6e35"/><path d="m513 722c-2.1 0.16-2.8-3-0.68-3.5 0.86-0.21 2.2-0.24 2.8 0.55 0.77 1-0.094 2.1-0.99 2.6-0.4 0.22-0.78 0.34-1.1 0.36" style="fill:#cf6e35"/><path d="m556 615c0.11-1.9-4.2-5.1-5.5-5.9-2.4-1.3-4.3-5.2-7-3.7-3.3 1.8-0.25 6.1 1.3 8.5 2.5 3.9 6.1 3.5 10 2.7 0 0 1.1-0.53 1.1-1.6" style="fill:#cf6e35"/><path d="m586 585c0.59-3.6-0.83-8.6-5-7.4-1.5 0.45-2.5 1.6-2.6 3.2-0.23 2.3 1.6 2.3 3.4 3.6 1.8 1.3 3.8 3.1 4.2 0.67" style="fill:#cf6e35"/><path d="m543 511c0.47-2.6-0.69-6.2-4.3-7.8-2.3-1-6.7-0.21-7.6 2.5-1.1 3.4 3.1 4.2 5 6.2 3.7 3.9 6.4 2.1 6.9-0.93" style="fill:#cf6e35"/><path d="m433 517c0.48-2.6-0.69-6.2-4.3-7.8-2.3-1-6.7-0.21-7.6 2.5-1.1 3.4 3.1 4.2 5 6.2 3.7 3.9 6.4 2.1 6.9-0.92" style="fill:#cf6e35"/><path d="m515 559c-0.2 0.71-0.78 1.2-1.5 1.3-0.85 0.094-0.94-0.074-1.4-0.77-0.61-0.94-1.3-1.6-2.5-1.6-0.73 0.023-1.5 0.21-2.2 0.18-0.62-0.055-1.9-0.18-1.6-1.1 0.16-0.47 1.5-0.71 1.9-0.89 1.4-0.63 3-1.9 4.6-1.5 1.8 0.39 3.2 2.6 2.7 4.4" style="fill:#cf6e35"/><path d="m491 503c-0.21 0.7-0.8 1.2-1.5 1.3-0.86 0.098-0.93-0.07-1.4-0.76-0.63-0.94-1.3-1.6-2.5-1.6-0.72 0.02-1.5 0.22-2.2 0.17-0.61-0.039-1.9-0.17-1.6-1.1 0.15-0.47 1.4-0.71 1.8-0.89 1.4-0.62 3-1.9 4.6-1.5 1.8 0.41 3.2 2.6 2.7 4.4" style="fill:#cf6e35"/><path d="m452 621c-0.21 0.71-0.79 1.2-1.5 1.3-0.85 0.1-0.93-0.062-1.4-0.76-0.61-0.94-1.3-1.6-2.5-1.6-0.73 0.016-1.5 0.21-2.2 0.16-0.63-0.043-1.9-0.17-1.6-1.1 0.16-0.47 1.5-0.71 1.9-0.88 1.4-0.62 3-1.9 4.6-1.5 1.8 0.41 3.2 2.6 2.7 4.4" style="fill:#cf6e35"/><path d="m479 435c-1.4-1.7-3.7-1.5-5.1-3.2-1.1-1.4-2.2-2.4-3.9-3.1-1.7-0.61-3.6-2-2.4-4.3 1.7-3 4.6-2.9 6.7-0.44 1.2 1.4 2.3 2.6 3.8 3.8 1.8 1.4 2.9 2.9 4.1 4.8 0.88 1.4 2.4 2.8 2.7 4.5-0.44 2.1-1.5 2.7-3.3 1.9-0.44-0.44-0.82-0.94-1.1-1.5-0.45-0.79-0.81-1.7-1.4-2.4" style="fill:#cf6e35"/><path d="m461 565c-0.59-0.48-0.79-1-0.71-1.6 1.2-0.6 2.6-0.88 3.8-0.6 0.41 0.098 1.2 0.27 1.3 0.77 0.15 0.55-0.62 1.1-0.97 1.4-1 0.72-2.5 0.86-3.5 0.023" style="fill:#cf6e35"/><path d="m419 573c-0.61-0.49-0.81-1-0.72-1.6 1.2-0.6 2.6-0.88 3.8-0.6 0.42 0.1 1.2 0.28 1.4 0.76 0.15 0.55-0.62 1.2-0.98 1.4-1 0.73-2.5 0.88-3.5 0.023" style="fill:#cf6e35"/><path d="m342 307c0.48-2.6-0.68-6.2-4.3-7.8-2.3-1-6.7-0.21-7.6 2.5-1.1 3.4 3.1 4.2 5 6.2 3.7 3.9 6.4 2.1 6.9-0.93" style="fill:#cf6e35"/><path d="m232 314c0.48-2.6-0.69-6.2-4.3-7.8-2.3-1-6.7-0.23-7.6 2.5-1.1 3.4 3.1 4.2 5 6.2 3.7 3.9 6.4 2.1 6.9-0.93" style="fill:#cf6e35"/><path d="m315 355c-0.21 0.71-0.79 1.2-1.5 1.3-0.86 0.094-0.94-0.074-1.4-0.77-0.61-0.94-1.3-1.6-2.5-1.6-0.73 8e-3 -1.5 0.22-2.2 0.17-0.62-0.055-1.9-0.17-1.6-1.1 0.17-0.47 1.5-0.71 1.9-0.89 1.4-0.62 3-1.9 4.6-1.5 1.8 0.4 3.2 2.6 2.7 4.4" style="fill:#cf6e35"/><path d="m228 240c-0.6-3.6 0.84-8.6 5-7.4 1.5 0.44 2.5 1.6 2.6 3.2 0.23 2.3-1.6 2.3-3.3 3.6-1.8 1.3-3.8 3.1-4.2 0.67" style="fill:#cf6e35"/><path d="m181 231c-0.2 0.71-0.79 1.2-1.5 1.3-0.85 0.1-0.94-0.066-1.4-0.75-0.62-0.95-1.3-1.6-2.5-1.6-0.74 0.016-1.5 0.21-2.2 0.17-0.62-0.043-1.9-0.17-1.6-1.1 0.16-0.48 1.5-0.71 1.9-0.89 1.4-0.62 3-1.9 4.6-1.5 1.8 0.39 3.2 2.6 2.7 4.4" style="fill:#cf6e35"/><path d="m291 300c-0.21 0.71-0.79 1.2-1.5 1.3-0.86 0.094-0.95-0.074-1.4-0.76-0.62-0.94-1.3-1.6-2.5-1.6-0.74 0.016-1.5 0.21-2.2 0.16-0.62-0.039-1.9-0.16-1.6-1.1 0.15-0.48 1.5-0.71 1.9-0.9 1.4-0.63 3-1.9 4.6-1.5 1.8 0.39 3.2 2.6 2.7 4.4" style="fill:#cf6e35"/><path d="m157 347c-0.19 0.71-0.78 1.2-1.5 1.3-0.86 0.094-0.94-0.066-1.4-0.76-0.63-0.94-1.3-1.6-2.5-1.6-0.73 0.016-1.5 0.21-2.2 0.16-0.61-0.039-1.9-0.16-1.6-1.1 0.14-0.48 1.4-0.71 1.8-0.88 1.4-0.64 3-1.9 4.6-1.5 1.8 0.39 3.2 2.6 2.7 4.4" style="fill:#cf6e35"/><path d="m258 348c-0.59-0.48-0.8-1-0.71-1.6 1.2-0.59 2.6-0.87 3.8-0.59 0.42 0.094 1.2 0.27 1.4 0.76 0.14 0.55-0.61 1.1-0.99 1.4-1 0.73-2.5 0.88-3.5 0.016" style="fill:#cf6e35"/><path d="m196 276c-0.59-0.49-0.79-1-0.71-1.6 1.2-0.61 2.6-0.88 3.8-0.61 0.41 0.1 1.2 0.28 1.4 0.76 0.14 0.55-0.63 1.2-0.98 1.4-1 0.75-2.5 0.88-3.5 0.031" style="fill:#cf6e35"/><path d="m218 370c-0.59-0.48-0.8-1-0.71-1.6 1.2-0.61 2.6-0.88 3.8-0.61 0.42 0.1 1.2 0.28 1.4 0.76 0.14 0.55-0.62 1.2-0.98 1.4-1 0.74-2.5 0.87-3.5 0.016" style="fill:#cf6e35"/><path d="m144 275c-0.6-0.48-0.79-1-0.72-1.6 1.2-0.59 2.6-0.87 3.8-0.59 0.41 0.1 1.2 0.27 1.3 0.76 0.15 0.55-0.62 1.1-0.97 1.4-1 0.74-2.5 0.88-3.5 0.023" style="fill:#cf6e35"/><path d="m517 338c-0.47-2.6 0.7-6.2 4.3-7.8 2.3-1 6.7-0.21 7.6 2.5 1.1 3.4-3.1 4.2-5 6.2-3.7 3.9-6.4 2.1-6.9-0.94" style="fill:#cf6e35"/><path d="m569 375c0.46-2.6-0.71-6.2-4.3-7.8-2.3-1-6.7-0.21-7.6 2.5-1.1 3.4 3.1 4.2 5 6.2 3.7 3.9 6.4 2.1 6.9-0.93" style="fill:#cf6e35"/><path d="m566 265c-0.58-3.6 0.85-8.6 5-7.4 1.5 0.45 2.5 1.6 2.6 3.2 0.23 2.3-1.6 2.3-3.3 3.6-1.8 1.3-3.9 3.1-4.3 0.67" style="fill:#cf6e35"/><path d="m514 369c-0.21 0.71-0.79 1.2-1.5 1.3-0.85 0.1-0.94-0.066-1.4-0.77-0.62-0.94-1.3-1.6-2.5-1.6-0.74 0.016-1.5 0.21-2.2 0.16-0.61-0.047-1.9-0.17-1.6-1.1 0.16-0.48 1.5-0.71 1.8-0.9 1.4-0.62 3-1.9 4.6-1.5 1.8 0.4 3.2 2.6 2.7 4.4" style="fill:#cf6e35"/><path d="m451 272c-0.098-1.9 4.2-5.1 5.5-5.9 2.3-1.3 4.2-5.2 7-3.7 3.3 1.7 0.25 6.1-1.3 8.5-2.5 3.9-6.1 3.5-10 2.7 0 0-1.1-0.53-1.1-1.6" style="fill:#cf6e35"/><path d="m481 193c0.2 0.71 0.79 1.2 1.5 1.3 0.86 0.098 0.94-0.062 1.4-0.75 0.62-0.95 1.3-1.6 2.5-1.6 0.74 0.023 1.5 0.21 2.2 0.17 0.62-0.039 1.9-0.17 1.6-1.1-0.16-0.48-1.5-0.71-1.9-0.9-1.4-0.62-3-1.9-4.6-1.5-1.8 0.4-3.2 2.6-2.7 4.4" style="fill:#cf6e35"/><path d="m513 259c0.21 0.71 0.79 1.2 1.5 1.3 0.85 0.094 0.95-0.074 1.4-0.76 0.61-0.94 1.3-1.6 2.5-1.6 0.75 0.016 1.5 0.21 2.2 0.17 0.63-0.055 1.9-0.17 1.6-1.1-0.16-0.47-1.5-0.7-1.9-0.89-1.4-0.63-3-1.9-4.6-1.5-1.8 0.39-3.2 2.6-2.7 4.4" style="fill:#cf6e35"/><path d="m354 278c-0.21 0.71-0.79 1.2-1.5 1.3-0.85 0.094-0.93-0.074-1.4-0.76-0.62-0.94-1.3-1.6-2.5-1.6-0.73 0.023-1.5 0.22-2.2 0.16-0.61-0.031-1.8-0.16-1.6-1.1 0.16-0.48 1.4-0.71 1.9-0.89 1.4-0.62 3-1.9 4.6-1.5 1.8 0.41 3.2 2.6 2.7 4.4" style="fill:#cf6e35"/><path d="m595 374c-0.59-0.48-0.8-1-0.71-1.6 1.2-0.59 2.6-0.87 3.8-0.59 0.41 0.094 1.2 0.27 1.4 0.76 0.15 0.55-0.61 1.1-0.98 1.4-1 0.73-2.5 0.87-3.5 0.023" style="fill:#cf6e35"/><path d="m627 312c-0.61-0.49-0.8-1-0.72-1.6 1.2-0.61 2.6-0.88 3.8-0.61 0.4 0.098 1.2 0.27 1.3 0.77 0.15 0.55-0.62 1.1-0.98 1.4-1 0.72-2.5 0.86-3.5 0.016" style="fill:#cf6e35"/><path d="m533 301c-0.61-0.49-0.81-1-0.72-1.6 1.2-0.61 2.6-0.88 3.8-0.61 0.41 0.11 1.2 0.28 1.4 0.76 0.15 0.55-0.62 1.1-0.98 1.4-1 0.74-2.5 0.88-3.5 0.023" style="fill:#cf6e35"/><path d="m592 332c-0.59-0.48-0.79-1-0.71-1.6 1.2-0.61 2.6-0.88 3.8-0.61 0.41 0.1 1.2 0.28 1.4 0.76 0.14 0.55-0.63 1.1-0.98 1.4-1 0.73-2.5 0.88-3.5 0.016" style="fill:#cf6e35"/><path d="m481 300c-0.61-0.48-0.8-1-0.71-1.6 1.2-0.6 2.5-0.88 3.8-0.6 0.41 0.094 1.2 0.26 1.3 0.76 0.14 0.55-0.61 1.1-0.98 1.4-1 0.73-2.5 0.86-3.5 0.016" style="fill:#cf6e35"/><path d="m600 293c-0.61-0.48-0.81-1-0.73-1.6 1.2-0.59 2.6-0.87 3.9-0.59 0.41 0.078 1.2 0.25 1.3 0.75 0.14 0.55-0.62 1.1-0.98 1.4-1 0.72-2.5 0.86-3.5 0.016" style="fill:#cf6e35"/><path d="m358 108c1.2 1.9 0.23 4 1.5 5.9 1 1.5 1.6 2.8 1.7 4.7 0.039 1.8 0.8 4.1 3.3 3.6 3.4-0.61 4.2-3.5 2.5-6.2-0.92-1.5-1.8-3.1-2.4-4.7-0.78-2.1-1.8-3.7-3.2-5.4-1.1-1.3-2-3.1-3.4-4-2.1-0.23-3.1 0.61-2.9 2.6 0.28 0.56 0.64 1.1 1.1 1.5 0.61 0.67 1.4 1.3 1.8 2.1" style="fill:#cf6e35"/><path d="m326 185c0.6-0.5 0.81-1 0.72-1.6-1.2-0.6-2.6-0.88-3.8-0.6-0.4 0.11-1.2 0.28-1.3 0.76-0.15 0.55 0.62 1.1 0.98 1.4 1 0.74 2.5 0.88 3.5 0.027" style="fill:#cf6e35"/><path d="m288 232c0.61-0.48 0.81-1 0.73-1.6-1.2-0.61-2.6-0.88-3.9-0.61-0.42 0.11-1.2 0.27-1.3 0.77-0.14 0.55 0.62 1.1 0.98 1.4 1 0.74 2.5 0.87 3.5 0.023" style="fill:#cf6e35"/><path d="m369 197c-0.46-2.6 0.69-6.2 4.3-7.8 2.3-1 6.7-0.21 7.6 2.5 1.1 3.4-3.1 4.2-5 6.2-3.7 3.9-6.4 2.1-6.9-0.93" style="fill:#cf6e35"/><path d="m406 282c0.47-2.6-0.7-6.2-4.3-7.8-2.3-1-6.7-0.21-7.6 2.5-1.1 3.4 3.1 4.2 5 6.2 3.7 3.9 6.4 2.1 6.9-0.92" style="fill:#cf6e35"/><path d="m418 105c-0.58-3.5 0.85-8.6 5-7.4 1.5 0.44 2.5 1.6 2.6 3.2 0.21 2.3-1.6 2.3-3.4 3.6-1.8 1.3-3.8 3.1-4.2 0.67" style="fill:#cf6e35"/><path d="m476 88c-0.58-3.5 0.85-8.6 5-7.4 1.6 0.45 2.5 1.6 2.6 3.2 0.22 2.3-1.6 2.3-3.3 3.6-1.8 1.3-3.8 3.1-4.2 0.67" style="fill:#cf6e35"/><path d="m342 234c-0.21 0.71-0.78 1.2-1.5 1.3-0.86 0.086-0.94-0.078-1.4-0.76-0.62-0.94-1.3-1.6-2.5-1.6-0.73 8e-3 -1.5 0.22-2.2 0.17-0.62-0.039-1.9-0.17-1.6-1.1 0.15-0.48 1.4-0.71 1.9-0.89 1.4-0.62 3-1.9 4.6-1.5 1.8 0.41 3.2 2.6 2.7 4.4" style="fill:#cf6e35"/><path d="m303 112c-0.094-1.8 4.2-5.1 5.5-5.9 2.4-1.3 4.3-5.2 7-3.7 3.3 1.8 0.25 6.1-1.3 8.5-2.5 3.9-6.1 3.5-10 2.7 0 0-1.1-0.54-1.1-1.6" style="fill:#cf6e35"/><path d="m447 213c-0.59-0.48-0.8-1-0.72-1.6 1.2-0.59 2.6-0.88 3.8-0.59 0.42 0.1 1.2 0.27 1.4 0.76 0.14 0.55-0.63 1.1-0.99 1.4-1 0.74-2.5 0.87-3.5 0.016" style="fill:#cf6e35"/><path d="m479 151c-0.59-0.48-0.79-1-0.71-1.6 1.2-0.59 2.6-0.87 3.8-0.59 0.41 0.094 1.2 0.28 1.3 0.76 0.15 0.55-0.61 1.1-0.98 1.4-1 0.72-2.5 0.87-3.5 8e-3" style="fill:#cf6e35"/><path d="m385 141c-0.61-0.48-0.8-1-0.72-1.6 1.2-0.6 2.6-0.87 3.8-0.6 0.42 0.1 1.2 0.28 1.4 0.77 0.14 0.55-0.63 1.1-0.98 1.4-1 0.73-2.5 0.88-3.5 0.016" style="fill:#cf6e35"/><path d="m379 63c-0.61-0.48-0.81-1-0.73-1.6 1.2-0.6 2.6-0.88 3.9-0.59 0.41 0.094 1.2 0.27 1.3 0.76 0.14 0.55-0.62 1.1-0.98 1.4-1 0.75-2.5 0.88-3.5 0.031" style="fill:#cf6e35"/><path d="m444 172c-0.61-0.48-0.8-1-0.72-1.6 1.2-0.6 2.6-0.88 3.8-0.59 0.41 0.086 1.2 0.26 1.3 0.75 0.15 0.55-0.62 1.1-0.98 1.4-1 0.74-2.5 0.86-3.5 0.023" style="fill:#cf6e35"/><path d="m398 225c-0.6-0.49-0.8-1-0.71-1.6 1.2-0.61 2.6-0.88 3.8-0.61 0.4 0.11 1.2 0.28 1.3 0.77 0.15 0.55-0.61 1.1-0.98 1.4-1 0.74-2.5 0.88-3.5 0.023" style="fill:#cf6e35"/><path d="m401 179c-0.61-0.49-0.8-1-0.71-1.6 1.2-0.6 2.6-0.87 3.8-0.6 0.41 0.094 1.2 0.27 1.4 0.76 0.14 0.55-0.62 1.2-0.98 1.4-1 0.73-2.5 0.87-3.5 0.023" style="fill:#cf6e35"/><path d="m333 139c-0.61-0.48-0.79-1-0.71-1.6 1.2-0.59 2.6-0.86 3.8-0.59 0.42 0.1 1.2 0.28 1.4 0.76 0.14 0.55-0.62 1.1-0.98 1.4-1 0.73-2.5 0.88-3.5 0.023" style="fill:#cf6e35"/><path d="m452 133c-0.61-0.48-0.82-1-0.74-1.6 1.2-0.59 2.6-0.88 3.9-0.59 0.41 0.1 1.2 0.27 1.3 0.76 0.14 0.55-0.62 1.1-0.98 1.4-1 0.74-2.5 0.88-3.5 0.023" style="fill:#cf6e35"/><path d="m478 677c-2.1 0.16-2.7-3-0.68-3.5 0.86-0.21 2.2-0.25 2.8 0.55 0.75 1-0.098 2.1-1 2.6-0.4 0.23-0.79 0.35-1.1 0.37" style="fill:#cf6e35"/><path d="m491 483c-15-4.1-24-12-38 0.15-12 11-20 3.8-32 4.1-12 0.34-27 12-39 5.5-4.8-2.6-7.7-2.4-13-2.1-12 0.52-22 1.7-33-3.8-11-5.4-17-8.1-22 5.7-1.6 4.1 3.9 5.9 6.5 3.8 17-14 24 16 39 7.5 8.7-4.6 17-10 27-2.4 4.3 3.6 9 3.2 14 2.7 10-1.1 19-7.5 31-3.8 3.8 1.3 9 3 13 1.2 7.5-3.5 8.3-8.3 14-15 6.6-8.1 24 4.3 32 6.7 6.5 2.1 9.5-8.5 2.8-10" style="fill:#fff"/><path d="m586 642c-7.8-2-15-3-20 3.6-6.7 8.5-23 3.3-30 14-2.2 3.4-5 15-11 12-3.3-1.5-6.6-1.7-10-0.55-7.1 2.3-6.3 9.9-2.7 15 1.5 1.9 4.2 0.89 5.4-0.69 3.9-5.4 6-2.3 12-4 4.3-1.2 7.3-6.3 8.6-10 3.4-11 21-4.4 29-9.6 8.1-5.2 2.6-18 17-14 3.2 0.83 4.6-4.1 1.4-5" style="fill:#fff"/><path d="m292 660c-5.7-1.1-13 6.3-18-0.38-1.9-2.6-3.3-5-6.2-6.7-6.6-3.9-17-3.3-22-8.3-7-6-20-4.5-25 3.5-0.25 0.45-0.25 1.1 0.18 1.5 1.8 1.5 3.4 3.2 5.9 3.3 8.7 0.33 12 2.6 19 6.9 7.1 4.5 15-9.1 20 1.9 2.7 5.9 7.1 11 14 11 4.8 0 9.3-5 13 0.61 2.7 3.7 2.9 5 7.3 6.5 2.7 0.94 5-1.5 5.2-4 0.56-7.9-7-15-14-16" style="fill:#fff"/><path d="m609 333c-5.8-2.5-5-3.1-7.3-8.5-3.6-8.3-0.95-9.9-7.8-17-5.9-5.9-3.9-14-7-21-0.45-1-1.6-1.5-2.5-1.9-7.7-3.2-7.6-12-6.1-19 0.25-1-0.64-1.9-1.7-1.7-7.4 1.6-9.5 7.7-7.2 15 1.2 3.5 3.7 7.1 6.5 9.5 3.8 3.3 2.3 14 4.3 19 3.2 7.8 15 13 15 21 0.15 7.9 1.9 13 11 13 4-0.18 6.6-6.4 2.3-8.3" style="fill:#fff"/><path d="m230 264c-9 9.5-10 18-14 31-1.9 7.2-17 10-15 20 0.32 1.2-1.6 7.8-3.2 11-2.4 3-5.3 5.3-8.7 6.9-2.2 1.2-1.9 4.9 0.71 5.4 7.3 1.5 12-1.6 15-8 0.78-1.4 3.9-15 5.1-16 6.6-7.2 14-9.2 15-20 0.88-5-1.8-9.6 2.9-14 4-3.6 5.7-6.4 7.6-11 1.6-4.2-4.4-7.3-7.3-4.2" style="fill:#fff"/><path d="m514 390 1.7 3.1c9.7-5.2 24-11 40-17 16-5.8 33-12 50-18 14-5.2 28-11 39-20 5.6-4.5 10-9.8 14-16 3.6-6.5 5.8-14 6.3-23 0.062-1.1 0.09-2.1 0.09-3.2 8e-3 -16-7-31-18-41-11-10-25-17-41-17-7 0-14 1.3-21 4.1-35 14-70 28-105 42-3.9 1.5-7.7 3.2-11 5l1.5 3.2 2.6-2.4-0.023-0.016c-1-1.1-2.7-1.5-4.1-0.85-0.45 0.2-0.91 0.29-1.3 0.29-0.43 0-0.76-0.11-0.93-0.22l-0.29-0.32-0.055-0.29c0.016-0.37 0.15-1 1.3-1.8 0.82-0.54 1.4-1.4 1.6-2.4 0.18-0.98-0.062-2-0.66-2.8l-0.031-0.039-2.8 2.1 1.9 3c33-21 55-58 55-100 0-65-53-118-118-118-65 0.0078-118 53-118 118 0 42 22 79 55 100l1.9-3-2.1-2.9-0.031 0.031c-0.94 0.7-1.5 1.8-1.4 3 0.039 1.2 0.65 2.2 1.6 2.9 1.2 0.78 1.3 1.5 1.3 1.8l-0.055 0.31 8e-3 -0.016c-0.086 0.2-0.17 0.3-0.33 0.41-0.17 0.11-0.47 0.23-0.99 0.23-0.52 8e-3 -1.2-0.12-2.2-0.54-0.81-0.38-1.8-0.43-2.6-0.14l-0.031 8e-3 1.1 3.4 1.5-3.2c-3.6-1.7-7.3-3.4-11-4.8-35-14-70-28-105-42-7-2.8-14-4.1-21-4.1-15 8e-3 -30 6.3-41 17-11 10-18 25-18 41 0 1.1 0.031 2.1 0.098 3.2v-8e-3c0.49 9 2.7 17 6.3 23 5.3 9.8 14 17 23 22 9.3 5.6 20 9.7 30 14 16 6.2 34 12 50 18 16 5.8 30 11 40 17 6.4 3.4 12 9.3 16 17 4 7.3 6.4 16 6.4 25 0 7.4-1.6 15-5.1 22l3.2 1.6-3.2-1.6c-5.9 12-13 23-20 34-19 33-39 67-58 100-11 19-22 38-33 57-5.6 9.6-8.2 20-8.2 30 0 12 3.7 24 10 34 6.8 10 17 18 29 23 7.3 2.6 14 3.9 21 3.9 12 0.016 23-4.4 33-11 14-11 25-27 35-44 9.4-17 17-34 24-47 18-32 36-64 54-96 3.6-6.4 7.1-13 10-19l-3.2-1.6-3.2 1.6c3.3 6.4 6.8 13 10 19 18 32 36 64 54 96 4.8 8.5 9.8 19 15 30 8.4 17 18 34 30 48 6.1 6.9 13 13 20 17 7.6 4.2 16 6.7 25 6.7 6.6 0 13-1.2 21-3.9 12-4.5 22-13 29-23 6.8-10 10-22 10-34 0-10-2.6-21-8.2-30-11-19-22-38-33-57-19-33-39-67-58-100-6.7-12-14-23-20-34l-3.2 1.6 3.2-1.6c-3.5-7.3-5.1-15-5.1-22-8e-3 -9.1 2.4-18 6.4-25 4-7.4 9.7-13 16-17l-1.7-3.1-1.7-3.1c-7.9 4.2-14 11-19 20-4.6 8.4-7.3 18-7.3 29-8e-3 8.4 1.8 17 5.8 25l0.023 0.055c6.1 12 13 23 20 35 19 33 39 67 58 100 11 19 22 38 33 57 4.9 8.5 7.2 18 7.2 27 0 11-3.2 21-9.2 30-6 8.9-15 16-26 20-6.6 2.4-13 3.4-18 3.4-11-8e-3 -20-3.7-28-10-13-9.5-23-25-33-41-9.2-16-17-34-24-47-18-32-36-64-54-96-3.6-6.3-7-13-10-19-0.61-1.2-1.8-1.9-3.2-1.9-1.3 0-2.5 0.74-3.2 1.9-3.3 6.3-6.7 13-10 19-18 32-36 64-54 96-4.9 8.8-10 19-16 30-8.4 16-18 34-29 47-5.7 6.4-12 12-19 16-6.7 3.7-14 5.8-22 5.8-5.7 0-12-1.1-18-3.4-11-4-20-11-26-20-6-8.9-9.2-20-9.2-30 0-9.2 2.3-18 7.2-27 11-19 22-38 33-57 19-33 39-67 58-100 6.6-11 14-23 20-35l0.023-0.055c4.1-8.3 5.9-17 5.9-25 0-10-2.7-20-7.3-29-4.6-8.4-11-15-19-20-10-5.6-25-11-41-17-16-5.8-33-12-50-18-14-5.2-27-11-37-19-5-4-9.1-8.6-12-14-3-5.6-5-12-5.4-20v-8e-3c-0.055-0.94-0.078-1.9-0.078-2.8 0-14 6.1-27 16-36 9.5-9.1 22-15 36-15 6.1 0 12 1.1 19 3.6l-8e-3 -8e-3c35 14 70 28 105 42 3.6 1.4 7.2 3 11 4.6 0.83 0.4 1.8 0.46 2.7 0.17l0.023-8e-3 -1.1-3.4-1.5 3.2c1.7 0.78 3.4 1.2 5.1 1.2 1.7 0 3.4-0.45 4.8-1.4 1.4-0.91 2.5-2.3 3.1-3.9v-0.016c0.33-0.88 0.52-1.8 0.52-2.8 0.016-3-1.7-6-4.6-7.8l-1.9 3 2.1 2.8 0.031-0.023c0.95-0.71 1.5-1.8 1.4-3-0.051-1.2-0.67-2.2-1.7-2.9-31-20-52-54-52-94 0-31 12-58 32-78 20-20 48-32 78-32 31 0.0078 58 12 78 32 20 20 32 48 32 78 0 40-21 74-52 94-0.84 0.52-1.4 1.4-1.6 2.4-0.18 0.98 0.062 2 0.66 2.8l0.023 0.039 2.9-2.1-1.9-3c-2.9 1.8-4.6 4.8-4.6 7.8 0 0.96 0.18 1.9 0.52 2.8v-8e-3c0.64 1.7 1.9 3.1 3.3 3.9 1.4 0.85 3 1.2 4.6 1.2 1.4 0 2.9-0.31 4.2-0.93l-1.5-3.2-2.6 2.4 0.016 0.023c1.1 1.2 2.7 1.5 4.2 0.81 3.6-1.7 7.2-3.3 11-4.8 35-14 70-28 105-42 6.1-2.5 12-3.6 19-3.6 13-8e-3 26 5.5 36 15 9.5 9.1 16 22 16 36 0 0.94-0.023 1.9-0.07 2.8-0.46 8.1-2.4 15-5.4 20-4.5 8.3-12 15-20 20-8.6 5.2-19 9.2-29 13-16 6.2-34 12-50 18-16 5.8-30 11-41 17l1.7 3.1" style="fill:#fff"/><path d="m387 157c0.18-1.6-0.12-3.2-0.84-4.5-2.2-3.8-6.6-5.6-11-5.5-4.7 0.2-7.9 2.6-11 6.2-1.7 2.2-2.4 5.5-2.3 8.5-0.13 0.59-0.3 1.2-0.36 1.7-0.25 2 0.062 4 0.95 5.7 0.29 1.1 0.7 2.2 1.3 3.2 1.5 2.7 4.4 4.4 7.3 4.7-2.3-0.27 1.9 0.49 1.5 0.49 1.5 0 1.7-0.078 3.3-0.39 1.3-0.25 2.1-1.1 2.6-2.1 0.9-0.48 1.8-1 2.5-1.7 3.2-2.1 5.6-5.3 6-9.2 0.21-2.5 0.22-4.9-0.37-7.3" style="fill:#fff"/><path d="m370 165 0.047 0.031-0.047-0.031" style="fill:#fff"/><path d="m448 161v-0.32c0.31-0.65 0.52-1.3 0.6-2.2 0.19-2.4-1.3-3.8-3-5.1-1.2-1.9-2.8-3.6-4.5-4.8-3.1-2.3-8-2-11 0.25-2.1 1.6-3.6 3.4-4.8 5.5-1.9 1.8-3.2 4.2-3.2 7.3 0 0.91 0.18 1.8 0.42 2.6 0.039 1.2 0.15 2.5 0.38 3.7 0.62 3.4 2.6 6.8 5.7 8.5 4 2.2 8 1.4 11-1.5 0.46-0.38 0.91-0.98 1.2-1.4-1.1 1.8 0.031 0.062 0.43-0.55 0.32-0.49 0.56-1.1 0.81-1.6l0.18-0.52c1.3-1 2.4-2.2 3.5-3.5 0.88-1.2 1.5-2.7 1.8-4.1 0.14-0.77 0.23-1.5 0.2-2.3 0.13-0.2 0.14-0.25 0-0.082" style="fill:#fff"/><path d="m453 214c-15 17-22 33-47 33-25 0.11-35-22-44-41-1.3-3.2-7.1-4.5-7.9 0-11 69 105 81 113 15 0.77-7.2-9.7-11-14-5.9" style="fill:#fff"/><path d="m436 322c-5.6-0.83-11-5.4-16-8.2-1.6-0.95-3.3-1.7-5.1-2.4 6.6-6.8 14-12 21-3 1.3 1.6 7.4 15 0.37 14zm-68 6.1c-6.5-20 11-13 23-11 2.1 1.8 4.4 3 6.9 3.8-9.2 11-24 25-30 7.4zm74-28c-12-14-26-1.3-35 9.1-4.7-0.58-9.4-0.094-14 1.6-8.7-9.2-29-13-31 2.3-2.3 13 3.7 32 19 29 9.1-2 17-11 23-18 0.45-0.46 0.91-0.99 1.4-1.6 3.9 0.67 7.8 1.4 11 3.3 7 3.8 16 9.6 24 7.3 15-4.2 7.7-25 0.99-33" style="fill:#fff"/><path d="m421 376c0.19-1.9-0.6-4.6-1.7-6.2-2.3-3.4-5.4-3.9-9.3-3.2-3.2 0.56-5.6 2.5-7.1 4.9-0.44 0.48-0.86 0.99-1.3 1.5-1.3 1.7-1.7 4.1-1.6 6.2 0.12 3.4 2.1 5.4 4.6 7.3 1.2 0.86 2.7 0.91 4 0.45 2.7 0.59 5.5-0.09 7.6-2.2 0.97-0.96 1.6-2.1 1.9-3.4 1.6-1.2 2.6-3.4 2.8-5.4" style="fill:#fff"/><path d="m416 414c-0.44-2.6-2.5-4.1-5.1-4.6-2.3-0.85-5-0.55-7.7 1.6l-0.41 0.44c-0.76 0.64-1.5 1.4-2.2 2.3-1.1 1.6-1.4 3.7-1.1 5.6-0.21 3.5 0.65 7 2.5 9.3 1.7 2.1 4.5 2.4 6.9 2 0.53-0.098 0.98-0.32 1.4-0.57 3.8-0.16 6.4-4.1 7.1-7.5 0.59-2.9-0.086-6.1-1.5-8.6" style="fill:#fff"/><path d="m422 466c-0.043-0.23-0.11-0.66-0.21-1.5-0.18-0.89-0.6-1.7-1-2.6-0.4-0.8-1-1.5-1.6-2.2-0.44-0.42-0.31-0.21 0.37 0.64-0.43-0.6-0.83-1.2-1.3-1.7-1.9-2-4.9-3.1-7.8-3-0.71-0.12-1.4-0.25-2.1-0.27-2.5-0.055-4.9 0.89-6.7 2.5-2.4 2.2-3.8 5.8-3.5 9.1 0.75 8.9 9.3 15 18 11 3.8-1.8 6.3-6.8 6.4-11-0.023-0.38-0.086-0.75-0.13-1.1" style="fill:#fff"/><path d="m422 466c0.055 0.29 0.062 0.59 0.11 0.88 0.047 0.36 0.016 0.13-0.11-0.88" style="fill:#fff"/></g></svg>
