<svg width="589pt" height="747pt" version="1.2" viewBox="0 0 589 747" xmlns="http://www.w3.org/2000/svg"><defs><clipPath id="a"><path d="m110 31h590v747h-590z"/></clipPath></defs><g transform="translate(-111 -31)"><g clip-path="url(#a)"><path d="m694 345c-13-25-43-33-68-17l-61 40c-11-9.8-22-19-35-26 33-33 53-78 53-128 0-100-81-182-182-182-100 0-182 81-182 182 0 51 21 97 55 130-11 7.2-22 15-31 24l-61-40c-24-16-55-8.4-68 17-13 25-2 54 25 65l55 22c-17 33-27 70-27 110 0 131 106 237 237 237 131 0 237-106 237-237 0-40-9.9-77-27-110l55-22c27-11 38-40 25-65" style="fill:#e6783d"/></g><path d="m202 642c-0.11-1.7 3.9-4.7 5.1-5.4 2.2-1.2 3.9-4.8 6.5-3.5 3.1 1.6 0.24 5.7-1.2 7.9-2.4 3.6-5.6 3.2-9.4 2.5 0 0-0.98-0.49-1-1.4" style="fill:#c76833"/><path d="m226 582c-0.55-3.3 0.79-8 4.6-6.9 1.4 0.39 2.3 1.5 2.4 2.9 0.21 2.1-1.5 2.1-3.1 3.3-1.6 1.2-3.6 2.9-3.9 0.62" style="fill:#c76833"/><path d="m264 705c-0.45-2.4 0.64-5.7 4-7.2 2.1-0.93 6.2-0.19 7 2.3 1 3.1-2.9 3.9-4.6 5.7-3.4 3.6-5.9 2-6.4-0.85" style="fill:#c76833"/><path d="m186 600c0.2 0.66 0.73 1.1 1.4 1.2 0.8 0.094 0.87-0.066 1.3-0.7 0.57-0.87 1.2-1.5 2.3-1.5 0.68 0.02 1.4 0.21 2 0.17 0.57-0.047 1.7-0.17 1.4-0.98-0.14-0.44-1.4-0.66-1.7-0.82-1.3-0.59-2.8-1.8-4.3-1.4-1.6 0.38-3 2.4-2.5 4" style="fill:#c76833"/><path d="m283 653c1.1 1.8 0.21 3.7 1.4 5.4 0.93 1.4 1.5 2.6 1.5 4.3 0.039 1.7 0.74 3.8 3.1 3.4 3.1-0.56 3.9-3.2 2.3-5.8-0.86-1.4-1.6-2.8-2.2-4.4-0.71-2-1.7-3.4-3-5-0.98-1.2-1.8-2.9-3.1-3.7-2-0.22-2.9 0.57-2.7 2.4 0.27 0.52 0.59 1 0.98 1.4 0.56 0.62 1.3 1.2 1.7 1.9" style="fill:#c76833"/><path d="m379 472c1.1 1.8 0.21 3.7 1.4 5.4 0.94 1.4 1.5 2.6 1.5 4.3 0.039 1.7 0.74 3.8 3.1 3.4 3.1-0.56 3.9-3.2 2.3-5.8-0.84-1.4-1.6-2.8-2.2-4.4-0.72-2-1.7-3.4-3-5-0.98-1.2-1.8-2.9-3.1-3.7-2-0.2-2.9 0.57-2.7 2.4 0.25 0.52 0.58 0.99 0.98 1.4 0.56 0.63 1.3 1.2 1.7 2" style="fill:#c76833"/><path d="m294 730c0.55-0.46 0.74-0.96 0.66-1.5-1.1-0.57-2.4-0.82-3.6-0.55-0.38 0.082-1.1 0.24-1.2 0.7-0.14 0.5 0.57 1.1 0.9 1.3 0.96 0.68 2.3 0.8 3.2 0.02" style="fill:#c76833"/><path d="m334 763c1.9 0.15 2.6-2.7 0.62-3.2-0.78-0.21-2-0.21-2.6 0.52-0.7 0.92 0.086 1.9 0.92 2.4 0.36 0.21 0.71 0.31 1 0.33" style="fill:#c76833"/><path d="m324 666c-0.1-1.7 3.9-4.7 5.1-5.4 2.2-1.2 3.9-4.8 6.5-3.5 3.1 1.6 0.23 5.7-1.2 7.9-2.3 3.6-5.6 3.2-9.4 2.5 0 0-0.98-0.5-1-1.5" style="fill:#c76833"/><path d="m243 642c-0.55-3.3 0.78-7.9 4.6-6.9 1.4 0.4 2.3 1.5 2.4 2.9 0.21 2.1-1.5 2.1-3.1 3.3-1.7 1.2-3.6 2.9-3.9 0.61" style="fill:#c76833"/><path d="m333 595c-0.44-2.4 0.63-5.7 4-7.2 2.1-0.93 6.2-0.2 7 2.3 1.1 3.1-2.9 3.9-4.6 5.7-3.4 3.6-5.9 2-6.4-0.86" style="fill:#c76833"/><path d="m316 515c-0.44-2.4 0.63-5.7 4-7.2 2.2-0.94 6.2-0.2 7 2.3 1.1 3.1-2.9 3.9-4.6 5.7-3.4 3.6-5.9 2-6.4-0.85" style="fill:#c76833"/><path d="m388 576c-0.44-2.4 0.64-5.7 4-7.2 2.1-0.94 6.2-0.2 7 2.3 1 3.1-2.9 3.9-4.6 5.7-3.4 3.6-5.9 2-6.4-0.86" style="fill:#c76833"/><path d="m304 621c0.19 0.66 0.72 1.1 1.4 1.2 0.8 0.094 0.88-0.059 1.3-0.7 0.57-0.88 1.2-1.5 2.3-1.5 0.69 0.02 1.4 0.21 2 0.16 0.57-0.039 1.7-0.16 1.4-0.98-0.13-0.43-1.3-0.65-1.7-0.82-1.3-0.58-2.8-1.7-4.3-1.4-1.6 0.36-3 2.4-2.5 4" style="fill:#c76833"/><path d="m361 511c0.19 0.66 0.72 1.1 1.4 1.2 0.8 0.082 0.88-0.074 1.3-0.7 0.57-0.87 1.2-1.5 2.3-1.5 0.69 8e-3 1.4 0.2 2 0.15 0.58-0.027 1.7-0.15 1.5-0.96-0.15-0.45-1.4-0.66-1.7-0.83-1.3-0.58-2.8-1.7-4.3-1.4-1.6 0.37-3 2.4-2.5 4" style="fill:#c76833"/><path d="m334 563c0.2 0.65 0.73 1.1 1.4 1.2 0.8 0.082 0.88-0.059 1.3-0.7 0.57-0.88 1.2-1.5 2.3-1.5 0.68 0.016 1.4 0.19 2 0.16 0.57-0.035 1.7-0.16 1.4-0.98-0.14-0.43-1.3-0.64-1.7-0.82-1.3-0.57-2.8-1.7-4.3-1.4-1.7 0.38-3 2.4-2.5 4" style="fill:#c76833"/><path d="m371 672c0.2 0.65 0.73 1.1 1.4 1.2 0.79 0.082 0.87-0.078 1.3-0.7 0.58-0.88 1.2-1.5 2.3-1.5 0.67 0.02 1.3 0.21 2 0.16 0.57-0.047 1.7-0.16 1.4-0.98-0.15-0.44-1.4-0.66-1.7-0.82-1.3-0.58-2.8-1.7-4.3-1.4-1.6 0.37-3 2.4-2.5 4" style="fill:#c76833"/><path d="m289 565c1.3-1.6 3.4-1.4 4.7-3 1.1-1.3 2-2.2 3.7-2.8 1.6-0.56 3.4-1.9 2.2-4-1.5-2.8-4.3-2.6-6.2-0.39-1.1 1.3-2.2 2.4-3.5 3.5-1.7 1.3-2.7 2.7-3.8 4.4-0.8 1.3-2.2 2.6-2.5 4.1 0.41 1.9 1.4 2.5 3.1 1.8 0.41-0.4 0.75-0.86 1-1.4 0.41-0.72 0.76-1.6 1.3-2.2" style="fill:#c76833"/><path d="m189 398c-0.43-2.4 0.64-5.7 4-7.2 2.2-0.92 6.2-0.21 7 2.3 1.1 3.1-2.9 3.9-4.6 5.7-3.4 3.6-5.9 2-6.4-0.85" style="fill:#c76833"/><path d="m154 334c-0.44-2.4 0.64-5.7 4-7.2 2.2-0.92 6.2-0.19 7 2.3 1.1 3.1-2.9 3.9-4.6 5.7-3.4 3.6-5.9 2-6.4-0.86" style="fill:#c76833"/><path d="m158 372c0.2 0.66 0.73 1.1 1.4 1.2 0.8 0.086 0.87-0.055 1.3-0.7 0.57-0.86 1.2-1.5 2.3-1.5 0.68 8e-3 1.4 0.19 2 0.14 0.57-0.039 1.7-0.16 1.5-0.98-0.15-0.44-1.4-0.64-1.7-0.83-1.3-0.57-2.8-1.7-4.3-1.4-1.6 0.36-3 2.4-2.5 4" style="fill:#c76833"/><path d="m123 388c-0.18-2.1 1.5-3.4 1.2-5.5-0.21-1.7-0.19-3 0.54-4.6 0.71-1.5 1-3.7-1.2-4.4-3.1-0.88-4.9 1.2-4.6 4.1 0.13 1.7 0.21 3.3 0.027 4.9-0.23 2.1 8e-3 3.8 0.49 5.8 0.35 1.5 0.34 3.4 1.2 4.7 1.7 1.1 2.8 0.76 3.4-0.95 0-0.57-0.086-1.2-0.25-1.7-0.23-0.8-0.6-1.7-0.68-2.5" style="fill:#c76833"/><path d="m362 620c0.55-0.44 0.74-0.96 0.67-1.5-1.1-0.54-2.4-0.81-3.6-0.54-0.39 0.082-1.1 0.24-1.3 0.69-0.14 0.53 0.58 1.1 0.9 1.3 0.96 0.68 2.3 0.81 3.2 0.02" style="fill:#c76833"/><path d="m504 380c1.1 1.8 0.21 3.7 1.4 5.4 0.92 1.4 1.5 2.6 1.5 4.3 0.035 1.7 0.73 3.8 3.1 3.4 3.2-0.57 3.9-3.3 2.3-5.8-0.86-1.4-1.6-2.8-2.2-4.4-0.72-2-1.7-3.4-3-5-0.99-1.2-1.8-2.9-3.1-3.7-2-0.21-2.9 0.56-2.7 2.4 0.27 0.52 0.59 0.98 1 1.4 0.57 0.61 1.3 1.2 1.7 1.9" style="fill:#c76833"/><path d="m442 455c-0.086-1.7 3.9-4.7 5.1-5.4 2.2-1.2 3.9-4.8 6.5-3.4 3.1 1.6 0.24 5.7-1.2 7.8-2.4 3.6-5.6 3.2-9.4 2.5 0 0-0.98-0.5-1-1.4" style="fill:#c76833"/><path d="m360 430c-0.55-3.3 0.78-8 4.6-6.9 1.4 0.41 2.3 1.5 2.4 2.9 0.21 2.1-1.5 2.1-3.1 3.3-1.7 1.2-3.6 2.9-3.9 0.62" style="fill:#c76833"/><path d="m659 339c-0.54-3.3 0.79-8 4.6-6.9 1.4 0.41 2.3 1.5 2.4 2.9 0.21 2.1-1.5 2.1-3.1 3.3-1.7 1.2-3.6 2.9-3.9 0.63" style="fill:#c76833"/><path d="m522 350c-0.55-3.3 0.78-8 4.6-6.9 1.4 0.41 2.3 1.5 2.4 2.9 0.21 2.1-1.5 2.1-3.1 3.3-1.7 1.2-3.6 2.9-3.9 0.62" style="fill:#c76833"/><path d="m451 384c-0.44-2.4 0.64-5.7 4-7.2 2.2-0.94 6.2-0.2 7 2.3 1 3.1-2.9 3.9-4.6 5.7-3.4 3.6-5.9 2-6.4-0.86" style="fill:#c76833"/><path d="m215 503c-0.45-2.4 0.64-5.7 4-7.2 2.2-0.92 6.2-0.2 7 2.3 1.1 3.1-2.9 3.9-4.6 5.7-3.4 3.6-5.9 2-6.4-0.86" style="fill:#c76833"/><path d="m422 409c0.19 0.66 0.72 1.1 1.4 1.2 0.78 0.086 0.86-0.066 1.3-0.71 0.58-0.86 1.2-1.5 2.3-1.5 0.68 0.02 1.4 0.2 2 0.15 0.57-0.027 1.7-0.15 1.4-0.98-0.15-0.43-1.3-0.66-1.7-0.82-1.3-0.57-2.8-1.7-4.3-1.4-1.6 0.38-3 2.4-2.5 4" style="fill:#c76833"/><path d="m488 461c0.2 0.66 0.74 1.1 1.4 1.2 0.8 0.082 0.87-0.074 1.3-0.71 0.57-0.88 1.2-1.5 2.3-1.5 0.68 0.02 1.3 0.2 2 0.15 0.57-0.031 1.7-0.15 1.4-0.98-0.13-0.44-1.3-0.65-1.7-0.82-1.3-0.56-2.8-1.8-4.3-1.4-1.6 0.34-3 2.4-2.5 4" style="fill:#c76833"/><path d="m480 408c0.57-0.46 0.74-0.96 0.67-1.5-1.1-0.54-2.4-0.8-3.6-0.54-0.39 0.082-1.1 0.23-1.3 0.7-0.13 0.5 0.58 1.1 0.91 1.3 0.96 0.68 2.3 0.8 3.2 0.016" style="fill:#c76833"/><path d="m559 429c0.56-0.45 0.74-0.96 0.68-1.5-1.1-0.56-2.4-0.82-3.6-0.56-0.38 0.082-1.1 0.25-1.3 0.71-0.12 0.51 0.58 1.1 0.91 1.3 0.96 0.68 2.3 0.8 3.2 0.027" style="fill:#c76833"/><path d="m667 373c0.55-0.46 0.75-0.97 0.67-1.5-1.1-0.56-2.4-0.82-3.6-0.55-0.38 0.094-1.1 0.25-1.2 0.7-0.13 0.51 0.57 1.1 0.91 1.3 0.96 0.68 2.3 0.81 3.2 0.027" style="fill:#c76833"/><path d="m401 628c0.57-0.46 0.75-0.96 0.68-1.5-1.1-0.55-2.4-0.81-3.6-0.55-0.38 0.086-1.1 0.25-1.3 0.7-0.13 0.51 0.58 1.1 0.92 1.3 0.95 0.67 2.3 0.8 3.2 0.012" style="fill:#c76833"/><path d="m346 724c1.9 0.14 2.6-2.7 0.62-3.2-0.79-0.2-2-0.21-2.6 0.52-0.7 0.91 0.1 1.9 0.93 2.4 0.37 0.21 0.72 0.33 1 0.35" style="fill:#c76833"/><path d="m607 647c0.094-1.7-3.9-4.7-5.1-5.4-2.2-1.2-3.9-4.8-6.5-3.5-3.1 1.6-0.24 5.7 1.2 7.9 2.4 3.6 5.6 3.2 9.4 2.5 0 0 0.99-0.5 1-1.5" style="fill:#c76833"/><path d="m452 769c0.55-3.3-0.78-8-4.6-6.9-1.4 0.41-2.3 1.5-2.4 2.9-0.21 2.1 1.5 2.1 3.1 3.3 1.7 1.2 3.6 2.9 3.9 0.63" style="fill:#c76833"/><path d="m566 696c0.43-2.4-0.65-5.7-4-7.2-2.1-0.91-6.2-0.18-7 2.3-1.1 3.1 2.9 3.9 4.6 5.7 3.4 3.6 5.9 2 6.4-0.87" style="fill:#c76833"/><path d="m632 580c-0.2 0.66-0.73 1.1-1.4 1.2-0.78 0.074-0.86-0.074-1.3-0.7-0.56-0.87-1.2-1.5-2.3-1.5-0.69 0.027-1.4 0.21-2 0.16-0.57-0.027-1.7-0.16-1.4-0.98 0.14-0.43 1.3-0.66 1.7-0.82 1.3-0.58 2.8-1.7 4.3-1.4 1.6 0.38 3 2.4 2.5 4" style="fill:#c76833"/><path d="m512 669c0.58 2 2.6 2.6 3.1 4.7 0.41 1.6 0.93 2.9 2.2 4.1 1.2 1.2 2.3 3.1 0.43 4.5-2.5 1.9-5 0.67-5.8-2.1-0.48-1.6-0.98-3.1-1.8-4.6-0.98-1.9-1.4-3.5-1.7-5.6-0.22-1.5-0.92-3.3-0.65-4.8 1.2-1.6 2.4-1.7 3.5-0.36 0.21 0.54 0.34 1.1 0.38 1.7 0.094 0.82 0.047 1.8 0.29 2.6" style="fill:#c76833"/><path d="m537 721c-0.57-0.45-0.73-0.96-0.67-1.5 1.1-0.55 2.4-0.81 3.6-0.55 0.39 0.11 1.1 0.26 1.3 0.7 0.12 0.52-0.58 1.1-0.91 1.3-0.96 0.66-2.3 0.8-3.2 8e-3" style="fill:#c76833"/><path d="m577 559c-1.9 0.14-2.6-2.7-0.64-3.2 0.81-0.21 2-0.23 2.6 0.5 0.71 0.93-0.094 1.9-0.91 2.4-0.38 0.2-0.72 0.31-1 0.34" style="fill:#c76833"/><path d="m556 658c0.11-1.7-3.8-4.7-5.1-5.4-2.2-1.2-4-4.8-6.5-3.4-3.1 1.6-0.24 5.7 1.2 7.8 2.4 3.6 5.6 3.2 9.4 2.5 0 0 0.98-0.49 1-1.4" style="fill:#c76833"/><path d="m581 610c0.55-3.3-0.79-7.9-4.6-6.9-1.4 0.41-2.3 1.5-2.4 2.9-0.2 2.1 1.5 2.1 3.1 3.3 1.7 1.2 3.6 2.9 3.9 0.62" style="fill:#c76833"/><path d="m544 561c0.43-2.4-0.65-5.7-4-7.2-2.2-0.94-6.2-0.2-7 2.3-1 3.1 2.9 3.9 4.6 5.7 3.4 3.6 5.9 2 6.4-0.84" style="fill:#c76833"/><path d="m442 567c0.43-2.4-0.65-5.7-4-7.2-2.1-0.92-6.2-0.19-7 2.3-1.1 3.1 2.9 3.9 4.6 5.7 3.4 3.6 5.9 2 6.4-0.87" style="fill:#c76833"/><path d="m519 606c-0.19 0.65-0.72 1.1-1.4 1.2-0.8 0.094-0.87-0.055-1.3-0.7-0.58-0.87-1.2-1.5-2.3-1.5-0.68 8e-3 -1.3 0.2-2 0.16-0.57-0.047-1.7-0.16-1.4-0.98 0.15-0.45 1.4-0.65 1.7-0.82 1.3-0.57 2.8-1.8 4.3-1.4 1.6 0.37 3 2.4 2.5 4.1" style="fill:#c76833"/><path d="m496 554c-0.19 0.65-0.72 1.1-1.4 1.2-0.8 0.094-0.87-0.055-1.3-0.7-0.58-0.87-1.2-1.5-2.3-1.5-0.68 0.02-1.4 0.2-2 0.15-0.58-0.035-1.7-0.15-1.5-0.98 0.15-0.43 1.4-0.64 1.7-0.81 1.3-0.57 2.8-1.7 4.3-1.4 1.6 0.38 3 2.4 2.5 4" style="fill:#c76833"/><path d="m460 664c-0.2 0.66-0.72 1.1-1.4 1.2-0.8 0.086-0.88-0.074-1.3-0.71-0.58-0.86-1.2-1.5-2.3-1.5-0.68 0.02-1.4 0.2-2 0.14-0.57-0.016-1.7-0.14-1.4-0.95 0.15-0.46 1.4-0.67 1.7-0.84 1.3-0.57 2.8-1.8 4.3-1.4 1.6 0.38 3 2.4 2.5 4.1" style="fill:#c76833"/><path d="m392 765c-0.2 0.64-0.73 1.1-1.4 1.2-0.8 0.086-0.87-0.066-1.3-0.7-0.57-0.88-1.2-1.5-2.3-1.5-0.68 0.02-1.4 0.21-2 0.16-0.58-0.039-1.7-0.16-1.4-0.98 0.15-0.43 1.3-0.66 1.7-0.82 1.3-0.57 2.8-1.7 4.3-1.4 1.6 0.37 3 2.4 2.5 4.1" style="fill:#c76833"/><path d="m485 491c-1.3-1.6-3.4-1.3-4.7-3-1-1.3-2-2.2-3.6-2.8-1.6-0.56-3.4-1.9-2.2-4 1.5-2.8 4.3-2.6 6.2-0.4 1.1 1.3 2.2 2.4 3.5 3.5 1.7 1.3 2.7 2.7 3.8 4.4 0.81 1.3 2.2 2.6 2.6 4.1-0.42 1.9-1.5 2.5-3.1 1.8-0.4-0.41-0.76-0.88-1-1.4-0.41-0.71-0.77-1.6-1.3-2.2" style="fill:#c76833"/><path d="m468 611c-0.55-0.46-0.74-0.97-0.66-1.5 1.1-0.55 2.4-0.82 3.6-0.55 0.39 0.094 1.1 0.25 1.3 0.71 0.13 0.5-0.57 1-0.91 1.3-0.96 0.68-2.3 0.8-3.2 0.02" style="fill:#c76833"/><path d="m400 701c0.44-2.4-0.65-5.7-4-7.2-2.2-0.92-6.2-0.21-7 2.3-1.1 3.1 2.9 3.9 4.6 5.7 3.4 3.6 5.9 2 6.4-0.87" style="fill:#c76833"/><path d="m454 688c-0.2 0.66-0.73 1.1-1.4 1.2-0.8 0.094-0.87-0.055-1.3-0.7-0.57-0.86-1.2-1.5-2.3-1.5-0.69 0.02-1.4 0.21-2 0.16-0.57-0.035-1.7-0.16-1.5-0.98 0.15-0.43 1.4-0.64 1.7-0.82 1.3-0.58 2.8-1.7 4.3-1.4 1.7 0.38 3 2.4 2.5 4" style="fill:#c76833"/><path d="m421 729c-0.55-0.45-0.74-0.96-0.66-1.5 1.1-0.55 2.4-0.82 3.6-0.55 0.38 0.094 1.1 0.25 1.3 0.7 0.13 0.51-0.58 1.1-0.91 1.3-0.96 0.67-2.3 0.81-3.2 0.02" style="fill:#c76833"/><path d="m429 619c-0.55-0.45-0.74-0.96-0.67-1.5 1.1-0.56 2.4-0.8 3.6-0.55 0.39 0.086 1.1 0.25 1.2 0.71 0.14 0.5-0.57 1.1-0.92 1.3-0.95 0.67-2.3 0.8-3.2 0.016" style="fill:#c76833"/><path d="m358 373c0.43-2.4-0.63-5.7-4-7.2-2.2-0.94-6.2-0.21-7 2.3-1.1 3.1 2.9 3.9 4.6 5.7 3.4 3.6 5.9 2 6.4-0.85" style="fill:#c76833"/><path d="m290 450c0.44-2.4-0.63-5.7-4-7.2-2.2-0.92-6.2-0.18-7 2.3-1.1 3.1 2.9 3.9 4.6 5.7 3.4 3.6 5.9 2 6.4-0.87" style="fill:#c76833"/><path d="m332 418c-0.2 0.65-0.73 1.1-1.4 1.2-0.79 0.1-0.87-0.059-1.3-0.7-0.57-0.87-1.2-1.5-2.3-1.5-0.69 0.02-1.4 0.2-2.1 0.14-0.56-0.027-1.7-0.14-1.4-0.96 0.14-0.45 1.3-0.66 1.7-0.82 1.3-0.57 2.8-1.8 4.3-1.4 1.6 0.36 3 2.4 2.5 4" style="fill:#c76833"/><path d="m264 367c-0.54-3.3 0.79-8 4.6-6.9 1.4 0.4 2.3 1.5 2.4 2.9 0.21 2.1-1.5 2.1-3.1 3.3-1.7 1.2-3.6 2.9-3.9 0.62" style="fill:#c76833"/><path d="m225 402c-0.19 0.66-0.73 1.1-1.4 1.2-0.79 0.074-0.86-0.059-1.3-0.71-0.57-0.87-1.2-1.5-2.3-1.5-0.68 0.02-1.4 0.2-2 0.16-0.57-0.039-1.7-0.16-1.4-0.98 0.15-0.43 1.3-0.65 1.7-0.82 1.3-0.57 2.8-1.7 4.3-1.4 1.6 0.38 3 2.4 2.5 4" style="fill:#c76833"/><path d="m310 366c-0.21 0.66-0.74 1.1-1.4 1.2-0.79 0.094-0.88-0.066-1.3-0.7-0.56-0.88-1.2-1.5-2.3-1.5-0.68 0.027-1.4 0.21-2 0.16-0.58-0.039-1.7-0.16-1.5-0.98 0.16-0.44 1.4-0.66 1.7-0.82 1.3-0.58 2.8-1.7 4.3-1.4 1.6 0.37 3 2.4 2.5 4" style="fill:#c76833"/><path d="m194 535c-0.19 0.68-0.72 1.1-1.4 1.2-0.8 0.094-0.88-0.059-1.3-0.7-0.57-0.87-1.2-1.5-2.3-1.5-0.68 0.02-1.4 0.2-2 0.15-0.57-0.039-1.7-0.16-1.4-0.98 0.15-0.44 1.3-0.66 1.7-0.82 1.3-0.57 2.8-1.7 4.3-1.4 1.6 0.37 3 2.4 2.5 4" style="fill:#c76833"/><path d="m280 411c-0.57-0.44-0.75-0.96-0.67-1.4 1.1-0.56 2.4-0.82 3.6-0.56 0.39 0.082 1.1 0.25 1.2 0.7 0.14 0.51-0.57 1.1-0.91 1.3-0.95 0.68-2.3 0.82-3.2 0.02" style="fill:#c76833"/><path d="m230 469c-0.55-0.45-0.74-0.96-0.66-1.5 1.1-0.55 2.4-0.82 3.5-0.55 0.39 0.094 1.1 0.25 1.2 0.7 0.14 0.52-0.55 1.1-0.91 1.3-0.95 0.68-2.3 0.8-3.2 0.02" style="fill:#c76833"/><path d="m248 532c-0.56-0.45-0.75-0.96-0.67-1.5 1.1-0.56 2.4-0.81 3.6-0.56 0.39 0.086 1.1 0.25 1.2 0.71 0.14 0.5-0.57 1-0.9 1.3-0.96 0.68-2.3 0.81-3.2 0.02" style="fill:#c76833"/><path d="m181 468c-0.57-0.45-0.75-0.96-0.67-1.5 1.1-0.54 2.4-0.81 3.6-0.54 0.38 0.094 1.1 0.24 1.2 0.7 0.13 0.5-0.57 1-0.91 1.3-0.96 0.66-2.3 0.8-3.2 0.016" style="fill:#c76833"/><path d="m520 402c-0.44-2.4 0.64-5.7 4-7.2 2.2-0.94 6.2-0.21 7 2.3 1.1 3.1-2.9 3.9-4.6 5.7-3.4 3.6-5.9 2-6.4-0.85" style="fill:#c76833"/><path d="m563 490c0.43-2.4-0.66-5.7-4-7.2-2.2-0.93-6.2-0.2-7 2.3-1.1 3.1 2.9 3.9 4.6 5.7 3.4 3.6 5.9 2 6.4-0.86" style="fill:#c76833"/><path d="m621 371c-0.55-3.3 0.77-8 4.6-6.9 1.4 0.41 2.3 1.5 2.4 2.9 0.2 2.1-1.5 2.1-3.1 3.3-1.7 1.2-3.6 2.9-3.9 0.62" style="fill:#c76833"/><path d="m533 467c-0.2 0.65-0.73 1.1-1.4 1.2-0.8 0.082-0.88-0.066-1.3-0.7-0.58-0.88-1.2-1.5-2.3-1.5-0.68 0.02-1.4 0.2-2 0.16-0.57-0.047-1.7-0.16-1.4-0.98 0.15-0.45 1.4-0.66 1.7-0.82 1.3-0.58 2.8-1.8 4.3-1.4 1.7 0.36 3 2.4 2.5 4" style="fill:#c76833"/><path d="m459 341c-0.094-1.7 3.9-4.7 5.1-5.4 2.2-1.2 4-4.8 6.5-3.5 3.1 1.6 0.23 5.7-1.2 7.8-2.3 3.6-5.6 3.2-9.4 2.5 0 0-0.98-0.5-1-1.5" style="fill:#c76833"/><path d="m493 295c0.2 0.65 0.73 1.1 1.4 1.2 0.79 0.094 0.87-0.055 1.3-0.69 0.56-0.87 1.2-1.5 2.3-1.5 0.69 0.02 1.4 0.2 2 0.16 0.57-0.039 1.7-0.16 1.4-0.98-0.13-0.45-1.3-0.66-1.7-0.83-1.3-0.57-2.8-1.7-4.3-1.4-1.7 0.37-3 2.4-2.5 4" style="fill:#c76833"/><path d="m537 314c0.19 0.66 0.72 1.1 1.4 1.2 0.79 0.11 0.86-0.066 1.3-0.69 0.57-0.88 1.2-1.5 2.3-1.5 0.68 0.02 1.4 0.2 2 0.15 0.57-0.035 1.7-0.16 1.4-0.97-0.15-0.44-1.3-0.65-1.7-0.82-1.3-0.58-2.8-1.8-4.3-1.4-1.6 0.36-3 2.4-2.5 4" style="fill:#c76833"/><path d="m369 346c-0.19 0.68-0.74 1.1-1.4 1.2-0.79 0.094-0.88-0.059-1.3-0.7-0.58-0.86-1.2-1.5-2.3-1.5-0.67 8e-3 -1.3 0.2-2 0.15-0.57-0.035-1.7-0.17-1.4-0.97 0.14-0.44 1.3-0.65 1.7-0.84 1.3-0.57 2.8-1.7 4.3-1.4 1.6 0.36 3 2.4 2.5 4" style="fill:#c76833"/><path d="m592 434c-0.55-0.45-0.74-0.95-0.66-1.5 1.1-0.55 2.4-0.8 3.5-0.55 0.38 0.1 1.1 0.25 1.2 0.71 0.13 0.51-0.57 1.1-0.91 1.3-0.95 0.67-2.3 0.8-3.2 0" style="fill:#c76833"/><path d="m620 395c-0.55-0.45-0.74-0.95-0.67-1.5 1.1-0.57 2.4-0.81 3.6-0.56 0.39 0.094 1.1 0.25 1.2 0.7 0.14 0.51-0.56 1.1-0.92 1.3-0.95 0.67-2.3 0.8-3.2 0.016" style="fill:#c76833"/><path d="m673 402c-0.55-0.45-0.74-0.96-0.66-1.5 1.1-0.56 2.4-0.82 3.5-0.56 0.39 0.094 1.1 0.25 1.3 0.7 0.13 0.52-0.58 1.1-0.91 1.3-0.96 0.68-2.3 0.81-3.2 0.02" style="fill:#c76833"/><path d="m535 368c-0.55-0.46-0.74-0.98-0.66-1.5 1.1-0.55 2.4-0.82 3.6-0.55 0.38 0.082 1.1 0.24 1.2 0.7 0.14 0.5-0.57 1.1-0.9 1.3-0.96 0.68-2.3 0.8-3.2 0.031" style="fill:#c76833"/><path d="m620 496c-0.55-0.46-0.74-0.96-0.67-1.5 1.1-0.55 2.4-0.8 3.6-0.55 0.39 0.094 1.1 0.24 1.2 0.71 0.14 0.5-0.56 1.1-0.92 1.3-0.95 0.68-2.3 0.8-3.2 0.02" style="fill:#c76833"/><path d="m590 396c-0.55-0.45-0.74-0.96-0.67-1.5 1.1-0.56 2.4-0.82 3.6-0.55 0.38 0.086 1.1 0.25 1.2 0.71 0.14 0.5-0.57 1-0.91 1.3-0.96 0.68-2.3 0.8-3.2 0.02" style="fill:#c76833"/><path d="m486 366c-0.55-0.44-0.74-0.95-0.66-1.5 1.1-0.56 2.4-0.8 3.6-0.56 0.38 0.094 1.1 0.26 1.3 0.71 0.14 0.5-0.57 1.1-0.91 1.3-0.97 0.68-2.3 0.81-3.2 0.016" style="fill:#c76833"/><path d="m597 360c-0.55-0.46-0.74-0.96-0.66-1.5 1.1-0.55 2.4-0.8 3.6-0.55 0.38 0.082 1.1 0.24 1.2 0.7 0.13 0.51-0.57 1.1-0.91 1.3-0.96 0.68-2.3 0.81-3.2 0.027" style="fill:#c76833"/><path d="m373 189c1.1 1.8 0.21 3.7 1.4 5.4 0.94 1.4 1.5 2.6 1.5 4.4 0.039 1.7 0.74 3.8 3.1 3.4 3.2-0.58 3.9-3.3 2.3-5.8-0.86-1.4-1.6-2.8-2.2-4.4-0.71-2-1.7-3.4-3-5-0.98-1.2-1.8-2.9-3.1-3.7-2-0.2-2.9 0.58-2.7 2.4 0.27 0.52 0.59 0.99 0.98 1.4 0.57 0.61 1.3 1.2 1.7 1.9" style="fill:#c76833"/><path d="m343 260c0.55-0.46 0.74-0.96 0.66-1.5-1.1-0.56-2.4-0.8-3.6-0.55-0.38 0.086-1.1 0.25-1.2 0.7-0.14 0.51 0.56 1.1 0.9 1.3 0.96 0.68 2.3 0.81 3.2 0.027" style="fill:#c76833"/><path d="m308 303c0.55-0.44 0.74-0.96 0.66-1.5-1.1-0.55-2.4-0.82-3.5-0.55-0.39 0.086-1.1 0.25-1.3 0.7-0.13 0.52 0.57 1 0.91 1.3 0.95 0.66 2.3 0.8 3.2 0.02" style="fill:#c76833"/><path d="m383 271c-0.44-2.4 0.64-5.7 4-7.2 2.1-0.93 6.2-0.19 7 2.3 1.1 3.1-2.9 3.9-4.6 5.7-3.4 3.6-5.9 2-6.4-0.86" style="fill:#c76833"/><path d="m417 350c0.45-2.4-0.64-5.7-4-7.2-2.2-0.93-6.2-0.2-7 2.3-1.1 3.1 2.9 3.9 4.6 5.7 3.4 3.6 5.9 2 6.4-0.86" style="fill:#c76833"/><path d="m234 185c-0.52 2-2.5 2.7-2.9 4.8-0.37 1.7-0.84 2.9-2.1 4.1-1.2 1.2-2.2 3.2-0.29 4.5 2.6 1.9 5 0.51 5.8-2.3 0.43-1.6 0.88-3.1 1.6-4.6 0.92-1.9 1.3-3.6 1.5-5.6 0.17-1.5 0.83-3.3 0.5-4.8-1.2-1.6-2.4-1.7-3.5-0.26-0.2 0.54-0.31 1.1-0.33 1.7-0.059 0.84 0.016 1.8-0.2 2.6" style="fill:#c76833"/><path d="m234 260c2-1.5 5.5-1.9 8.2 0.42 1.8 1.5 2.9 5.5 0.99 7.3-2.4 2.3-4.8-0.89-7.2-1.6-4.8-1.4-4.4-4.4-2.1-6.1" style="fill:#c76833"/><path d="m256 298c-0.52 0.46-0.68 1.2-0.44 1.8 0.27 0.76 0.44 0.76 1.2 0.86 1 0.13 1.9 0.43 2.3 1.4 0.29 0.62 0.42 1.3 0.76 1.9 0.29 0.51 0.9 1.5 1.5 0.88 0.32-0.35 0-1.5-0.02-1.9-0.047-1.4 0.34-3.3-0.62-4.5-1.1-1.3-3.5-1.6-4.7-0.48" style="fill:#c76833"/><path d="m283 165c-0.094-1.7 3.9-4.7 5.1-5.4 2.2-1.2 4-4.8 6.5-3.4 3.1 1.6 0.23 5.7-1.2 7.8-2.3 3.6-5.6 3.2-9.4 2.5 0 0-0.98-0.48-1-1.4" style="fill:#c76833"/><path d="m291 94c-0.43-2.4 0.63-5.7 4-7.2 2.2-0.93 6.2-0.21 7 2.3 1.1 3.1-2.9 3.9-4.6 5.7-3.4 3.6-5.9 2-6.4-0.86" style="fill:#c76833"/><path d="m263 120c0.18 0.66 0.72 1.1 1.4 1.2 0.79 0.082 0.86-0.059 1.3-0.7 0.57-0.85 1.2-1.5 2.3-1.5 0.68 8e-3 1.4 0.2 2 0.14 0.57-0.027 1.7-0.15 1.4-0.98-0.14-0.43-1.3-0.64-1.7-0.82-1.3-0.58-2.8-1.7-4.3-1.4-1.6 0.38-3 2.4-2.5 4" style="fill:#c76833"/><path d="m329 171c0.19 0.65 0.72 1.1 1.4 1.2 0.8 0.094 0.88-0.066 1.3-0.7 0.57-0.88 1.2-1.5 2.3-1.5 0.68 0.02 1.3 0.2 2 0.15 0.58-0.047 1.7-0.16 1.5-0.97-0.15-0.44-1.4-0.66-1.7-0.82-1.3-0.59-2.8-1.8-4.3-1.4-1.6 0.37-3 2.4-2.5 4.1" style="fill:#c76833"/><path d="m320 119c0.57-0.46 0.75-0.96 0.67-1.5-1.1-0.54-2.4-0.8-3.6-0.54-0.39 0.086-1.1 0.24-1.2 0.7-0.14 0.51 0.56 1.1 0.9 1.3 0.96 0.68 2.3 0.82 3.2 0.027" style="fill:#c76833"/><path d="m287 244c-1.3-1.6-3.4-1.4-4.7-3-1-1.3-2-2.2-3.6-2.8-1.6-0.57-3.4-1.9-2.2-4 1.5-2.8 4.3-2.6 6.2-0.4 1.1 1.3 2.2 2.4 3.5 3.5 1.7 1.3 2.7 2.7 3.8 4.4 0.81 1.3 2.2 2.6 2.5 4.1-0.41 1.9-1.4 2.5-3.1 1.8-0.4-0.4-0.75-0.85-1-1.4-0.41-0.73-0.76-1.6-1.3-2.2" style="fill:#c76833"/><path d="m451 58c0.43-2.4-0.65-5.7-4-7.2-2.2-0.94-6.2-0.2-7 2.3-1.1 3.1 2.9 3.9 4.6 5.7 3.4 3.6 5.9 2 6.4-0.86" style="fill:#c76833"/><path d="m383 135c0.44-2.4-0.64-5.7-4-7.2-2.2-0.95-6.2-0.21-7 2.3-1 3.1 2.9 3.9 4.6 5.7 3.4 3.6 5.9 2 6.4-0.86" style="fill:#c76833"/><path d="m425 103c-0.19 0.64-0.72 1.1-1.4 1.2-0.8 0.086-0.86-0.062-1.3-0.7-0.57-0.87-1.2-1.5-2.3-1.5-0.68 0.012-1.3 0.2-2 0.15-0.58-0.039-1.7-0.15-1.5-0.97 0.15-0.46 1.4-0.66 1.7-0.84 1.3-0.57 2.8-1.7 4.3-1.4 1.6 0.36 3 2.4 2.5 4.1" style="fill:#c76833"/><path d="m357 52c-0.54-3.3 0.78-7.9 4.6-6.9 1.4 0.42 2.3 1.5 2.4 3 0.21 2.1-1.5 2.1-3.1 3.3-1.7 1.2-3.6 2.9-3.9 0.62" style="fill:#c76833"/><path d="m403 52c-0.2 0.65-0.73 1.1-1.4 1.2-0.79 0.094-0.88-0.066-1.3-0.7-0.57-0.87-1.2-1.5-2.3-1.5-0.7 0.012-1.4 0.21-2 0.16-0.58-0.039-1.7-0.16-1.5-0.98 0.16-0.44 1.4-0.66 1.7-0.82 1.3-0.58 2.8-1.7 4.3-1.4 1.6 0.38 3 2.4 2.5 4" style="fill:#c76833"/><path d="m373 96c-0.55-0.46-0.74-0.96-0.66-1.5 1.1-0.55 2.4-0.8 3.6-0.55 0.38 0.082 1.1 0.25 1.2 0.71 0.14 0.51-0.56 1.1-0.9 1.3-0.96 0.67-2.3 0.8-3.2 0.012" style="fill:#c76833"/><path d="m477 114c-0.2 0.66-0.73 1.1-1.4 1.2-0.79 0.086-0.87-0.074-1.3-0.7-0.57-0.87-1.2-1.5-2.3-1.5-0.68 0.016-1.4 0.2-2 0.16-0.57-0.047-1.7-0.17-1.5-0.97 0.15-0.44 1.4-0.66 1.7-0.82 1.3-0.59 2.8-1.8 4.3-1.4 1.6 0.38 3 2.4 2.5 4" style="fill:#c76833"/><path d="m327 77c-0.55-0.47-0.75-0.97-0.67-1.5 1.1-0.55 2.4-0.81 3.6-0.55 0.39 0.086 1.1 0.25 1.2 0.7 0.14 0.5-0.57 1.1-0.91 1.3-0.95 0.68-2.3 0.8-3.2 0.027" style="fill:#c76833"/><path d="m534 113c0.43-2.4-0.64-5.7-4-7.2-2.2-0.92-6.2-0.19-7 2.3-1.1 3.1 2.9 3.9 4.6 5.7 3.4 3.6 5.9 2 6.4-0.87" style="fill:#c76833"/><path d="m428 186c-0.54-3.3 0.79-7.9 4.6-6.9 1.4 0.4 2.3 1.5 2.4 2.9 0.21 2.1-1.5 2.1-3.1 3.3-1.7 1.2-3.6 2.9-3.9 0.62" style="fill:#c76833"/><path d="m482 171c-0.54-3.3 0.78-7.9 4.6-6.9 1.4 0.4 2.3 1.5 2.4 2.9 0.22 2.1-1.5 2.1-3.1 3.3-1.7 1.2-3.6 2.9-3.9 0.61" style="fill:#c76833"/><path d="m562 168c-0.54-3.3 0.77-8 4.6-6.9 1.4 0.4 2.3 1.5 2.4 2.9 0.21 2.1-1.5 2.1-3.1 3.3-1.7 1.2-3.6 2.9-3.9 0.62" style="fill:#c76833"/><path d="m358 305c-0.19 0.66-0.72 1.1-1.4 1.2-0.8 0.094-0.88-0.055-1.3-0.7-0.59-0.88-1.2-1.5-2.3-1.5-0.69 8e-3 -1.4 0.19-2 0.16-0.57-0.047-1.7-0.16-1.4-0.98 0.15-0.43 1.4-0.66 1.7-0.81 1.3-0.58 2.8-1.8 4.3-1.4 1.6 0.38 3 2.4 2.5 4.1" style="fill:#c76833"/><path d="m322 192c-0.094-1.7 3.9-4.7 5.1-5.4 2.2-1.2 4-4.8 6.5-3.5 3.1 1.6 0.24 5.7-1.2 7.8-2.4 3.6-5.6 3.2-9.4 2.5 0 0-0.98-0.5-1-1.5" style="fill:#c76833"/><path d="m455 286c-0.55-0.46-0.74-0.98-0.67-1.5 1.1-0.55 2.4-0.81 3.6-0.55 0.39 0.094 1.1 0.24 1.3 0.7 0.14 0.52-0.57 1-0.91 1.3-0.95 0.68-2.3 0.82-3.2 0.039" style="fill:#c76833"/><path d="m485 229c-0.56-0.46-0.74-0.98-0.68-1.5 1.1-0.56 2.4-0.81 3.6-0.56 0.38 0.094 1.1 0.25 1.2 0.71 0.13 0.51-0.57 1.1-0.91 1.3-0.96 0.68-2.3 0.8-3.2 0.027" style="fill:#c76833"/><path d="m533 239c-0.55-0.45-0.73-0.95-0.67-1.5 1.1-0.54 2.4-0.8 3.6-0.54 0.38 0.082 1.1 0.25 1.2 0.69 0.13 0.52-0.57 1.1-0.91 1.3-0.95 0.67-2.3 0.8-3.2 0.016" style="fill:#c76833"/><path d="m398 219c-0.55-0.45-0.74-0.96-0.67-1.5 1.1-0.55 2.4-0.81 3.6-0.55 0.39 0.094 1.1 0.25 1.2 0.7 0.13 0.53-0.58 1.1-0.91 1.3-0.96 0.68-2.3 0.8-3.2 0.027" style="fill:#c76833"/><path d="m393 147c-0.55-0.45-0.74-0.96-0.68-1.5 1.1-0.54 2.4-0.8 3.6-0.54 0.39 0.082 1.1 0.24 1.2 0.69 0.14 0.51-0.57 1.1-0.91 1.3-0.95 0.67-2.3 0.8-3.2 0.016" style="fill:#c76833"/><path d="m453 248c-0.55-0.45-0.73-0.96-0.67-1.5 1.1-0.54 2.4-0.8 3.6-0.54 0.38 0.086 1.1 0.25 1.2 0.7 0.13 0.52-0.57 1.1-0.91 1.3-0.96 0.68-2.3 0.8-3.2 0.02" style="fill:#c76833"/><path d="m410 297c-0.56-0.46-0.75-0.97-0.67-1.5 1.1-0.56 2.4-0.8 3.6-0.54 0.39 0.074 1.1 0.23 1.3 0.7 0.13 0.51-0.58 1.1-0.91 1.3-0.96 0.68-2.3 0.8-3.2 0.027" style="fill:#c76833"/><path d="m413 254c-0.55-0.45-0.75-0.96-0.68-1.5 1.1-0.56 2.4-0.82 3.6-0.56 0.38 0.094 1.1 0.26 1.3 0.71 0.13 0.5-0.58 1.1-0.91 1.3-0.96 0.69-2.3 0.81-3.2 0.02" style="fill:#c76833"/><path d="m349 218c-0.55-0.45-0.74-0.96-0.67-1.4 1.1-0.56 2.4-0.82 3.6-0.56 0.39 0.094 1.1 0.25 1.3 0.71 0.14 0.5-0.57 1.1-0.91 1.3-0.96 0.67-2.3 0.8-3.2 0.016" style="fill:#c76833"/><path d="m527 183c1.1 1.8 0.2 3.7 1.4 5.4 0.94 1.4 1.5 2.6 1.5 4.4 0.039 1.7 0.74 3.8 3.1 3.4 3.2-0.56 3.9-3.2 2.3-5.8-0.85-1.4-1.6-2.8-2.2-4.4-0.71-2-1.7-3.4-3-5-0.99-1.2-1.8-2.9-3.1-3.7-2-0.22-2.9 0.56-2.7 2.4 0.26 0.53 0.59 1 0.99 1.4 0.55 0.62 1.3 1.2 1.7 1.9" style="fill:#c76833"/><path d="m509 264c0.55-0.46 0.74-0.96 0.66-1.5-1.1-0.55-2.4-0.81-3.5-0.55-0.39 0.086-1.1 0.24-1.3 0.7-0.13 0.52 0.58 1.1 0.91 1.3 0.96 0.67 2.3 0.8 3.2 0.027" style="fill:#c76833"/><path d="m552 213c-0.56-0.46-0.75-0.96-0.68-1.5 1.1-0.55 2.4-0.81 3.6-0.55 0.39 0.082 1.1 0.26 1.2 0.7 0.14 0.5-0.56 1.1-0.9 1.3-0.96 0.68-2.3 0.8-3.2 0.02" style="fill:#c76833"/><path d="m564 264c-0.57-0.45-0.75-0.96-0.67-1.5 1.1-0.55 2.4-0.82 3.6-0.55 0.38 0.074 1.1 0.25 1.3 0.7 0.13 0.52-0.58 1.1-0.92 1.3-0.95 0.68-2.3 0.82-3.2 0.027" style="fill:#c76833"/><path d="m503 212c-0.55-0.45-0.74-0.96-0.66-1.5 1.1-0.54 2.4-0.8 3.6-0.54 0.38 0.074 1.1 0.24 1.2 0.69 0.14 0.52-0.56 1.1-0.9 1.3-0.97 0.66-2.3 0.8-3.2 8e-3" style="fill:#c76833"/><path d="m460 212c-0.57-0.46-0.75-0.96-0.67-1.5 1.1-0.56 2.4-0.81 3.6-0.54 0.39 0.074 1.1 0.24 1.3 0.69 0.14 0.52-0.58 1.1-0.9 1.3-0.97 0.68-2.3 0.82-3.2 0.027" style="fill:#c76833"/><path d="m484 715c-1.9 0.14-2.6-2.8-0.63-3.2 0.79-0.19 2-0.21 2.6 0.52 0.7 0.93-0.094 1.9-0.92 2.4-0.38 0.21-0.73 0.31-1 0.35" style="fill:#c76833"/><path d="m470 758c-1.9 0.14-2.6-2.8-0.63-3.2 0.8-0.2 2-0.21 2.6 0.51 0.7 0.92-0.094 1.9-0.92 2.4-0.36 0.22-0.72 0.34-1 0.36" style="fill:#c76833"/><path d="m497 346 2.9 2.3c12-15 28-34 41-55 13-21 23-44 23-68 0-48-19-91-49-122-30-31-70-51-112-51s-82 19-112 51c-30 31-49 75-49 122 0.016 25 9.8 48 23 68 13 21 29 39 41 55l2.9-2.3-2.3-2.9c-24 20-53 47-75 79-22 32-38 70-38 110 8e-3 62 25 118 64 159 39 41 91 66 146 66 55-8e-3 107-25 146-66 39-41 64-97 64-159-0.012-40-16-77-38-110-22-32-50-59-75-79l-2.3 2.9 2.9 2.3-2.9-2.3-2.3 2.8c24 19 52 46 73 78 22 31 37 68 37 106 0 60-24 114-62 154-37 39-88 64-140 64-52 8e-3 -103-24-140-64-37-39-62-94-62-154-0.012-38 15-74 37-106 22-31 49-58 73-78 1.6-1.3 1.8-3.6 0.55-5.1-12-15-28-34-40-54-12-20-22-42-21-65-0.012-46 18-87 47-117 28-30 67-49 106-49 40 0 78 18 106 49 28 30 47 72 47 117 8e-3 23-9.1 45-21 65-12 20-28 38-40 54-1.3 1.6-1 3.9 0.55 5.1l2.3-2.8" style="fill:#fff"/><path d="m687 345c-11-19-42-16-58-8.4-12 5.8-22 14-32 22-17 14-38 14-57 25-3.8 2.2-2.4 8.5 2.4 7.6 42-7.6 67-43 109-54 20-4.9 41 23 29 40-7.3 11-27 17-38 22-26 11-41 17-67 28-5.9 2.5-3.7 7.9 2 7.5 17-1.4 23-4.2 39-11 17-7.8 36-12 52-21 21-13 32-34 19-57" style="fill:#fff"/><path d="m128 345c11-19 42-16 58-8.4 12 5.8 22 14 33 22 17 14 32 14 51 25 3.8 2.2 2.4 8.5-2.4 7.6-42-7.6-62-43-104-53-20-4.9-41 23-29 40 7.3 11 27 17 38 22 26 11 36 15 62 26 5.9 2.5 4.3 9.9-1.4 9.5-17-1.4-19-4.2-34-11-17-7.8-36-12-52-21-21-13-32-34-19-57" style="fill:#fff"/><path d="m164 391c3.6-1.5 3-1.9 4.5-5.2 2.2-5.1 0.59-6.1 4.8-10 3.6-3.6 2.4-8.4 4.3-13 0.28-0.63 0.96-0.94 1.6-1.2 4.7-1.9 4.7-7.5 3.7-12-0.15-0.62 0.39-1.2 1-1 4.5 1 5.8 4.7 4.4 9-0.71 2.2-2.3 4.3-4 5.8-2.3 2-1.4 8.8-2.6 12-2 4.7-9.3 7.9-9.4 13-0.094 4.8-1.2 7.9-6.9 7.6-2.5-0.1-4.1-3.9-1.4-5.1" style="fill:#fff"/><path d="m649 391c-3.6-1.5-3-1.9-4.5-5.2-2.2-5.1-0.59-6.1-4.8-10-3.6-3.6-2.4-8.4-4.3-13-0.29-0.63-0.96-0.94-1.6-1.2-4.7-1.9-4.7-7.5-3.7-12 0.14-0.62-0.4-1.2-1.1-1-4.5 1-5.8 4.7-4.4 9 0.7 2.2 2.3 4.3 4 5.8 2.3 2 1.4 8.8 2.6 12 2 4.7 9.3 7.9 9.4 13 0.082 4.8 1.2 7.9 6.9 7.6 2.5-0.1 4.1-3.9 1.4-5.1" style="fill:#fff"/><path d="m444 393c-8-1.2-16-7.8-23-12-2.3-1.4-4.8-2.4-7.3-3.4 9.4-9.8 20-17 30-4.2 1.8 2.4 11 21 0.52 19zm-98 8.7c-9.3-28 16-18 33-16 3 2.7 6.3 4.3 9.9 5.4-13 16-34 36-42 11zm106-40c-17-21-38-1.8-51 13-6.8-0.83-14-0.13-20 2.3-13-13-41-18-45 3.3-3.3 19 5.3 46 28 41 13-2.9 25-16 33-26 0.64-0.66 1.3-1.4 2-2.2 5.5 0.95 11 2 16 4.8 10 5.5 23 14 35 10 22-6.1 11-35 1.4-47" style="fill:#fff"/><path d="m489 221c-9.7-12-30-12-44-14-11-2.2-29-16-40-8.7-6.8-5.3-13 0.86-16 7.4-6 11-5.5 27 0.55 39l0.3 0.39c-1.8 2.9 0.63 7.8 5 6.8 21-4.8 42-12 64-15 7.9-1.4 25-0.88 30-8.1l0.21-0.6c1.3-1.6 1.3-4.2-0.15-6" style="fill:#fff"/><path d="m333 257c-4.8 0-8.8 4-8.8 8.8 0 4.8 4 8.8 8.8 8.8 4.8 0 8.8-4 8.8-8.8 0-4.8-4-8.8-8.8-8.8" style="fill:#fff"/><path d="m358 278c-2.5-4.2-10-5-12 0l-0.086 0.23c-2.5 5.5 1.5 12 7.9 10l0.23-0.055c4.5-1.1 6.5-6.6 4.2-10" style="fill:#fff"/><path d="m372 288-0.31 0.54c-1.6 2.7-1.4 7 1.2 9.1l0.41 0.35c2.3 1.9 5 2.9 8 2.1 3.5-0.97 6-4.3 6-7.9 0-8.2-11-11-15-4.1" style="fill:#fff"/><path d="m414 286c-3.2-1.9-6.8-1.1-9.5 1.2-0.71 0.63-1.2 1.4-1.8 2.2-2.8 3.8-0.02 10 4.6 11l0.34 0.055c4.6 0.84 8.1-1.2 9.8-5.5l0.16-0.44c1.2-3.2-0.8-7.2-3.6-8.8" style="fill:#fff"/><path d="m433 277c-3.9 1.1-6.3 5.2-5.2 9.2 1.2 4.3 5.1 5.8 9.1 5.2 3.3-0.5 5.6-4.1 5.6-7.2 0-4.9-4.8-8.5-9.4-7.2" style="fill:#fff"/><path d="m467 259c-5.5 0-8.4 5-7.6 9.9l0.13 0.77c1.3 7.4 14 7.4 15 0l0.14-0.77c0.86-4.9-2.1-9.9-7.6-9.9" style="fill:#fff"/><path d="m373 169c-0.086-0.54-0.23-1.1-0.42-1.6 0.91-2.9 0.86-6.1-0.7-9-0.5-0.92-1.2-1.8-1.9-2.5l-0.44-0.32v-0.52c-0.17-0.66-0.6-1.2-0.97-1.8-1-1.6-2-2.6-3.9-3.3-1.5-0.55-3.4-0.36-4.8 0.027-0.57 0.19-1.1 0.41-1.7 0.68 1.2-0.53 1-0.46-0.64 0.26-0.48 0.38-0.96 0.77-1.4 1.1-0.76 0.29-1.5 0.66-2.1 1.1-0.46-8e-3 -0.91-0.055-1.4 0.02-3.5 0.56-5.6 4.2-5.8 7.4-0.094 1.7 0.52 3.5 1.5 5.1 0.4 3.6 2.6 6.5 5.8 8.2 1.8 2.6 4.3 4.8 7.3 6 2.6 1 5.6 0.68 7.9-0.73 1.3-0.76 1.7-1.4 2.6-2.6-2.2 2.9 0.57-0.66 0.53-0.61 0.83-1.2 1.3-2.8 1.1-4.3 0.066-0.95-0.074-1.9-0.39-2.7" style="fill:#fff"/><path d="m444 156c-0.29-0.48-0.66-0.89-1-1.3-0.17-0.34-0.35-0.68-0.54-1-1.7-5-8.4-8.4-13-5-1.2 0.9-2.3 2.1-3.1 3.4-5.2 2.5-9 8.8-7.1 14 0.54 1.7 1.6 3.3 2.9 4.6 0.34 1.3 0.92 2.6 1.9 3.8 4.2 5.2 13 3.1 17-1.3 4.1-4.7 6.3-12 2.9-18" style="fill:#fff"/><path d="m422 471c0.27-2.7-0.86-6.6-2.4-8.8-3.3-4.9-7.8-5.5-13-4.6-4.6 0.8-8.1 3.5-10 7.1-0.63 0.68-1.2 1.4-1.8 2.2-1.8 2.4-2.4 5.9-2.3 8.8 0.18 4.8 3 7.7 6.6 10 1.6 1.2 3.8 1.3 5.8 0.67 3.8 0.82 7.9-0.15 11-3.2 1.4-1.4 2.3-3.1 2.8-4.8 2.3-1.7 3.7-4.9 4-7.8" style="fill:#fff"/><path d="m415 525c-0.63-3.7-3.7-5.9-7.3-6.6-3.3-1.2-7.2-0.8-11 2.3-0.21 0.18-0.36 0.43-0.57 0.62-1.1 0.93-2.2 2-3.1 3.3-1.7 2.2-2 5.3-1.6 8.1-0.3 5 0.94 10 3.6 13 2.4 3 6.5 3.5 10 2.8 0.75-0.14 1.4-0.46 2.1-0.81 5.5-0.23 9.2-5.8 10-11 0.86-4.2-0.12-8.7-2.2-12" style="fill:#fff"/><path d="m423 600c-0.047-0.35-0.12-0.96-0.27-2.1-0.28-1.3-0.86-2.5-1.4-3.7-0.57-1.1-1.5-2.1-2.4-3.1-0.64-0.63-0.46-0.33 0.54 0.88-0.64-0.83-1.2-1.6-1.9-2.4-2.8-2.9-7.1-4.5-11-4.3-1-0.17-2-0.36-3.1-0.38-3.5-0.086-7.1 1.3-9.7 3.6-3.5 3.2-5.4 8.4-5 13 1.1 13 13 21 25 15 5.4-2.6 9.1-9.7 9.2-15-0.027-0.54-0.12-1.1-0.2-1.6" style="fill:#fff"/><path d="m422 599c0.078 0.4 0.094 0.83 0.15 1.3 0.074 0.5 0.039 0.16-0.15-1.3" style="fill:#fff"/></g></svg>
