<?xml version="1.0" encoding="UTF-8"?>
<svg xmlns="http://www.w3.org/2000/svg" xmlns:xlink="http://www.w3.org/1999/xlink" width="810pt" height="809.999993pt" viewBox="0 0 810 809.999993" version="1.2">
<defs>
<clipPath id="clip1">
  <path d="M 389 246.175781 L 585.164062 246.175781 L 585.164062 728.675781 L 389 728.675781 Z M 389 246.175781 "/>
</clipPath>
<clipPath id="clip2">
  <path d="M 274.664062 246.175781 L 389.589844 246.175781 L 389.589844 728.675781 L 274.664062 728.675781 Z M 274.664062 246.175781 "/>
</clipPath>
<clipPath id="clip3">
  <path d="M 330 124 L 585.164062 124 L 585.164062 272 L 330 272 Z M 330 124 "/>
</clipPath>
<clipPath id="clip4">
  <path d="M 274.664062 134 L 356 134 L 356 247 L 274.664062 247 Z M 274.664062 134 "/>
</clipPath>
<clipPath id="clip5">
  <path d="M 274.664062 191 L 390 191 L 390 272 L 274.664062 272 Z M 274.664062 191 "/>
</clipPath>
<clipPath id="clip6">
  <path d="M 274.664062 134 L 356 134 L 356 247 L 274.664062 247 Z M 274.664062 134 "/>
</clipPath>
<clipPath id="clip7">
  <path d="M 274.664062 191 L 390 191 L 390 272 L 274.664062 272 Z M 274.664062 191 "/>
</clipPath>
</defs>
<g id="surface1">
<g clip-path="url(#clip1)" clip-rule="nonzero">
<path style=" stroke:none;fill-rule:nonzero;fill:rgb(83.529663%,93.728638%,98.429871%);fill-opacity:1;" d="M 389.019531 271.339844 L 389.019531 728.675781 L 585.382812 686.136719 L 585.382812 246.925781 L 389.019531 271.339844 "/>
</g>
<g clip-path="url(#clip2)" clip-rule="nonzero">
<path style=" stroke:none;fill-rule:nonzero;fill:rgb(65.879822%,79.219055%,89.7995%);fill-opacity:1;" d="M 274.664062 246.925781 L 389.019531 271.339844 L 389.019531 728.675781 L 274.664062 679.042969 L 274.664062 246.925781 "/>
</g>
<g clip-path="url(#clip3)" clip-rule="nonzero">
<path style=" stroke:none;fill-rule:nonzero;fill:rgb(91.369629%,96.469116%,99.21875%);fill-opacity:1;" d="M 585.382812 246.925781 L 514.863281 124.761719 L 330.824219 134.910156 L 389.019531 271.339844 L 585.382812 246.925781 "/>
</g>
<path style=" stroke:none;fill-rule:nonzero;fill:rgb(85.099792%,92.939758%,97.648621%);fill-opacity:1;" d="M 457.613281 238.785156 C 454.195312 238.785156 450.839844 238.214844 447.9375 237.097656 C 437.882812 233.242188 429.917969 225.503906 425.445312 215.671875 C 420.558594 204.929688 417.304688 192.339844 420.117188 180.578125 C 421.722656 173.894531 425.25 165.609375 431.320312 161.886719 C 431.234375 162.03125 431.152344 162.183594 431.0625 162.328125 C 431.03125 162.265625 430.960938 162.226562 430.890625 162.226562 C 430.820312 162.226562 430.746094 162.257812 430.714844 162.339844 C 430.367188 163.191406 430.03125 164.03125 429.726562 164.878906 C 429.292969 165.566406 428.945312 166.808594 428.578125 168.164062 C 428.25 169.277344 427.96875 170.425781 427.75 171.613281 C 424.800781 184.789062 427.4375 197.519531 434.90625 209.929688 C 439.160156 216.992188 445.242188 222.601562 451.828125 227.449219 C 456.847656 231.148438 463.125 234.789062 469.542969 234.789062 C 470.300781 234.789062 471.058594 234.738281 471.820312 234.632812 C 471.972656 234.613281 472.097656 234.554688 472.1875 234.472656 C 472.28125 234.472656 472.382812 234.480469 472.484375 234.480469 C 472.832031 234.480469 473.179688 234.464844 473.519531 234.453125 C 472.003906 235.558594 470.238281 236.316406 468.308594 236.777344 C 465.003906 238.128906 461.273438 238.785156 457.613281 238.785156 "/>
<g clip-path="url(#clip4)" clip-rule="nonzero">
<path style=" stroke:none;fill-rule:nonzero;fill:rgb(58.81958%,74.899292%,90.589905%);fill-opacity:1;" d="M 330.824219 134.910156 L 274.664062 246.925781 L 355.167969 191.984375 L 330.824219 134.910156 "/>
</g>
<g clip-path="url(#clip5)" clip-rule="nonzero">
<path style=" stroke:none;fill-rule:nonzero;fill:rgb(74.119568%,87.838745%,96.469116%);fill-opacity:1;" d="M 389.019531 271.339844 L 355.167969 191.984375 L 274.664062 246.925781 L 389.019531 271.339844 "/>
</g>
<path style=" stroke:none;fill-rule:nonzero;fill:rgb(83.529663%,93.728638%,98.429871%);fill-opacity:1;" d="M 333.386719 134.910156 L 333.386719 89.683594 L 513.183594 81.378906 L 514.863281 124.761719 L 333.386719 134.910156 "/>
<path style=" stroke:none;fill-rule:nonzero;fill:rgb(82.348633%,87.449646%,88.62915%);fill-opacity:1;" d="M 502.625 220.570312 L 498.84375 222.726562 L 492.40625 226.394531 L 482.898438 231.824219 C 477.789062 234.726562 471.761719 235.15625 465.554688 233.558594 C 454.550781 230.679688 443.039062 221.320312 435.242188 207.664062 C 432.085938 202.109375 429.855469 196.382812 428.539062 190.835938 L 428.527344 190.796875 C 424.789062 174.9375 428.40625 160.34375 438.882812 154.425781 L 458.605469 143.171875 C 456.125 145.46875 450.441406 151.199219 449.113281 154.601562 C 447.496094 158.703125 446.722656 163.496094 446.863281 168.621094 C 446.84375 169.167969 446.875 169.730469 446.90625 170.285156 C 447.152344 174.796875 448.050781 179.519531 449.644531 184.308594 C 449.808594 184.867188 450.019531 185.433594 450.203125 185.984375 C 451.429688 189.472656 453.019531 192.957031 454.988281 196.402344 C 459.949219 205.101562 466.425781 212.0625 473.304688 216.710938 C 479.816406 221.085938 486.671875 223.402344 492.996094 223.1875 C 495.214844 223.132812 497.355469 222.738281 499.394531 222.019531 C 500.492188 221.660156 501.59375 221.164062 502.625 220.570312 "/>
<path style=" stroke:none;fill-rule:nonzero;fill:rgb(100%,100%,100%);fill-opacity:1;" d="M 502.625 220.5625 C 499.675781 222.234375 496.402344 223.085938 492.996094 223.183594 C 486.671875 223.390625 479.8125 221.082031 473.296875 216.699219 C 466.425781 212.054688 459.949219 205.09375 454.988281 196.390625 C 450.019531 187.691406 447.34375 178.574219 446.90625 170.28125 C 446.570312 164.523438 447.332031 159.144531 449.113281 154.597656 C 450.433594 151.195312 452.34375 148.253906 454.828125 145.957031 L 458.605469 143.164062 C 472.761719 135.125 494.089844 145.957031 506.246094 167.332031 C 518.398438 188.691406 516.78125 212.523438 502.625 220.5625 "/>
<path style=" stroke:none;fill-rule:nonzero;fill:rgb(65.879822%,79.219055%,89.7995%);fill-opacity:1;" d="M 330.824219 134.910156 L 333.386719 134.910156 L 333.386719 89.6875 L 330.824219 89.6875 Z M 330.824219 134.910156 "/>
<path style=" stroke:none;fill-rule:nonzero;fill:rgb(65.879822%,79.219055%,89.7995%);fill-opacity:1;" d="M 389.019531 271.339844 L 333.386719 134.910156 L 330.824219 134.910156 L 389.019531 271.339844 "/>
<path style=" stroke:none;fill-rule:nonzero;fill:rgb(92.549133%,95.689392%,97.648621%);fill-opacity:1;" d="M 389.003906 271.304688 L 383.5 258.398438 L 383.988281 259.542969 L 389.003906 271.304688 M 313.058594 170.335938 L 330.820312 134.902344 L 330.820312 134.910156 L 313.058594 170.335938 "/>
<path style=" stroke:none;fill-rule:nonzero;fill:rgb(85.099792%,92.939758%,97.648621%);fill-opacity:1;" d="M 389.015625 271.324219 L 389.007812 271.3125 L 388.964844 271.210938 L 389.015625 271.324219 "/>
<g clip-path="url(#clip6)" clip-rule="nonzero">
<path style=" stroke:none;fill-rule:nonzero;fill:rgb(55.288696%,71.759033%,89.408875%);fill-opacity:1;" d="M 274.683594 246.914062 L 313.058594 170.335938 L 330.824219 134.910156 L 355.164062 191.992188 L 274.683594 246.914062 "/>
</g>
<g clip-path="url(#clip7)" clip-rule="nonzero">
<path style=" stroke:none;fill-rule:nonzero;fill:rgb(69.40918%,83.918762%,94.898987%);fill-opacity:1;" d="M 389.003906 271.304688 L 362.472656 220.554688 L 274.679688 246.925781 L 274.683594 246.914062 L 355.164062 191.992188 L 366.789062 219.257812 L 383.5 258.398438 L 389.003906 271.304688 "/>
</g>
<path style=" stroke:none;fill-rule:nonzero;fill:rgb(61.959839%,76.078796%,88.62915%);fill-opacity:1;" d="M 389.007812 271.3125 L 389.003906 271.304688 L 383.988281 259.542969 L 388.964844 271.210938 L 389.007812 271.3125 "/>
<path style=" stroke:none;fill-rule:nonzero;fill:rgb(72.158813%,83.139038%,85.099792%);fill-opacity:1;" d="M 482.054688 223.625 C 478.8125 223.824219 475.46875 223.347656 472.515625 222.097656 C 468.457031 220.375 463.980469 217.597656 459.421875 219.191406 C 457.664062 225.171875 464.605469 228.261719 465.433594 233.445312 C 452.484375 231.070312 441.398438 218.484375 435.242188 207.664062 C 432.085938 202.109375 429.855469 196.382812 428.527344 190.796875 C 426.988281 184.324219 426.832031 174.628906 428.578125 168.171875 C 429.40625 165.105469 430.140625 162.609375 431.972656 165.796875 C 433.304688 168.109375 432.675781 179.691406 437.246094 179.167969 C 441.640625 178.660156 441.179688 170.53125 441.511719 167.472656 C 442.027344 162.738281 443.164062 157.082031 447.148438 153.933594 C 448.828125 155.914062 447.550781 159.429688 447.179688 161.652344 C 446.804688 163.898438 446.699219 166.324219 446.863281 168.621094 C 447.21875 173.871094 448.089844 179.273438 449.644531 184.308594 C 449.808594 184.867188 450.019531 185.433594 450.203125 185.984375 C 451.429688 189.472656 453.019531 192.957031 454.988281 196.402344 C 458.605469 202.765625 463.265625 208.53125 468.828125 213.304688 C 471.242188 215.382812 474.355469 216.996094 476.910156 218.878906 C 478.292969 219.898438 479.980469 220.019531 481.5 220.746094 C 481.734375 220.851562 484.832031 223.28125 484.199219 223.382812 C 483.492188 223.496094 482.777344 223.574219 482.054688 223.625 "/>
<path style=" stroke:none;fill-rule:nonzero;fill:rgb(67.449951%,80.778503%,91.758728%);fill-opacity:1;" d="M 469.542969 234.789062 C 463.125 234.789062 456.847656 231.148438 451.828125 227.449219 C 445.242188 222.601562 439.160156 216.992188 434.90625 209.929688 C 427.4375 197.519531 424.800781 184.789062 427.75 171.613281 C 426.679688 177.324219 426.914062 183.855469 428.488281 190.621094 C 428.5 190.679688 428.515625 190.734375 428.527344 190.796875 L 428.539062 190.835938 C 429.816406 196.230469 431.964844 201.800781 434.980469 207.207031 C 435.0625 207.359375 435.152344 207.511719 435.242188 207.664062 C 441.234375 218.207031 451.914062 230.421875 464.433594 233.242188 C 464.808594 233.355469 465.179688 233.457031 465.554688 233.558594 C 467.796875 234.136719 470.015625 234.449219 472.1875 234.472656 C 472.097656 234.554688 471.972656 234.613281 471.820312 234.632812 C 471.058594 234.738281 470.300781 234.789062 469.542969 234.789062 "/>
<path style=" stroke:none;fill-rule:nonzero;fill:rgb(65.879822%,76.858521%,83.529663%);fill-opacity:1;" d="M 472.1875 234.472656 C 470.015625 234.449219 467.796875 234.136719 465.554688 233.558594 C 465.179688 233.457031 464.808594 233.355469 464.433594 233.242188 C 464.769531 233.316406 465.097656 233.386719 465.433594 233.445312 C 465.324219 232.78125 465.125 232.152344 464.84375 231.542969 C 467.070312 232.269531 469.359375 232.824219 471.707031 233.179688 C 472.335938 233.273438 472.597656 234.113281 472.1875 234.472656 M 434.980469 207.207031 C 431.964844 201.800781 429.816406 196.230469 428.539062 190.835938 L 428.527344 190.796875 C 429.816406 196.230469 431.964844 201.800781 434.980469 207.207031 M 428.488281 190.621094 C 426.914062 183.855469 426.679688 177.324219 427.75 171.613281 C 427.886719 170.980469 428.039062 170.355469 428.203125 169.722656 C 426.875 176.042969 427.105469 184.652344 428.488281 190.621094 "/>
<path style=" stroke:none;fill-rule:nonzero;fill:rgb(67.449951%,80.778503%,91.758728%);fill-opacity:1;" d="M 429.726562 164.878906 C 430.03125 164.03125 430.367188 163.191406 430.714844 162.339844 C 430.746094 162.257812 430.820312 162.226562 430.890625 162.226562 C 430.960938 162.226562 431.03125 162.265625 431.0625 162.328125 C 430.632812 163.078125 430.234375 163.859375 429.875 164.675781 C 429.824219 164.730469 429.773438 164.800781 429.726562 164.878906 "/>
<path style=" stroke:none;fill-rule:nonzero;fill:rgb(65.879822%,76.858521%,83.529663%);fill-opacity:1;" d="M 429.875 164.675781 C 430.234375 163.859375 430.632812 163.078125 431.0625 162.328125 C 431.082031 162.363281 431.082031 162.410156 431.0625 162.460938 C 430.828125 163.070312 430.605469 163.695312 430.398438 164.320312 C 430.207031 164.347656 430.03125 164.472656 429.875 164.675781 "/>
<path style=" stroke:none;fill-rule:nonzero;fill:rgb(58.428955%,72.549438%,81.17981%);fill-opacity:1;" d="M 465.433594 233.445312 C 465.097656 233.386719 464.769531 233.316406 464.433594 233.242188 C 451.914062 230.421875 441.234375 218.207031 435.242188 207.664062 C 435.152344 207.511719 435.0625 207.359375 434.980469 207.207031 C 431.964844 201.800781 429.816406 196.230469 428.527344 190.796875 C 428.515625 190.734375 428.5 190.679688 428.488281 190.621094 C 427.105469 184.652344 426.875 176.042969 428.203125 169.722656 C 428.628906 168.113281 429.132812 166.5 429.726562 164.878906 C 429.773438 164.800781 429.824219 164.730469 429.875 164.675781 C 430.03125 164.472656 430.207031 164.347656 430.398438 164.320312 C 421.875 190.167969 438.769531 223.003906 464.84375 231.542969 C 465.125 232.152344 465.324219 232.78125 465.433594 233.445312 "/>
<path style=" stroke:none;fill-rule:nonzero;fill:rgb(92.549133%,95.289612%,97.24884%);fill-opacity:1;" d="M 495.523438 211.601562 C 495.066406 211.601562 494.867188 211.070312 495.257812 210.773438 C 498.628906 208.199219 502.238281 206.25 503.558594 201.875 C 504.550781 198.625 504.632812 195.179688 504.015625 191.839844 C 502.707031 184.796875 499.886719 178.117188 496.660156 171.742188 C 492.894531 164.304688 488.746094 156.804688 480.828125 153.042969 C 477.371094 151.410156 473.640625 150.472656 470.097656 150.472656 C 463.78125 150.472656 458.074219 153.433594 455.632812 160.605469 C 455.601562 160.699219 455.53125 160.738281 455.460938 160.738281 C 455.359375 160.738281 455.253906 160.640625 455.273438 160.507812 C 456.453125 151.835938 464.226562 148.386719 472.136719 148.386719 C 473.332031 148.386719 474.539062 148.460938 475.71875 148.613281 C 486.589844 150.019531 493.511719 159.296875 498.203125 168.261719 C 502.445312 176.363281 506.972656 185.539062 507.082031 194.882812 C 507.164062 202.140625 503.773438 210.488281 495.613281 211.59375 C 495.582031 211.601562 495.554688 211.601562 495.523438 211.601562 "/>
</g>
</svg>
