<?xml version="1.0" encoding="UTF-8"?>
<svg xmlns="http://www.w3.org/2000/svg" xmlns:xlink="http://www.w3.org/1999/xlink" width="810pt" height="809.999993pt" viewBox="0 0 810 809.999993" version="1.2">
<defs>
<clipPath id="clip1">
  <path d="M 391 276 L 748 276 L 748 662 L 391 662 Z M 391 276 "/>
</clipPath>
<clipPath id="clip2">
  <path d="M 290.09375 168.035156 L 644.203125 95.320312 L 760.367188 661.015625 L 406.257812 733.730469 Z M 290.09375 168.035156 "/>
</clipPath>
<clipPath id="clip3">
  <path d="M 290.09375 168.035156 L 644.203125 95.320312 L 760.367188 661.015625 L 406.257812 733.730469 Z M 290.09375 168.035156 "/>
</clipPath>
<clipPath id="clip4">
  <path d="M 319.203125 309.152344 L 673.625 236.371094 L 748.746094 602.210938 L 394.328125 674.992188 Z M 319.203125 309.152344 "/>
</clipPath>
<clipPath id="clip5">
  <path d="M 319.203125 309.152344 L 673.058594 236.488281 L 748.183594 602.328125 L 394.328125 674.992188 Z M 319.203125 309.152344 "/>
</clipPath>
<clipPath id="clip6">
  <path d="M 408 369 L 743 369 L 743 698 L 408 698 Z M 408 369 "/>
</clipPath>
<clipPath id="clip7">
  <path d="M 290.09375 168.035156 L 644.203125 95.320312 L 760.367188 661.015625 L 406.257812 733.730469 Z M 290.09375 168.035156 "/>
</clipPath>
<clipPath id="clip8">
  <path d="M 290.09375 168.035156 L 644.203125 95.320312 L 760.367188 661.015625 L 406.257812 733.730469 Z M 290.09375 168.035156 "/>
</clipPath>
<clipPath id="clip9">
  <path d="M 450 383 L 587 383 L 587 632 L 450 632 Z M 450 383 "/>
</clipPath>
<clipPath id="clip10">
  <path d="M 290.09375 168.035156 L 644.203125 95.320312 L 760.367188 661.015625 L 406.257812 733.730469 Z M 290.09375 168.035156 "/>
</clipPath>
<clipPath id="clip11">
  <path d="M 290.09375 168.035156 L 644.203125 95.320312 L 760.367188 661.015625 L 406.257812 733.730469 Z M 290.09375 168.035156 "/>
</clipPath>
<clipPath id="clip12">
  <path d="M 444 378 L 715 378 L 715 626 L 444 626 Z M 444 378 "/>
</clipPath>
<clipPath id="clip13">
  <path d="M 290.09375 168.035156 L 644.203125 95.320312 L 760.367188 661.015625 L 406.257812 733.730469 Z M 290.09375 168.035156 "/>
</clipPath>
<clipPath id="clip14">
  <path d="M 290.09375 168.035156 L 644.203125 95.320312 L 760.367188 661.015625 L 406.257812 733.730469 Z M 290.09375 168.035156 "/>
</clipPath>
<clipPath id="clip15">
  <path d="M 358 133 L 737 133 L 737 595 L 358 595 Z M 358 133 "/>
</clipPath>
<clipPath id="clip16">
  <path d="M 290.09375 168.035156 L 644.203125 95.320312 L 760.367188 661.015625 L 406.257812 733.730469 Z M 290.09375 168.035156 "/>
</clipPath>
<clipPath id="clip17">
  <path d="M 290.09375 168.035156 L 644.203125 95.320312 L 760.367188 661.015625 L 406.257812 733.730469 Z M 290.09375 168.035156 "/>
</clipPath>
<clipPath id="clip18">
  <path d="M 663 655 L 790.863281 655 L 790.863281 783.105469 L 663 783.105469 Z M 663 655 "/>
</clipPath>
<clipPath id="clip19">
  <path d="M 363.363281 603 L 434 603 L 434 629 L 363.363281 629 Z M 363.363281 603 "/>
</clipPath>
<clipPath id="clip20">
  <path d="M 369 646 L 507 646 L 507 783.105469 L 369 783.105469 Z M 369 646 "/>
</clipPath>
<clipPath id="clip21">
  <path d="M 600 444.105469 L 622 444.105469 L 622 486 L 600 486 Z M 600 444.105469 "/>
</clipPath>
<clipPath id="clip22">
  <path d="M 389 276 L 574 276 L 574 662 L 389 662 Z M 389 276 "/>
</clipPath>
<clipPath id="clip23">
  <path d="M 288.019531 168.035156 L 457.730469 133.1875 L 573.890625 698.882812 L 404.183594 733.730469 Z M 288.019531 168.035156 "/>
</clipPath>
<clipPath id="clip24">
  <path d="M 288.019531 168.035156 L 642.132812 95.320312 L 758.292969 661.015625 L 404.183594 733.730469 Z M 288.019531 168.035156 "/>
</clipPath>
<clipPath id="clip25">
  <path d="M 317.128906 309.152344 L 671.550781 236.371094 L 746.675781 602.210938 L 392.253906 674.992188 Z M 317.128906 309.152344 "/>
</clipPath>
<clipPath id="clip26">
  <path d="M 317.128906 309.152344 L 670.988281 236.488281 L 746.109375 602.328125 L 392.253906 674.992188 Z M 317.128906 309.152344 "/>
</clipPath>
<clipPath id="clip27">
  <path d="M 406 369 L 574 369 L 574 698 L 406 698 Z M 406 369 "/>
</clipPath>
<clipPath id="clip28">
  <path d="M 288.019531 168.035156 L 457.730469 133.1875 L 573.890625 698.882812 L 404.183594 733.730469 Z M 288.019531 168.035156 "/>
</clipPath>
<clipPath id="clip29">
  <path d="M 288.019531 168.035156 L 642.132812 95.320312 L 758.292969 661.015625 L 404.183594 733.730469 Z M 288.019531 168.035156 "/>
</clipPath>
<clipPath id="clip30">
  <path d="M 448 383 L 574 383 L 574 632 L 448 632 Z M 448 383 "/>
</clipPath>
<clipPath id="clip31">
  <path d="M 288.019531 168.035156 L 457.730469 133.1875 L 573.890625 698.882812 L 404.183594 733.730469 Z M 288.019531 168.035156 "/>
</clipPath>
<clipPath id="clip32">
  <path d="M 288.019531 168.035156 L 642.132812 95.320312 L 758.292969 661.015625 L 404.183594 733.730469 Z M 288.019531 168.035156 "/>
</clipPath>
<clipPath id="clip33">
  <path d="M 441 378 L 574 378 L 574 626 L 441 626 Z M 441 378 "/>
</clipPath>
<clipPath id="clip34">
  <path d="M 288.019531 168.035156 L 457.730469 133.1875 L 573.890625 698.882812 L 404.183594 733.730469 Z M 288.019531 168.035156 "/>
</clipPath>
<clipPath id="clip35">
  <path d="M 288.019531 168.035156 L 642.132812 95.320312 L 758.292969 661.015625 L 404.183594 733.730469 Z M 288.019531 168.035156 "/>
</clipPath>
<clipPath id="clip36">
  <path d="M 356 133 L 574 133 L 574 595 L 356 595 Z M 356 133 "/>
</clipPath>
<clipPath id="clip37">
  <path d="M 288.019531 168.035156 L 457.730469 133.1875 L 573.890625 698.882812 L 404.183594 733.730469 Z M 288.019531 168.035156 "/>
</clipPath>
<clipPath id="clip38">
  <path d="M 288.019531 168.035156 L 642.132812 95.320312 L 758.292969 661.015625 L 404.183594 733.730469 Z M 288.019531 168.035156 "/>
</clipPath>
<clipPath id="clip39">
  <path d="M 113 562.257812 L 344 562.257812 L 344 674 L 113 674 Z M 113 562.257812 "/>
</clipPath>
</defs>
<g id="surface1">
<g clip-path="url(#clip1)" clip-rule="nonzero">
<g clip-path="url(#clip2)" clip-rule="nonzero">
<g clip-path="url(#clip3)" clip-rule="nonzero">
<g clip-path="url(#clip4)" clip-rule="nonzero">
<g clip-path="url(#clip5)" clip-rule="nonzero">
<path style=" stroke:none;fill-rule:nonzero;fill:rgb(0%,50.19989%,21.569824%);fill-opacity:1;" d="M 743.847656 601.828125 C 624.90625 609.4375 509.699219 645.59375 391.644531 661.925781 C 399.304688 623.5 406.960938 585.070312 414.621094 546.640625 C 420.613281 516.546875 426.617188 486.421875 434.804688 456.851562 C 440.46875 436.402344 447.183594 416.195312 451.421875 395.402344 C 455.523438 375.296875 457.296875 354.765625 461.992188 334.785156 C 466.515625 315.570312 478.316406 294.5625 485.476562 276.160156 C 510.6875 295.929688 530.53125 322.734375 551.890625 346.613281 C 564.886719 361.148438 577.109375 376.382812 590.683594 390.367188 C 600.007812 399.960938 609.933594 408.945312 619.429688 418.351562 C 639.984375 438.726562 658.457031 461.078125 676.480469 483.714844 C 704.800781 519.261719 748.949219 598.488281 747.757812 600.542969 C 746.558594 602.613281 743.945312 604.210938 743.847656 601.828125 "/>
</g>
</g>
</g>
</g>
</g>
<g clip-path="url(#clip6)" clip-rule="nonzero">
<g clip-path="url(#clip7)" clip-rule="nonzero">
<g clip-path="url(#clip8)" clip-rule="nonzero">
<path style=" stroke:none;fill-rule:nonzero;fill:rgb(1.568604%,23.919678%,14.509583%);fill-opacity:1;" d="M 742.921875 589.875 C 740.84375 585.890625 738.1875 580.976562 735.066406 575.402344 C 734.582031 575.277344 734.101562 575.164062 733.625 575.074219 C 724.539062 573.445312 715.242188 573.730469 706.023438 574.023438 C 688.925781 574.570312 671.828125 575.113281 654.71875 575.664062 C 640.953125 576.101562 627.171875 576.53125 613.441406 577.726562 C 582.480469 580.421875 551.238281 586.957031 520.617188 581.664062 C 514.40625 580.585938 508.253906 579.039062 501.957031 578.683594 C 495.261719 578.316406 488.578125 579.3125 481.878906 579.746094 C 467.832031 580.679688 453.617188 579.101562 440.101562 575.132812 C 430.335938 572.269531 420.316406 568.136719 410.378906 567.90625 C 409.632812 571.648438 408.890625 575.390625 408.140625 579.132812 C 410.726562 583.121094 415.011719 585.78125 419.136719 588.242188 C 428.953125 594.085938 439.035156 600.042969 450.273438 602.113281 C 465.128906 604.839844 480.289062 600.511719 495.386719 600.050781 C 505.503906 599.738281 515.585938 601.171875 525.671875 602.101562 C 570.339844 606.191406 615.34375 600.269531 660.160156 601.878906 C 679.332031 602.554688 698.671875 604.609375 717.597656 601.523438 C 726.683594 600.046875 736.011719 597.132812 742.386719 590.492188 C 742.570312 590.289062 742.75 590.074219 742.921875 589.875 Z M 546.746094 505.261719 C 552.996094 505.339844 559.246094 505.410156 565.507812 505.429688 C 590.3125 505.527344 615.222656 504.824219 639.695312 500.789062 C 652.179688 498.730469 665.925781 494.824219 672.226562 483.847656 C 672.855469 482.742188 673.367188 481.554688 673.769531 480.316406 C 668.878906 474.203125 663.9375 468.121094 658.933594 462.089844 C 658.042969 462.210938 657.160156 462.394531 656.308594 462.640625 C 651.53125 464.007812 647.308594 466.757812 642.96875 469.167969 C 620.347656 481.660156 593.949219 484.871094 568.285156 487.855469 C 559.496094 488.886719 550.671875 489.910156 541.835938 489.558594 C 534.511719 489.273438 527.246094 488.035156 519.964844 487.175781 C 505.488281 485.488281 490.503906 485.203125 477.144531 479.378906 C 468.285156 475.511719 459.6875 469.171875 450.082031 470.203125 C 446.894531 470.539062 443.820312 471.710938 440.613281 471.828125 C 438.703125 471.902344 434.925781 469.65625 431.652344 468.691406 C 430.710938 472.34375 429.796875 476.003906 428.910156 479.667969 C 429.519531 480.34375 430.152344 480.976562 430.78125 481.601562 C 435.949219 486.648438 441.28125 491.648438 447.582031 495.203125 C 453.652344 498.617188 460.445312 500.574219 467.292969 501.886719 C 480.769531 504.476562 494.578125 504.640625 508.292969 504.8125 C 521.109375 504.957031 533.929688 505.113281 546.746094 505.261719 Z M 561.949219 392.605469 C 571.058594 393.148438 580.546875 392.386719 588.644531 388.21875 C 585.644531 385.070312 582.695312 381.875 579.792969 378.632812 C 579.210938 378.613281 578.644531 378.597656 578.078125 378.585938 C 557.101562 378.222656 536.125 377.867188 515.148438 377.515625 C 510.296875 377.429688 505.40625 377.339844 500.683594 376.214844 C 495.082031 374.894531 489.898438 372.15625 484.300781 370.847656 C 478.332031 369.449219 472.1875 369.769531 466.167969 370.652344 C 463.472656 371.042969 458.617188 371.003906 455.410156 372.167969 C 454.757812 376.433594 454.078125 380.691406 453.351562 384.933594 C 457.449219 388.964844 464.503906 391.988281 468.097656 392.53125 C 489.695312 395.851562 511.585938 388.875 533.414062 389.757812 C 542.960938 390.140625 552.398438 392.039062 561.949219 392.605469 Z M 588.925781 624.238281 C 596.871094 645.859375 603.765625 667.863281 609.535156 690.164062 C 596.507812 694.605469 569.503906 698.066406 555.734375 697.976562 C 554.664062 678.15625 553.582031 658.351562 552.492188 638.546875 C 552.398438 636.660156 552.09375 634.355469 551.730469 631.855469 C 564.128906 629.273438 576.519531 626.714844 588.925781 624.238281 "/>
</g>
</g>
</g>
<g clip-path="url(#clip9)" clip-rule="nonzero">
<g clip-path="url(#clip10)" clip-rule="nonzero">
<g clip-path="url(#clip11)" clip-rule="nonzero">
<path style=" stroke:none;fill-rule:nonzero;fill:rgb(100%,100%,100%);fill-opacity:1;" d="M 552.484375 621.71875 C 554.210938 624.058594 556.480469 625.949219 558.851562 627.636719 C 561.015625 629.183594 563.347656 630.632812 565.957031 631.132812 C 568.148438 631.542969 570.398438 631.269531 572.558594 630.742188 C 575.105469 630.136719 577.605469 629.1875 579.707031 627.628906 C 584.613281 623.972656 586.613281 617.382812 586.261719 611.265625 C 585.65625 600.515625 574.878906 589.691406 563.527344 592.941406 C 551.496094 596.386719 544.796875 611.261719 552.484375 621.71875 Z M 455.578125 518.625 C 460.652344 523.855469 469.035156 524.265625 476.085938 522.417969 C 478.714844 521.734375 481.367188 520.734375 483.273438 518.800781 C 493.371094 508.5 484.28125 486.359375 469.972656 486.371094 C 454.8125 486.375 444.464844 507.140625 455.578125 518.625 Z M 546.933594 383.722656 C 553.1875 384.898438 558.261719 388.65625 559.355469 395.128906 C 561.328125 406.84375 552.648438 414.640625 541.613281 415.960938 C 538.378906 416.355469 534.914062 415.75 532.382812 413.691406 C 518.511719 402.386719 530.558594 380.636719 546.933594 383.722656 "/>
</g>
</g>
</g>
<g clip-path="url(#clip12)" clip-rule="nonzero">
<g clip-path="url(#clip13)" clip-rule="nonzero">
<g clip-path="url(#clip14)" clip-rule="nonzero">
<path style=" stroke:none;fill-rule:nonzero;fill:rgb(78.819275%,29.40979%,35.289001%);fill-opacity:1;" d="M 681.78125 613.042969 C 681.984375 614.839844 682.328125 616.675781 683.328125 618.164062 C 684.242188 619.539062 685.65625 620.511719 687.074219 621.359375 C 691.480469 624.019531 696.558594 625.953125 701.703125 625.511719 C 706.832031 625.058594 711.933594 621.773438 713.351562 616.8125 C 716.246094 606.675781 712.402344 589.445312 699.886719 588.605469 C 686.445312 587.691406 680.484375 601.636719 681.78125 613.042969 Z M 444.398438 608.046875 C 444.90625 610.285156 445.859375 612.40625 446.914062 614.464844 C 447.578125 615.761719 448.308594 617.070312 449.363281 618.089844 C 451.113281 619.789062 453.589844 620.503906 456.007812 620.808594 C 462.199219 621.574219 468.664062 619.824219 473.625 616.039062 C 474.910156 615.066406 476.117188 613.9375 476.898438 612.519531 C 478.363281 609.910156 478.214844 606.695312 477.550781 603.78125 C 475.785156 596.0625 469.53125 585.507812 460.382812 586.230469 C 450.039062 587.050781 442.136719 598.121094 444.398438 608.046875 Z M 640.605469 516.664062 C 643.359375 517.308594 646.246094 517.210938 649.066406 516.855469 C 658.230469 515.714844 665 510.878906 665.109375 501.101562 C 665.199219 494.089844 662.757812 487.0625 656.554688 483.324219 C 645.222656 476.496094 629.625 483.640625 627.855469 496.851562 C 626.738281 505.273438 632.050781 514.65625 640.605469 516.664062 Z M 540.867188 505.503906 C 539.496094 510.808594 541.480469 516.683594 545.355469 520.546875 C 549.230469 524.414062 554.792969 526.355469 560.261719 526.394531 C 562.132812 526.410156 564.023438 526.210938 565.761719 525.523438 C 569.417969 524.078125 571.984375 520.589844 573.078125 516.808594 C 574.175781 513.042969 573.960938 509.015625 573.335938 505.128906 C 572.191406 497.953125 567.609375 489.371094 559.164062 490.296875 C 551.9375 491.085938 542.660156 498.542969 540.867188 505.503906 Z M 465.15625 386.628906 C 469.378906 379.984375 480.488281 375.03125 487.382812 380.710938 C 496.476562 388.210938 492.339844 406.277344 481.6875 410.015625 C 476.386719 411.882812 470.105469 410.558594 466.011719 406.71875 C 460.78125 401.824219 461.558594 392.308594 465.15625 386.628906 "/>
</g>
</g>
</g>
<g clip-path="url(#clip15)" clip-rule="nonzero">
<g clip-path="url(#clip16)" clip-rule="nonzero">
<g clip-path="url(#clip17)" clip-rule="nonzero">
<path style=" stroke:none;fill-rule:nonzero;fill:rgb(94.898987%,79.219055%,35.688782%);fill-opacity:1;" d="M 426.125 553.644531 C 422.703125 550.289062 418.738281 540.230469 413.664062 541.800781 C 407.703125 543.648438 406.410156 554.433594 407.550781 559.285156 C 409.234375 566.46875 414.820312 572.253906 421.25 575.851562 C 427.6875 579.460938 434.972656 581.199219 442.160156 582.855469 C 465.179688 588.175781 488.40625 593.070312 511.996094 594.449219 C 558.371094 597.164062 604.632812 586.207031 651.078125 587.484375 C 666.515625 587.914062 681.984375 589.691406 697.390625 588.585938 C 712.808594 587.480469 744.398438 584.523438 734.441406 571.953125 C 705.082031 561.648438 678.648438 560.664062 648.230469 567.203125 C 638.394531 569.316406 553.816406 569.609375 521.136719 569.484375 C 501.726562 569.410156 482.230469 572.648438 462.984375 570.128906 C 449.605469 568.382812 435.894531 563.21875 426.125 553.644531 Z M 442.027344 449.050781 C 430.074219 441.078125 425.371094 458.753906 430.308594 467.660156 C 434.238281 474.75 441.292969 479.691406 448.859375 482.574219 C 456.429688 485.457031 464.550781 486.496094 472.597656 487.40625 C 513.144531 491.953125 554.035156 493.511719 594.816406 492.09375 C 600.925781 491.875 607.042969 491.59375 613.105469 490.9375 C 620.894531 490.082031 628.621094 488.585938 636.167969 486.496094 C 643.535156 484.441406 651.097656 481.574219 655.96875 475.6875 C 660.855469 469.800781 661.875 460.117188 656.304688 454.871094 C 655.777344 454.371094 655.152344 453.898438 654.417969 453.871094 C 653.566406 453.847656 652.828125 454.433594 652.160156 454.972656 C 638.910156 465.765625 622.039062 471.019531 605.296875 474.394531 C 598.011719 475.859375 590.640625 477.019531 583.210938 476.941406 C 574.078125 476.863281 565.097656 474.933594 556.046875 473.71875 C 531.019531 470.363281 505.253906 472.464844 480.71875 466.464844 C 466.785156 463.054688 453.933594 456.984375 442.035156 449.050781 Z M 468.839844 357.773438 C 465.863281 356.324219 461.390625 352.535156 458.015625 352.546875 C 450.199219 352.574219 449.996094 364.9375 452.570312 369.902344 C 455.503906 375.597656 461.703125 379.101562 468.042969 380 C 472.777344 380.664062 477.601562 380.046875 482.386719 379.855469 C 498.582031 379.222656 514.53125 383.5625 530.660156 385.167969 C 543.421875 386.429688 556.316406 385.972656 569.089844 384.820312 C 573.976562 384.382812 579.925781 382.9375 581.097656 378.175781 C 582.175781 373.847656 578.074219 369.691406 573.730469 368.699219 C 569.382812 367.699219 564.871094 368.8125 560.4375 369.265625 C 546.230469 370.722656 532.261719 365.304688 518.019531 364.113281 C 505.691406 363.089844 493.070312 365.210938 481.046875 362.324219 C 476.800781 361.304688 472.75 359.675781 468.839844 357.773438 Z M 422.589844 324.070312 C 425.292969 326.105469 426.769531 320.328125 427.710938 318.3125 C 431.222656 310.753906 433.542969 302.664062 437.640625 295.375 C 438.46875 293.898438 439.398438 292.246094 438.957031 290.609375 C 437.050781 291.117188 436.0625 293.179688 435.269531 295 C 432.34375 301.722656 428.691406 308.097656 425.050781 314.457031 C 423.894531 316.472656 419.5 321.738281 422.589844 324.070312 Z M 553.210938 290.503906 C 556.910156 294.605469 561.453125 297.933594 564.800781 302.328125 C 565.367188 303.070312 565.945312 303.894531 566.832031 304.195312 C 567.714844 304.496094 568.941406 303.925781 568.878906 302.996094 C 563.179688 298.554688 558.296875 293.167969 553.683594 287.609375 C 551.320312 284.75 545.992188 276.492188 542.164062 276.804688 C 543.730469 281.015625 549.988281 286.953125 553.210938 290.503906 Z M 433.640625 210.042969 C 435.644531 207.933594 430.304688 206.054688 428.785156 205.578125 C 420.886719 203.09375 413.003906 200.613281 405.113281 198.128906 C 405.199219 198.859375 405.28125 199.597656 405.367188 200.328125 C 411.378906 202.585938 417.386719 204.847656 423.40625 207.109375 C 424.871094 207.660156 432.054688 211.707031 433.640625 210.042969 Z M 515.417969 205.398438 C 519.75 199.453125 523.0625 192.277344 526.964844 185.953125 C 528.574219 183.367188 530.160156 180.78125 531.769531 178.1875 C 532.421875 177.121094 533.035156 175.597656 532.097656 174.753906 C 529.238281 178.628906 526.363281 182.511719 523.488281 186.386719 C 521.25 189.414062 509.738281 202.308594 515.417969 205.398438 Z M 544.328125 227.5 C 540.070312 229.449219 539.367188 230.195312 543.941406 230.8125 C 547.761719 231.332031 553.597656 229.035156 557.402344 228.253906 C 566.351562 226.410156 575.234375 224.304688 584.050781 221.925781 C 589.011719 220.585938 594.039062 219.125 598.332031 216.308594 L 597.984375 214.625 C 597.875 214.097656 548.609375 225.539062 544.328125 227.5 Z M 361.605469 273.921875 C 360.597656 274.210938 359.507812 274.5625 358.949219 275.453125 C 364.394531 277.796875 370.640625 276.3125 376.371094 274.804688 C 388.597656 271.589844 400.828125 268.371094 413.054688 265.144531 C 415.878906 264.398438 427.339844 259.421875 420.007812 258.679688 C 414.890625 258.167969 405.554688 263.140625 400.34375 264.457031 C 387.449219 267.695312 374.386719 270.238281 361.605469 273.921875 Z M 466.011719 183.734375 C 467.742188 179.386719 458.890625 133.359375 456.632812 133.835938 C 456.128906 133.945312 455.640625 134.046875 455.148438 134.152344 C 457.933594 149.566406 459.234375 169.644531 466.011719 183.734375 Z M 448.195312 253.773438 C 445.65625 252.457031 443.066406 251.191406 440.664062 249.625 C 439.320312 248.757812 438.039062 247.796875 436.761719 246.839844 C 435.078125 245.578125 433.398438 244.3125 431.703125 243.050781 C 431.5625 242.9375 431.394531 242.8125 431.355469 242.628906 C 431.269531 242.257812 431.695312 241.992188 432.058594 241.855469 C 441.886719 237.996094 452.003906 234.398438 461.847656 230.542969 C 464.578125 220.40625 467.09375 210.214844 469.390625 199.972656 C 470.257812 199.375 471.390625 200.148438 472.144531 200.886719 C 479.660156 208.269531 486.113281 216.71875 491.277344 225.898438 C 492.867188 225.332031 494.355469 225.128906 496.039062 225.140625 C 504.757812 225.140625 513.472656 224.675781 522.136719 223.742188 C 522.457031 224.097656 522.195312 224.660156 521.9375 225.050781 C 516.226562 233.675781 510.199219 242.089844 503.882812 250.269531 C 508.601562 260.585938 512.886719 270.683594 516.558594 281.417969 C 513.707031 281.332031 510.917969 280.632812 508.164062 279.890625 C 500.773438 277.914062 493.457031 275.640625 486.246094 273.0625 C 485.585938 272.820312 484.925781 272.589844 484.265625 272.351562 C 477.113281 279.394531 469.78125 285.960938 461.980469 292.304688 C 461.464844 292.71875 460.738281 293.136719 460.210938 292.738281 C 459.890625 292.5 459.8125 292.070312 459.765625 291.667969 C 458.566406 281.179688 458.25 270.597656 458.824219 260.050781 C 455.308594 257.9375 451.84375 255.671875 448.195312 253.773438 "/>
</g>
</g>
</g>
<g clip-path="url(#clip18)" clip-rule="nonzero">
<path style=" stroke:none;fill-rule:nonzero;fill:rgb(35.688782%,12.159729%,8.239746%);fill-opacity:1;" d="M 790.527344 719.441406 C 790.527344 754.6875 761.992188 783.265625 726.789062 783.265625 C 691.582031 783.265625 663.039062 754.6875 663.039062 719.441406 C 663.039062 684.203125 691.582031 655.625 726.789062 655.625 C 761.992188 655.625 790.527344 684.203125 790.527344 719.441406 "/>
</g>
<path style=" stroke:none;fill-rule:nonzero;fill:rgb(83.529663%,81.959534%,69.018555%);fill-opacity:1;" d="M 756.675781 719.441406 C 756.675781 735.972656 743.292969 749.371094 726.789062 749.371094 C 710.277344 749.371094 696.898438 735.972656 696.898438 719.441406 C 696.898438 702.914062 710.277344 689.519531 726.789062 689.519531 C 743.292969 689.519531 756.675781 702.914062 756.675781 719.441406 "/>
<path style=" stroke:none;fill-rule:nonzero;fill:rgb(35.688782%,12.159729%,8.239746%);fill-opacity:1;" d="M 743.34375 719.441406 C 743.34375 728.597656 735.929688 736.023438 726.785156 736.023438 C 717.644531 736.023438 710.230469 728.597656 710.230469 719.441406 C 710.230469 710.292969 717.644531 702.871094 726.785156 702.871094 C 735.929688 702.871094 743.34375 710.292969 743.34375 719.441406 "/>
<path style=" stroke:none;fill-rule:nonzero;fill:rgb(50.19989%,18.03894%,12.939453%);fill-opacity:1;" d="M 737.261719 712.59375 C 737.261719 715.5 732.570312 717.851562 726.785156 717.851562 C 720.996094 717.851562 716.304688 715.5 716.304688 712.59375 C 716.304688 709.6875 720.996094 707.335938 726.785156 707.335938 C 732.570312 707.335938 737.261719 709.6875 737.261719 712.59375 "/>
<g clip-path="url(#clip19)" clip-rule="nonzero">
<path style=" stroke:none;fill-rule:nonzero;fill:rgb(96.469116%,52.938843%,7.058716%);fill-opacity:1;" d="M 433.535156 624.460938 C 433.535156 626.71875 431.703125 628.554688 429.445312 628.554688 L 367.847656 628.554688 C 365.585938 628.554688 363.753906 626.71875 363.753906 624.460938 L 363.753906 608.074219 C 363.753906 605.8125 365.585938 603.976562 367.847656 603.976562 L 429.445312 603.976562 C 431.703125 603.976562 433.535156 605.8125 433.535156 608.074219 L 433.535156 624.460938 "/>
</g>
<path style=" stroke:none;fill-rule:nonzero;fill:rgb(97.648621%,69.018555%,13.328552%);fill-opacity:1;" d="M 386.382812 611.699219 C 386.382812 614.820312 381.835938 617.359375 376.222656 617.359375 C 370.621094 617.359375 366.074219 614.820312 366.074219 611.699219 C 366.074219 608.566406 370.621094 606.035156 376.222656 606.035156 C 381.835938 606.035156 386.382812 608.566406 386.382812 611.699219 "/>
<path style=" stroke:none;fill-rule:nonzero;fill:rgb(68.629456%,12.939453%,12.159729%);fill-opacity:1;" d="M 620.195312 728.929688 C 620.195312 733.867188 616.199219 737.863281 611.265625 737.863281 C 606.335938 737.863281 602.335938 733.867188 602.335938 728.929688 L 602.335938 712.183594 C 602.335938 707.25 606.335938 703.246094 611.265625 703.246094 C 616.199219 703.246094 620.195312 707.25 620.195312 712.183594 L 620.195312 728.929688 "/>
<path style=" stroke:none;fill-rule:nonzero;fill:rgb(35.688782%,12.159729%,8.239746%);fill-opacity:1;" d="M 554.351562 732.175781 C 551.375 732.175781 548.953125 729.757812 548.953125 726.773438 C 548.953125 723.785156 551.375 721.367188 554.351562 721.367188 L 611.886719 721.367188 C 614.867188 721.367188 617.28125 723.785156 617.28125 726.773438 C 617.28125 729.757812 614.867188 732.175781 611.886719 732.175781 L 554.351562 732.175781 "/>
<path style=" stroke:none;fill-rule:nonzero;fill:rgb(97.24884%,63.139343%,5.488586%);fill-opacity:1;" d="M 697.621094 527.65625 C 697.621094 543.984375 684.398438 557.222656 668.089844 557.222656 C 651.78125 557.222656 638.558594 543.984375 638.558594 527.65625 C 638.558594 511.328125 651.78125 498.089844 668.089844 498.089844 C 684.398438 498.089844 697.621094 511.328125 697.621094 527.65625 "/>
<path style=" stroke:none;fill-rule:nonzero;fill:rgb(98.429871%,74.899292%,13.729858%);fill-opacity:1;" d="M 692.855469 526.789062 C 689.871094 529.363281 683.257812 526.566406 678.078125 520.535156 C 672.90625 514.511719 671.132812 507.542969 674.117188 504.976562 C 677.105469 502.40625 683.722656 505.203125 688.890625 511.226562 C 694.070312 517.25 695.84375 524.21875 692.855469 526.789062 "/>
<path style=" stroke:none;fill-rule:nonzero;fill:rgb(35.688782%,12.159729%,8.239746%);fill-opacity:1;" d="M 452.96875 625.847656 C 452.96875 628.65625 450.4375 630.929688 447.308594 630.929688 L 382.738281 630.929688 C 379.609375 630.929688 377.078125 628.65625 377.078125 625.847656 L 377.078125 605.53125 C 377.078125 602.730469 379.609375 600.453125 382.738281 600.453125 L 447.308594 600.453125 C 450.4375 600.453125 452.96875 602.730469 452.96875 605.53125 L 452.96875 625.847656 "/>
<path style=" stroke:none;fill-rule:nonzero;fill:rgb(86.268616%,16.859436%,15.689087%);fill-opacity:1;" d="M 467.835938 629.800781 C 467.835938 633.433594 465.222656 636.382812 461.992188 636.382812 L 394.746094 636.382812 C 391.519531 636.382812 388.90625 633.433594 388.90625 629.800781 L 388.90625 603.488281 C 388.90625 599.863281 391.519531 596.917969 394.746094 596.917969 L 461.992188 596.917969 C 465.222656 596.917969 467.835938 599.863281 467.835938 603.488281 L 467.835938 629.800781 "/>
<g clip-path="url(#clip20)" clip-rule="nonzero">
<path style=" stroke:none;fill-rule:nonzero;fill:rgb(35.688782%,12.159729%,8.239746%);fill-opacity:1;" d="M 506.136719 714.933594 C 506.136719 752.671875 475.582031 783.265625 437.890625 783.265625 C 400.191406 783.265625 369.636719 752.671875 369.636719 714.933594 C 369.636719 677.199219 400.191406 646.605469 437.890625 646.605469 C 475.582031 646.605469 506.136719 677.199219 506.136719 714.933594 "/>
</g>
<path style=" stroke:none;fill-rule:nonzero;fill:rgb(83.529663%,81.959534%,69.018555%);fill-opacity:1;" d="M 469.894531 714.933594 C 469.894531 732.628906 455.5625 746.980469 437.890625 746.980469 C 420.214844 746.980469 405.882812 732.628906 405.882812 714.933594 C 405.882812 697.234375 420.214844 682.890625 437.890625 682.890625 C 455.5625 682.890625 469.894531 697.234375 469.894531 714.933594 "/>
<path style=" stroke:none;fill-rule:nonzero;fill:rgb(35.688782%,12.159729%,8.239746%);fill-opacity:1;" d="M 455.613281 714.933594 C 455.613281 724.734375 447.671875 732.679688 437.890625 732.679688 C 428.101562 732.679688 420.164062 724.734375 420.164062 714.933594 C 420.164062 705.128906 428.101562 697.191406 437.890625 697.191406 C 447.671875 697.191406 455.613281 705.128906 455.613281 714.933594 "/>
<path style=" stroke:none;fill-rule:nonzero;fill:rgb(93.728638%,18.429565%,17.248535%);fill-opacity:1;" d="M 786.03125 691.246094 C 786.042969 690.949219 786.066406 690.660156 786.066406 690.367188 C 786.066406 669.671875 760.347656 652.902344 728.628906 652.902344 C 696.902344 652.902344 671.1875 669.671875 671.1875 690.367188 C 671.1875 690.660156 671.214844 690.949219 671.222656 691.246094 L 786.03125 691.246094 "/>
<path style=" stroke:none;fill-rule:nonzero;fill:rgb(93.728638%,18.429565%,17.248535%);fill-opacity:1;" d="M 693.390625 632.300781 C 684.117188 603.824219 660.714844 515.875 660.714844 515.875 L 640.398438 522.953125 C 650.996094 568.929688 655.414062 586.609375 664.242188 645.5625 C 671.144531 691.621094 643.492188 696.25 618.320312 696.25 C 598.453125 696.25 574.164062 696.25 574.164062 696.25 C 502.820312 696.25 532.003906 588.542969 535.804688 575.492188 L 457.480469 575.492188 L 485.855469 656.460938 C 478.789062 721.101562 549.441406 716.589844 549.441406 716.589844 L 652.320312 716.589844 C 711.492188 716.589844 700.953125 655.535156 693.390625 632.300781 "/>
<path style=" stroke:none;fill-rule:nonzero;fill:rgb(93.728638%,18.429565%,17.248535%);fill-opacity:1;" d="M 679.078125 494.359375 C 652.425781 494.507812 630.882812 509.351562 630.882812 527.65625 C 630.882812 545.960938 652.425781 560.808594 679.078125 560.957031 L 679.078125 494.359375 "/>
<path style=" stroke:none;fill-rule:nonzero;fill:rgb(93.728638%,18.429565%,17.248535%);fill-opacity:1;" d="M 731.695312 658.515625 C 728.332031 649.570312 700.386719 577.613281 695.070312 565.472656 C 692.671875 559.988281 685.179688 560.078125 685.179688 560.078125 L 662.003906 560.078125 L 686.695312 658.515625 L 731.695312 658.515625 "/>
<path style=" stroke:none;fill-rule:nonzero;fill:rgb(93.728638%,18.429565%,17.248535%);fill-opacity:1;" d="M 514.382812 668.921875 C 514.390625 668.453125 514.421875 667.984375 514.421875 667.511719 C 514.421875 634.4375 497.980469 594.605469 450.1875 594.605469 C 394.242188 594.605469 375.046875 634.4375 375.046875 667.511719 C 375.046875 667.984375 375.074219 668.453125 375.089844 668.921875 L 514.382812 668.921875 "/>
<path style=" stroke:none;fill-rule:nonzero;fill:rgb(78.42865%,15.289307%,14.118958%);fill-opacity:1;" d="M 457.613281 594.605469 C 455.519531 594.605469 453.488281 594.675781 451.496094 594.789062 C 495.609375 597.621094 511.046875 636.394531 511.128906 668.921875 L 521.808594 668.921875 C 521.816406 668.453125 521.839844 667.984375 521.839844 667.511719 C 521.839844 634.4375 505.40625 594.605469 457.613281 594.605469 "/>
<path style=" stroke:none;fill-rule:nonzero;fill:rgb(57.249451%,10.5896%,9.408569%);fill-opacity:1;" d="M 477.292969 658.078125 C 477.292969 659.433594 476.195312 660.53125 474.839844 660.53125 L 406.824219 660.53125 C 405.46875 660.53125 404.371094 659.433594 404.371094 658.078125 C 404.371094 656.722656 405.46875 655.625 406.824219 655.625 L 474.839844 655.625 C 476.195312 655.625 477.292969 656.722656 477.292969 658.078125 "/>
<path style=" stroke:none;fill-rule:nonzero;fill:rgb(57.249451%,10.5896%,9.408569%);fill-opacity:1;" d="M 477.292969 649.054688 C 477.292969 650.40625 476.195312 651.507812 474.839844 651.507812 L 406.824219 651.507812 C 405.46875 651.507812 404.371094 650.40625 404.371094 649.054688 C 404.371094 647.695312 405.46875 646.605469 406.824219 646.605469 L 474.839844 646.605469 C 476.195312 646.605469 477.292969 647.695312 477.292969 649.054688 "/>
<path style=" stroke:none;fill-rule:nonzero;fill:rgb(57.249451%,10.5896%,9.408569%);fill-opacity:1;" d="M 477.292969 640.03125 C 477.292969 641.386719 476.195312 642.484375 474.839844 642.484375 L 406.824219 642.484375 C 405.46875 642.484375 404.371094 641.386719 404.371094 640.03125 C 404.371094 638.675781 405.46875 637.578125 406.824219 637.578125 L 474.839844 637.578125 C 476.195312 637.578125 477.292969 638.675781 477.292969 640.03125 "/>
<path style=" stroke:none;fill-rule:nonzero;fill:rgb(57.249451%,10.5896%,9.408569%);fill-opacity:1;" d="M 477.292969 631.007812 C 477.292969 632.367188 476.195312 633.460938 474.839844 633.460938 L 406.824219 633.460938 C 405.46875 633.460938 404.371094 632.367188 404.371094 631.007812 C 404.371094 629.648438 405.46875 628.554688 406.824219 628.554688 L 474.839844 628.554688 C 476.195312 628.554688 477.292969 629.648438 477.292969 631.007812 "/>
<path style=" stroke:none;fill-rule:nonzero;fill:rgb(94.898987%,31.759644%,26.269531%);fill-opacity:1;" d="M 476.785156 610.082031 C 476.785156 615.398438 462.433594 619.714844 444.734375 619.714844 C 427.035156 619.714844 412.683594 615.398438 412.683594 610.082031 C 412.683594 604.765625 427.035156 600.453125 444.734375 600.453125 C 462.433594 600.453125 476.785156 604.765625 476.785156 610.082031 "/>
<path style=" stroke:none;fill-rule:nonzero;fill:rgb(50.19989%,18.03894%,12.939453%);fill-opacity:1;" d="M 449.105469 707.601562 C 449.105469 710.707031 444.085938 713.230469 437.890625 713.230469 C 431.691406 713.230469 426.671875 710.707031 426.671875 707.601562 C 426.671875 704.488281 431.691406 701.972656 437.890625 701.972656 C 444.085938 701.972656 449.105469 704.488281 449.105469 707.601562 "/>
<path style=" stroke:none;fill-rule:nonzero;fill:rgb(35.688782%,12.159729%,8.239746%);fill-opacity:1;" d="M 543.679688 584.878906 C 543.679688 591.527344 538.296875 596.917969 531.65625 596.917969 L 431.34375 596.917969 C 424.703125 596.917969 419.320312 591.527344 419.320312 584.878906 C 419.320312 578.230469 424.703125 572.835938 431.34375 572.835938 L 531.65625 572.835938 C 538.296875 572.835938 543.679688 578.230469 543.679688 584.878906 "/>
<path style=" stroke:none;fill-rule:nonzero;fill:rgb(97.24884%,63.139343%,5.488586%);fill-opacity:1;" d="M 717.230469 621.175781 L 711.378906 621.175781 C 709.121094 621.175781 707.292969 623.011719 707.292969 625.269531 L 707.292969 641.65625 C 707.292969 643.914062 709.121094 645.753906 711.378906 645.753906 L 726.785156 645.753906 C 724.171875 638.992188 720.808594 630.335938 717.230469 621.175781 "/>
<path style=" stroke:none;fill-rule:nonzero;fill:rgb(94.898987%,31.759644%,26.269531%);fill-opacity:1;" d="M 673.316406 503.882812 C 675.152344 507.859375 669.078125 514.574219 659.753906 518.878906 C 650.4375 523.179688 641.390625 523.4375 639.5625 519.464844 C 637.730469 515.488281 643.804688 508.773438 653.125 504.476562 C 662.445312 500.167969 671.488281 499.90625 673.316406 503.882812 "/>
<path style=" stroke:none;fill-rule:nonzero;fill:rgb(27.839661%,9.01947%,5.879211%);fill-opacity:1;" d="M 659.351562 532.664062 C 658.238281 532.664062 657.203125 531.953125 656.835938 530.835938 C 656.710938 530.472656 644.730469 493.882812 637.65625 477.511719 C 635.207031 471.851562 629.136719 462.828125 615.972656 465.996094 C 614.554688 466.324219 613.125 465.460938 612.78125 464.027344 C 612.441406 462.609375 613.316406 461.175781 614.738281 460.832031 C 632.789062 456.5 640.5625 470.886719 642.515625 475.40625 C 649.6875 491.996094 661.375 527.675781 661.871094 529.1875 C 662.324219 530.582031 661.570312 532.078125 660.179688 532.539062 C 659.90625 532.625 659.625 532.664062 659.351562 532.664062 "/>
<g clip-path="url(#clip21)" clip-rule="nonzero">
<path style=" stroke:none;fill-rule:nonzero;fill:rgb(27.839661%,9.01947%,5.879211%);fill-opacity:1;" d="M 600.742188 485.726562 C 612.175781 485.632812 621.410156 476.347656 621.410156 464.890625 C 621.410156 453.4375 612.175781 444.152344 600.742188 444.058594 L 600.742188 485.726562 "/>
</g>
<path style=" stroke:none;fill-rule:nonzero;fill:rgb(98.429871%,77.648926%,18.818665%);fill-opacity:1;" d="M 720.164062 628.695312 C 719.429688 626.8125 718.679688 624.890625 717.925781 622.945312 C 717.230469 622.800781 716.492188 622.707031 715.710938 622.707031 C 712.238281 622.707031 709.417969 624.28125 709.417969 626.21875 C 709.417969 628.152344 712.238281 629.726562 715.710938 629.726562 C 717.449219 629.726562 719.023438 629.328125 720.164062 628.695312 "/>
<path style=" stroke:none;fill-rule:nonzero;fill:rgb(52.549744%,18.818665%,13.328552%);fill-opacity:1;" d="M 531.160156 579.5625 C 531.160156 581.601562 529.507812 583.257812 527.46875 583.257812 L 431.328125 583.257812 C 429.289062 583.257812 427.636719 581.601562 427.636719 579.5625 C 427.636719 577.519531 429.289062 575.863281 431.328125 575.863281 L 527.46875 575.863281 C 529.507812 575.863281 531.160156 577.519531 531.160156 579.5625 "/>
<path style=" stroke:none;fill-rule:nonzero;fill:rgb(41.569519%,14.509583%,10.198975%);fill-opacity:1;" d="M 617.425781 459.835938 C 615.953125 461.46875 611.710938 460.015625 607.957031 456.605469 C 604.207031 453.1875 602.363281 449.101562 603.839844 447.472656 C 605.316406 445.84375 609.558594 447.292969 613.308594 450.707031 C 617.0625 454.121094 618.90625 458.210938 617.425781 459.835938 "/>
<path style=" stroke:none;fill-rule:nonzero;fill:rgb(38.038635%,12.939453%,9.01947%);fill-opacity:1;" d="M 654.980469 534.035156 C 654.980469 538.789062 651.136719 542.640625 646.390625 542.640625 L 619.511719 542.640625 C 614.765625 542.640625 610.917969 538.789062 610.917969 534.035156 C 610.917969 529.285156 614.765625 525.433594 619.511719 525.433594 L 646.390625 525.433594 C 651.136719 525.433594 654.980469 529.285156 654.980469 534.035156 "/>
<g clip-path="url(#clip22)" clip-rule="nonzero">
<g clip-path="url(#clip23)" clip-rule="nonzero">
<g clip-path="url(#clip24)" clip-rule="nonzero">
<g clip-path="url(#clip25)" clip-rule="nonzero">
<g clip-path="url(#clip26)" clip-rule="nonzero">
<path style=" stroke:none;fill-rule:nonzero;fill:rgb(0%,50.19989%,21.569824%);fill-opacity:1;" d="M 741.773438 601.828125 C 622.832031 609.4375 507.625 645.59375 389.570312 661.925781 C 397.230469 623.5 404.890625 585.070312 412.546875 546.640625 C 418.539062 516.546875 424.542969 486.421875 432.730469 456.851562 C 438.394531 436.402344 445.109375 416.195312 449.351562 395.402344 C 453.449219 375.296875 455.222656 354.765625 459.917969 334.785156 C 464.441406 315.570312 476.242188 294.5625 483.40625 276.160156 C 508.613281 295.929688 528.457031 322.734375 549.816406 346.613281 C 562.8125 361.148438 575.035156 376.382812 588.609375 390.367188 C 597.933594 399.960938 607.859375 408.949219 617.355469 418.351562 C 637.914062 438.726562 656.382812 461.078125 674.40625 483.714844 C 702.726562 519.261719 746.875 598.488281 745.683594 600.542969 C 744.488281 602.613281 741.875 604.210938 741.773438 601.828125 "/>
</g>
</g>
</g>
</g>
</g>
<g clip-path="url(#clip27)" clip-rule="nonzero">
<g clip-path="url(#clip28)" clip-rule="nonzero">
<g clip-path="url(#clip29)" clip-rule="nonzero">
<path style=" stroke:none;fill-rule:nonzero;fill:rgb(1.568604%,23.919678%,14.509583%);fill-opacity:1;" d="M 740.847656 589.875 C 738.769531 585.890625 736.113281 580.976562 732.992188 575.402344 C 732.507812 575.277344 732.027344 575.164062 731.550781 575.074219 C 722.464844 573.445312 713.171875 573.730469 703.949219 574.023438 C 686.851562 574.570312 669.753906 575.113281 652.644531 575.664062 C 638.878906 576.101562 625.097656 576.53125 611.367188 577.726562 C 580.410156 580.421875 549.167969 586.957031 518.542969 581.664062 C 512.332031 580.585938 506.179688 579.039062 499.886719 578.683594 C 493.1875 578.316406 486.503906 579.3125 479.804688 579.746094 C 465.757812 580.679688 451.542969 579.101562 438.027344 575.132812 C 428.261719 572.269531 418.242188 568.136719 408.308594 567.90625 C 407.558594 571.648438 406.816406 575.390625 406.066406 579.132812 C 408.652344 583.121094 412.9375 585.78125 417.0625 588.242188 C 426.878906 594.085938 436.960938 600.042969 448.199219 602.113281 C 463.054688 604.839844 478.214844 600.511719 493.3125 600.050781 C 503.433594 599.738281 513.515625 601.171875 523.597656 602.101562 C 568.265625 606.191406 613.269531 600.269531 658.089844 601.878906 C 677.261719 602.558594 696.597656 604.609375 715.527344 601.523438 C 724.609375 600.046875 733.9375 597.132812 740.316406 590.492188 C 740.496094 590.289062 740.675781 590.074219 740.847656 589.875 Z M 544.671875 505.261719 C 550.921875 505.339844 557.171875 505.410156 563.433594 505.433594 C 588.238281 505.527344 613.148438 504.824219 637.625 500.789062 C 650.105469 498.730469 663.855469 494.824219 670.152344 483.847656 C 670.785156 482.742188 671.292969 481.554688 671.695312 480.316406 C 666.808594 474.203125 661.863281 468.121094 656.859375 462.089844 C 655.96875 462.210938 655.089844 462.394531 654.234375 462.640625 C 649.457031 464.007812 645.234375 466.757812 640.894531 469.167969 C 618.273438 481.660156 591.878906 484.871094 566.210938 487.855469 C 557.425781 488.886719 548.601562 489.910156 539.765625 489.558594 C 532.4375 489.273438 525.171875 488.035156 517.890625 487.175781 C 503.417969 485.488281 488.429688 485.203125 475.070312 479.378906 C 466.214844 475.511719 457.613281 469.171875 448.011719 470.203125 C 444.824219 470.539062 441.746094 471.710938 438.539062 471.828125 C 436.628906 471.902344 432.855469 469.65625 429.578125 468.691406 C 428.636719 472.34375 427.726562 476.003906 426.835938 479.667969 C 427.445312 480.34375 428.082031 480.976562 428.710938 481.601562 C 433.875 486.648438 439.210938 491.648438 445.507812 495.203125 C 451.582031 498.617188 458.375 500.574219 465.21875 501.886719 C 478.695312 504.476562 492.503906 504.640625 506.21875 504.8125 C 519.035156 504.957031 531.855469 505.113281 544.671875 505.261719 Z M 559.875 392.605469 C 568.984375 393.148438 578.472656 392.386719 586.570312 388.21875 C 583.570312 385.070312 580.621094 381.875 577.71875 378.632812 C 577.140625 378.613281 576.570312 378.597656 576.003906 378.585938 C 555.027344 378.222656 534.050781 377.871094 513.074219 377.515625 C 508.222656 377.429688 503.335938 377.339844 498.609375 376.214844 C 493.011719 374.894531 487.824219 372.15625 482.226562 370.847656 C 476.257812 369.449219 470.113281 369.769531 464.09375 370.652344 C 461.398438 371.042969 456.542969 371.003906 453.335938 372.167969 C 452.683594 376.433594 452.003906 380.691406 451.277344 384.933594 C 455.375 388.964844 462.429688 391.988281 466.023438 392.53125 C 487.621094 395.851562 509.515625 388.875 531.339844 389.757812 C 540.886719 390.140625 550.324219 392.039062 559.875 392.605469 Z M 586.855469 624.238281 C 594.800781 645.859375 601.691406 667.863281 607.460938 690.164062 C 594.433594 694.605469 567.429688 698.066406 553.660156 697.976562 C 552.589844 678.15625 551.511719 658.351562 550.421875 638.546875 C 550.328125 636.660156 550.019531 634.355469 549.65625 631.855469 C 562.054688 629.273438 574.445312 626.714844 586.855469 624.238281 "/>
</g>
</g>
</g>
<g clip-path="url(#clip30)" clip-rule="nonzero">
<g clip-path="url(#clip31)" clip-rule="nonzero">
<g clip-path="url(#clip32)" clip-rule="nonzero">
<path style=" stroke:none;fill-rule:nonzero;fill:rgb(100%,100%,100%);fill-opacity:1;" d="M 550.410156 621.71875 C 552.140625 624.0625 554.410156 625.949219 556.777344 627.636719 C 558.941406 629.183594 561.277344 630.632812 563.882812 631.132812 C 566.074219 631.542969 568.324219 631.269531 570.484375 630.742188 C 573.03125 630.136719 575.53125 629.1875 577.632812 627.628906 C 582.539062 623.972656 584.539062 617.382812 584.191406 611.265625 C 583.582031 600.515625 572.808594 589.691406 561.453125 592.941406 C 549.421875 596.386719 542.722656 611.261719 550.410156 621.71875 Z M 453.507812 518.625 C 458.578125 523.855469 466.960938 524.265625 474.011719 522.417969 C 476.640625 521.734375 479.292969 520.734375 481.199219 518.800781 C 491.296875 508.5 482.210938 486.359375 467.898438 486.371094 C 452.738281 486.375 442.390625 507.140625 453.507812 518.625 Z M 544.859375 383.722656 C 551.113281 384.898438 556.191406 388.65625 557.28125 395.128906 C 559.253906 406.84375 550.574219 414.640625 539.539062 415.960938 C 536.304688 416.355469 532.839844 415.75 530.3125 413.691406 C 516.4375 402.386719 528.488281 380.636719 544.859375 383.722656 "/>
</g>
</g>
</g>
<g clip-path="url(#clip33)" clip-rule="nonzero">
<g clip-path="url(#clip34)" clip-rule="nonzero">
<g clip-path="url(#clip35)" clip-rule="nonzero">
<path style=" stroke:none;fill-rule:nonzero;fill:rgb(78.819275%,29.40979%,35.289001%);fill-opacity:1;" d="M 679.707031 613.042969 C 679.910156 614.839844 680.253906 616.675781 681.253906 618.164062 C 682.171875 619.539062 683.582031 620.511719 685.003906 621.359375 C 689.40625 624.019531 694.488281 625.953125 699.628906 625.511719 C 704.761719 625.058594 709.859375 621.773438 711.277344 616.8125 C 714.171875 606.675781 710.328125 589.445312 697.816406 588.605469 C 684.371094 587.691406 678.414062 601.636719 679.707031 613.042969 Z M 442.324219 608.046875 C 442.832031 610.285156 443.789062 612.40625 444.839844 614.464844 C 445.503906 615.761719 446.234375 617.070312 447.289062 618.089844 C 449.039062 619.789062 451.515625 620.503906 453.933594 620.808594 C 460.125 621.574219 466.589844 619.824219 471.550781 616.039062 C 472.835938 615.066406 474.042969 613.9375 474.828125 612.519531 C 476.289062 609.910156 476.140625 606.695312 475.476562 603.78125 C 473.710938 596.0625 467.457031 585.507812 458.308594 586.230469 C 447.964844 587.050781 440.0625 598.121094 442.324219 608.046875 Z M 638.53125 516.664062 C 641.285156 517.308594 644.171875 517.210938 646.992188 516.855469 C 656.15625 515.714844 662.925781 510.878906 663.035156 501.101562 C 663.128906 494.089844 660.683594 487.0625 654.480469 483.324219 C 643.152344 476.496094 627.550781 483.640625 625.78125 496.851562 C 624.664062 505.273438 629.976562 514.65625 638.53125 516.664062 Z M 538.792969 505.503906 C 537.421875 510.808594 539.40625 516.683594 543.28125 520.546875 C 547.15625 524.414062 552.71875 526.355469 558.1875 526.394531 C 560.058594 526.410156 561.949219 526.210938 563.6875 525.523438 C 567.34375 524.078125 569.910156 520.589844 571.003906 516.808594 C 572.101562 513.042969 571.886719 509.015625 571.265625 505.128906 C 570.121094 497.953125 565.535156 489.371094 557.089844 490.296875 C 549.863281 491.085938 540.585938 498.542969 538.792969 505.503906 Z M 463.082031 386.628906 C 467.304688 379.984375 478.417969 375.03125 485.3125 380.710938 C 494.402344 388.210938 490.265625 406.277344 479.613281 410.015625 C 474.316406 411.882812 468.03125 410.558594 463.9375 406.71875 C 458.710938 401.824219 459.484375 392.308594 463.082031 386.628906 "/>
</g>
</g>
</g>
<g clip-path="url(#clip36)" clip-rule="nonzero">
<g clip-path="url(#clip37)" clip-rule="nonzero">
<g clip-path="url(#clip38)" clip-rule="nonzero">
<path style=" stroke:none;fill-rule:nonzero;fill:rgb(94.898987%,79.219055%,35.688782%);fill-opacity:1;" d="M 424.050781 553.644531 C 420.628906 550.289062 416.664062 540.230469 411.589844 541.800781 C 405.628906 543.648438 404.335938 554.433594 405.480469 559.285156 C 407.160156 566.46875 412.746094 572.253906 419.179688 575.851562 C 425.613281 579.460938 432.898438 581.199219 440.085938 582.855469 C 463.105469 588.175781 486.332031 593.070312 509.921875 594.449219 C 556.296875 597.164062 602.558594 586.207031 649.003906 587.484375 C 664.441406 587.914062 679.910156 589.691406 695.316406 588.585938 C 710.734375 587.480469 742.324219 584.523438 732.367188 571.953125 C 703.007812 561.648438 676.574219 560.664062 646.15625 567.203125 C 636.320312 569.316406 551.746094 569.609375 519.0625 569.484375 C 499.652344 569.410156 480.160156 572.648438 460.914062 570.128906 C 447.53125 568.382812 433.820312 563.21875 424.050781 553.644531 Z M 439.953125 449.050781 C 428.003906 441.078125 423.296875 458.753906 428.234375 467.660156 C 432.164062 474.75 439.222656 479.691406 446.789062 482.574219 C 454.355469 485.457031 462.476562 486.496094 470.527344 487.40625 C 511.070312 491.953125 551.964844 493.511719 592.742188 492.09375 C 598.851562 491.875 604.96875 491.59375 611.035156 490.9375 C 618.820312 490.082031 626.546875 488.589844 634.09375 486.496094 C 641.460938 484.441406 649.023438 481.574219 653.894531 475.6875 C 658.78125 469.800781 659.804688 460.117188 654.234375 454.871094 C 653.707031 454.371094 653.078125 453.898438 652.34375 453.871094 C 651.492188 453.847656 650.753906 454.433594 650.089844 454.972656 C 636.835938 465.765625 619.964844 471.019531 603.226562 474.394531 C 595.9375 475.859375 588.566406 477.019531 581.140625 476.941406 C 572.007812 476.863281 563.023438 474.933594 553.976562 473.71875 C 528.945312 470.363281 503.183594 472.464844 478.648438 466.464844 C 464.714844 463.054688 451.859375 456.984375 439.960938 449.050781 Z M 466.765625 357.773438 C 463.789062 356.324219 459.316406 352.535156 455.941406 352.546875 C 448.125 352.574219 447.921875 364.9375 450.496094 369.902344 C 453.429688 375.597656 459.632812 379.101562 465.96875 380 C 470.703125 380.664062 475.53125 380.046875 480.3125 379.855469 C 496.511719 379.222656 512.457031 383.5625 528.585938 385.167969 C 541.351562 386.433594 554.242188 385.972656 567.015625 384.820312 C 571.902344 384.382812 577.851562 382.9375 579.027344 378.175781 C 580.101562 373.847656 576 369.691406 571.65625 368.699219 C 567.3125 367.699219 562.800781 368.8125 558.363281 369.265625 C 544.160156 370.722656 530.1875 365.304688 515.945312 364.113281 C 503.621094 363.089844 491 365.210938 478.972656 362.328125 C 474.726562 361.304688 470.675781 359.675781 466.765625 357.773438 Z M 420.515625 324.070312 C 423.21875 326.105469 424.695312 320.328125 425.640625 318.3125 C 429.148438 310.753906 431.46875 302.664062 435.570312 295.375 C 436.394531 293.898438 437.324219 292.246094 436.882812 290.609375 C 434.976562 291.117188 433.988281 293.179688 433.199219 295 C 430.269531 301.722656 426.621094 308.097656 422.976562 314.457031 C 421.820312 316.472656 417.429688 321.738281 420.515625 324.070312 Z M 551.136719 290.507812 C 554.835938 294.605469 559.378906 297.933594 562.726562 302.328125 C 563.292969 303.070312 563.871094 303.894531 564.757812 304.195312 C 565.644531 304.496094 566.867188 303.925781 566.804688 302.996094 C 561.105469 298.554688 556.222656 293.167969 551.613281 287.609375 C 549.25 284.75 543.917969 276.492188 540.089844 276.804688 C 541.660156 281.015625 547.914062 286.953125 551.136719 290.503906 Z M 431.566406 210.042969 C 433.570312 207.933594 428.230469 206.054688 426.710938 205.578125 C 418.8125 203.09375 410.929688 200.613281 403.039062 198.128906 C 403.125 198.859375 403.207031 199.597656 403.292969 200.328125 C 409.304688 202.585938 415.316406 204.847656 421.332031 207.109375 C 422.796875 207.660156 429.980469 211.707031 431.566406 210.042969 Z M 513.34375 205.398438 C 517.675781 199.453125 520.988281 192.277344 524.890625 185.953125 C 526.5 183.367188 528.085938 180.78125 529.695312 178.1875 C 530.347656 177.121094 530.964844 175.597656 530.027344 174.753906 C 527.164062 178.628906 524.289062 182.511719 521.417969 186.386719 C 519.179688 189.414062 507.664062 202.308594 513.34375 205.398438 Z M 542.257812 227.5 C 538 229.449219 537.292969 230.195312 541.867188 230.8125 C 545.691406 231.332031 551.523438 229.035156 555.328125 228.253906 C 564.277344 226.410156 573.160156 224.304688 581.976562 221.925781 C 586.9375 220.585938 591.964844 219.125 596.257812 216.308594 L 595.910156 214.625 C 595.804688 214.097656 546.535156 225.539062 542.257812 227.5 Z M 359.53125 273.921875 C 358.523438 274.210938 357.433594 274.5625 356.878906 275.453125 C 362.320312 277.796875 368.570312 276.3125 374.296875 274.808594 C 386.527344 271.589844 398.753906 268.371094 410.980469 265.144531 C 413.804688 264.398438 425.269531 259.421875 417.933594 258.679688 C 412.820312 258.167969 403.480469 263.140625 398.273438 264.457031 C 385.378906 267.695312 372.3125 270.238281 359.53125 273.921875 Z M 463.9375 183.734375 C 465.667969 179.386719 456.816406 133.359375 454.5625 133.835938 C 454.054688 133.945312 453.570312 134.046875 453.074219 134.152344 C 455.863281 149.566406 457.160156 169.644531 463.9375 183.734375 Z M 446.125 253.773438 C 443.582031 252.457031 440.992188 251.191406 438.589844 249.625 C 437.246094 248.757812 435.96875 247.796875 434.6875 246.839844 C 433.007812 245.578125 431.324219 244.3125 429.628906 243.054688 C 429.488281 242.9375 429.320312 242.8125 429.285156 242.628906 C 429.195312 242.257812 429.625 241.992188 429.984375 241.855469 C 439.8125 237.996094 449.933594 234.398438 459.773438 230.542969 C 462.503906 220.40625 465.023438 210.214844 467.320312 199.972656 C 468.183594 199.375 469.320312 200.148438 470.070312 200.886719 C 477.585938 208.269531 484.039062 216.71875 489.207031 225.898438 C 490.792969 225.332031 492.28125 225.128906 493.964844 225.140625 C 502.683594 225.140625 511.398438 224.675781 520.0625 223.742188 C 520.382812 224.097656 520.121094 224.660156 519.863281 225.050781 C 514.152344 233.675781 508.128906 242.089844 501.808594 250.269531 C 506.527344 260.585938 510.8125 270.6875 514.484375 281.417969 C 511.632812 281.332031 508.84375 280.632812 506.089844 279.890625 C 498.699219 277.914062 491.386719 275.640625 484.175781 273.0625 C 483.511719 272.820312 482.855469 272.589844 482.191406 272.351562 C 475.039062 279.394531 467.707031 285.960938 459.90625 292.304688 C 459.390625 292.71875 458.664062 293.136719 458.136719 292.742188 C 457.816406 292.5 457.738281 292.070312 457.691406 291.667969 C 456.492188 281.179688 456.175781 270.597656 456.753906 260.050781 C 453.238281 257.9375 449.773438 255.671875 446.125 253.773438 "/>
</g>
</g>
</g>
<path style=" stroke:none;fill-rule:nonzero;fill:rgb(6.269836%,5.879211%,5.099487%);fill-opacity:1;" d="M 316.410156 641.179688 C 296.488281 647.710938 275.734375 651.851562 254.707031 651.652344 C 244.726562 651.558594 234.671875 650.558594 224.894531 648.53125 C 216.183594 646.722656 208.167969 642.996094 200.617188 638.359375 C 193.574219 634.035156 187.691406 629.4375 184.179688 621.695312 C 181.074219 614.84375 179.539062 606.429688 183.046875 599.429688 C 190.101562 585.335938 212.375 587.710938 218.398438 601.425781 C 221.429688 608.316406 218.910156 617.613281 211.742188 620.820312 C 205.175781 623.761719 196.730469 619.820312 195.226562 612.6875 C 194.726562 610.339844 198.328125 609.332031 198.828125 611.691406 C 200.339844 618.867188 209.773438 619.988281 213.839844 614.375 C 218.234375 608.308594 215.3125 600.457031 209.542969 596.582031 C 204.113281 592.933594 196.632812 592.503906 191.03125 596.039062 C 184.410156 600.21875 183.898438 608.417969 185.8125 615.320312 C 189.566406 628.886719 202.476562 636.507812 214.765625 641.542969 C 229.191406 647.457031 246.207031 648.347656 261.625 647.824219 C 279.988281 647.199219 298 643.28125 315.417969 637.570312 C 317.703125 636.820312 318.6875 640.433594 316.410156 641.179688 "/>
<g clip-path="url(#clip39)" clip-rule="nonzero">
<path style=" stroke:none;fill-rule:nonzero;fill:rgb(6.269836%,5.879211%,5.099487%);fill-opacity:1;" d="M 342.234375 651.371094 C 310.667969 662.617188 277.886719 670.679688 244.382812 672.832031 C 213.542969 674.8125 181.480469 672.519531 153.207031 659.019531 C 130.238281 648.050781 109.570312 624.472656 114.273438 597.328125 C 116.246094 585.9375 122.6875 575.109375 132.257812 568.539062 C 137.25 565.117188 143.15625 562.996094 149.207031 562.648438 C 156.148438 562.257812 162.25 565.140625 167.496094 569.515625 C 172.335938 573.554688 176.515625 579.632812 176.511719 586.175781 C 176.507812 591.300781 174.882812 597.804688 170.980469 601.347656 C 166.472656 605.445312 159.257812 608.519531 153.285156 606.074219 C 147.59375 603.738281 143.121094 597.332031 145.304688 591.144531 C 146.097656 588.886719 149.707031 589.859375 148.90625 592.140625 C 146.480469 599.015625 154.527344 604.28125 160.5625 602.828125 C 166.054688 601.507812 170.097656 598.050781 171.648438 592.671875 C 173.191406 587.296875 173.046875 582.453125 169.882812 577.648438 C 166.546875 572.582031 160.496094 567.9375 154.5 566.710938 C 143.09375 564.378906 131.492188 571.765625 125.136719 580.757812 C 118.777344 589.761719 116 601.15625 117.949219 612.050781 C 122.40625 636.949219 144.386719 652.691406 166.765625 660.585938 C 192.644531 669.714844 220.390625 670.90625 247.546875 668.867188 C 279.625 666.457031 310.996094 658.535156 341.238281 647.761719 C 343.507812 646.953125 344.484375 650.570312 342.234375 651.371094 "/>
</g>
<path style=" stroke:none;fill-rule:nonzero;fill:rgb(6.269836%,5.879211%,5.099487%);fill-opacity:1;" d="M 361.132812 658.335938 C 329.167969 672.902344 295.570312 682.480469 261.070312 688.820312 C 226.992188 695.085938 191.167969 695.160156 158.152344 683.632812 C 149.769531 680.703125 141.824219 676.925781 133.921875 672.90625 C 125.453125 668.601562 117.007812 664.238281 109.0625 659.003906 C 95.167969 649.855469 80.976562 639.390625 63.425781 643.421875 C 48.574219 646.832031 36.636719 658.011719 32.011719 672.496094 C 27.066406 687.980469 30.238281 705.851562 42.40625 717.21875 C 49.027344 723.402344 59 727.03125 67.988281 726.441406 C 77.566406 725.8125 86.617188 720.484375 92.972656 713.4375 C 99.128906 706.613281 102.121094 697.371094 98.894531 688.453125 C 97.445312 684.457031 94.433594 679.792969 90.257812 678.328125 C 87.191406 677.25 78.214844 675.964844 78.410156 681.191406 C 78.496094 683.601562 74.761719 683.597656 74.675781 681.191406 C 74.378906 673.171875 83.964844 673.199219 89.507812 674.289062 C 96.914062 675.746094 101.820312 683.46875 103.347656 690.425781 C 106.972656 706.941406 93.738281 721.699219 79.324219 727.570312 C 63.21875 734.128906 44.652344 727.628906 34.605469 713.832031 C 24.394531 699.8125 23.664062 681.476562 30.5625 665.855469 C 36.683594 651.988281 50.296875 641.644531 65.226562 639.273438 C 84.441406 636.226562 98.921875 648.339844 114.222656 657.875 C 131.636719 668.726562 150.800781 678.273438 170.667969 683.558594 C 190.125 688.738281 210.394531 690.152344 230.449219 688.90625 C 252.554688 687.527344 274.445312 682.8125 295.871094 677.378906 C 317.652344 671.859375 338.800781 664.421875 359.25 655.105469 C 361.421875 654.117188 363.320312 657.339844 361.132812 658.335938 "/>
</g>
</svg>
